<ttFont>
    <TTGlyph name="A" xMin="-34" yMin="0" xMax="1452" yMax="1439">
      <contour>
        <pt x="162" y="135" on="1"/>
        <pt x="169" y="136" on="0"/>
        <pt x="242" y="136" on="1"/>
        <pt x="367" y="136" on="0"/>
        <pt x="486" y="174" on="0"/>
        <pt x="512" y="190" on="1"/>
        <pt x="475" y="162" on="0"/>
        <pt x="444" y="138" on="1"/>
        <pt x="377" y="86" on="0"/>
        <pt x="296" y="40" on="0"/>
        <pt x="216" y="15" on="0"/>
        <pt x="174" y="9" on="1"/>
        <pt x="112" y="0" on="0"/>
        <pt x="5" y="0" on="1"/>
        <pt x="-34" y="0" on="1"/>
        <pt x="-33" y="1" on="0"/>
        <pt x="-32" y="3" on="0"/>
        <pt x="-5" y="33" on="0"/>
        <pt x="47" y="90" on="0"/>
        <pt x="133" y="204" on="0"/>
        <pt x="234" y="384" on="0"/>
        <pt x="321" y="571" on="0"/>
        <pt x="401" y="763" on="0"/>
        <pt x="486" y="956" on="0"/>
        <pt x="574" y="1153" on="0"/>
        <pt x="619" y="1265" on="0"/>
        <pt x="626" y="1293" on="0"/>
        <pt x="634" y="1303" on="1"/>
        <pt x="558" y="1303" on="1"/>
        <pt x="372" y="1303" on="0"/>
        <pt x="269" y="1261" on="1"/>
        <pt x="407" y="1381" on="0"/>
        <pt x="500" y="1412" on="1"/>
        <pt x="585" y="1439" on="0"/>
        <pt x="776" y="1439" on="1"/>
        <pt x="829" y="1439" on="1"/>
        <pt x="872" y="1296" on="0"/>
        <pt x="959" y="1002" on="0"/>
        <pt x="1003" y="855" on="1"/>
        <pt x="1099" y="535" on="0"/>
        <pt x="1196" y="247" on="0"/>
        <pt x="1213" y="192" on="0"/>
        <pt x="1226" y="170" on="1"/>
        <pt x="1255" y="122" on="0"/>
        <pt x="1319" y="122" on="1"/>
        <pt x="1354" y="122" on="0"/>
        <pt x="1431" y="154" on="0"/>
        <pt x="1452" y="167" on="1"/>
        <pt x="1416" y="140" on="0"/>
        <pt x="1388" y="118" on="1"/>
        <pt x="1316" y="63" on="0"/>
        <pt x="1276" y="38" on="0"/>
        <pt x="1236" y="14" on="0"/>
        <pt x="1214" y="4" on="1"/>
        <pt x="1074" y="-58" on="0"/>
        <pt x="1025" y="51" on="1"/>
        <pt x="990" y="128" on="0"/>
        <pt x="892" y="467" on="0"/>
        <pt x="854" y="586" on="1"/>
        <pt x="770" y="526" on="0"/>
        <pt x="488" y="530" on="1"/>
        <pt x="452" y="530" on="0"/>
        <pt x="426" y="530" on="1"/>
        <pt x="313" y="304" on="0"/>
        <pt x="206" y="185" on="1"/>
        <pt x="197" y="175" on="0"/>
        <pt x="188" y="164" on="1"/>
        <pt x="162" y="134" on="0"/>
      </contour>
      <contour>
        <pt x="504" y="669" on="1"/>
        <pt x="702" y="665" on="1"/>
        <pt x="764" y="665" on="0"/>
        <pt x="828" y="669" on="1"/>
        <pt x="782" y="815" on="0"/>
        <pt x="691" y="1116" on="1"/>
        <pt x="592" y="889" on="0"/>
        <pt x="490" y="666" on="1"/>
        <pt x="502" y="669" on="0"/>
      </contour>
    </TTGlyph>
    <TTGlyph name="AE" xMin="-32" yMin="0" xMax="1886" yMax="1439">
      <contour>
        <pt x="164" y="135" on="1"/>
        <pt x="171" y="136" on="0"/>
        <pt x="244" y="136" on="1"/>
        <pt x="369" y="136" on="0"/>
        <pt x="488" y="174" on="0"/>
        <pt x="514" y="190" on="1"/>
        <pt x="477" y="162" on="0"/>
        <pt x="446" y="138" on="1"/>
        <pt x="379" y="86" on="0"/>
        <pt x="298" y="40" on="0"/>
        <pt x="218" y="15" on="0"/>
        <pt x="176" y="9" on="1"/>
        <pt x="114" y="0" on="0"/>
        <pt x="7" y="0" on="1"/>
        <pt x="-32" y="0" on="1"/>
        <pt x="-31" y="1" on="0"/>
        <pt x="-30" y="3" on="0"/>
        <pt x="-3" y="33" on="0"/>
        <pt x="49" y="90" on="0"/>
        <pt x="135" y="204" on="0"/>
        <pt x="236" y="384" on="0"/>
        <pt x="323" y="571" on="0"/>
        <pt x="403" y="763" on="0"/>
        <pt x="488" y="956" on="0"/>
        <pt x="576" y="1153" on="0"/>
        <pt x="621" y="1265" on="0"/>
        <pt x="628" y="1293" on="0"/>
        <pt x="636" y="1303" on="1"/>
        <pt x="560" y="1303" on="1"/>
        <pt x="374" y="1303" on="0"/>
        <pt x="271" y="1261" on="1"/>
        <pt x="409" y="1381" on="0"/>
        <pt x="502" y="1412" on="1"/>
        <pt x="587" y="1439" on="0"/>
        <pt x="778" y="1439" on="1"/>
        <pt x="1656" y="1439" on="1"/>
        <pt x="1643" y="1438" on="0"/>
        <pt x="1536" y="1345" on="0"/>
        <pt x="1480" y="1303" on="0"/>
        <pt x="1462" y="1303" on="1"/>
        <pt x="871" y="1303" on="1"/>
        <pt x="907" y="1182" on="0"/>
        <pt x="979" y="940" on="0"/>
        <pt x="1016" y="818" on="1"/>
        <pt x="1492" y="818" on="1"/>
        <pt x="1481" y="817" on="0"/>
        <pt x="1447" y="774" on="0"/>
        <pt x="1428" y="749" on="1"/>
        <pt x="1375" y="682" on="0"/>
        <pt x="1348" y="682" on="1"/>
        <pt x="1058" y="682" on="1"/>
        <pt x="1177" y="290" on="0"/>
        <pt x="1221" y="206" on="0"/>
        <pt x="1239" y="185" on="1"/>
        <pt x="1281" y="136" on="0"/>
        <pt x="1340" y="136" on="1"/>
        <pt x="1705" y="136" on="1"/>
        <pt x="1762" y="136" on="0"/>
        <pt x="1867" y="180" on="1"/>
        <pt x="1886" y="188" on="1"/>
        <pt x="1835" y="127" on="0"/>
        <pt x="1668" y="38" on="1"/>
        <pt x="1596" y="0" on="0"/>
        <pt x="1570" y="0" on="1"/>
        <pt x="1206" y="0" on="1"/>
        <pt x="1052" y="0" on="0"/>
        <pt x="1009" y="114" on="1"/>
        <pt x="967" y="232" on="0"/>
        <pt x="894" y="467" on="0"/>
        <pt x="856" y="586" on="1"/>
        <pt x="771" y="526" on="0"/>
        <pt x="491" y="530" on="1"/>
        <pt x="455" y="530" on="0"/>
        <pt x="428" y="530" on="1"/>
        <pt x="315" y="304" on="0"/>
        <pt x="208" y="185" on="1"/>
        <pt x="199" y="175" on="0"/>
        <pt x="190" y="164" on="1"/>
        <pt x="164" y="134" on="0"/>
      </contour>
      <contour>
        <pt x="506" y="669" on="1"/>
        <pt x="704" y="665" on="1"/>
        <pt x="766" y="665" on="0"/>
        <pt x="830" y="669" on="1"/>
        <pt x="784" y="815" on="0"/>
        <pt x="693" y="1116" on="1"/>
        <pt x="594" y="889" on="0"/>
        <pt x="492" y="666" on="1"/>
        <pt x="504" y="669" on="0"/>
      </contour>
    </TTGlyph>
    <TTGlyph name="AEacute" xMin="-32" yMin="0" xMax="1886" yMax="2000">
      <component glyphName="AE" x="0" y="0" flags="0x1204"/>
      <component glyphName="acute" x="689" y="297" flags="0x1004"/>
    </TTGlyph>
    <TTGlyph name="Aacute" xMin="-34" yMin="0" xMax="1452" yMax="1955">
      <component glyphName="A" x="0" y="0" flags="0x1204"/>
      <component glyphName="acute" x="517" y="252" flags="0x1004"/>
    </TTGlyph>
    <TTGlyph name="Abreve" xMin="-34" yMin="0" xMax="1452" yMax="1895">
      <component glyphName="A" x="0" y="0" flags="0x1204"/>
      <component glyphName="breve" x="317" y="268" flags="0x1004"/>
    </TTGlyph>
    <TTGlyph name="Acircumflex" xMin="-34" yMin="0" xMax="1452" yMax="1902">
      <component glyphName="A" x="0" y="0" flags="0x1204"/>
      <component glyphName="circumflex" x="428" y="274" flags="0x1004"/>
    </TTGlyph>
    <TTGlyph name="Adieresis" xMin="-34" yMin="0" xMax="1452" yMax="1817">
      <component glyphName="A" x="0" y="0" flags="0x1204"/>
      <component glyphName="dieresis" x="308" y="295" flags="0x1004"/>
    </TTGlyph>
    <TTGlyph name="Agrave" xMin="-34" yMin="0" xMax="1452" yMax="1991">
      <component glyphName="A" x="0" y="0" flags="0x1204"/>
      <component glyphName="grave" x="412" y="285" flags="0x1004"/>
    </TTGlyph>
    <TTGlyph name="Amacron" xMin="-34" yMin="0" xMax="1452" yMax="1666">
      <component glyphName="A" x="0" y="0" flags="0x1204"/>
      <component glyphName="macron" x="243" y="203" flags="0x1004"/>
    </TTGlyph>
    <TTGlyph name="Aogonek" xMin="-34" yMin="-471" xMax="1452" yMax="1439">
      <contour>
        <pt x="162" y="135" on="1"/>
        <pt x="169" y="136" on="0"/>
        <pt x="313" y="136" on="0"/>
        <pt x="410" y="152" on="0"/>
        <pt x="475" y="171" on="0"/>
        <pt x="492" y="180" on="1"/>
        <pt x="511" y="189" on="1"/>
        <pt x="509" y="188" on="0"/>
        <pt x="489" y="172" on="0"/>
        <pt x="458" y="148" on="0"/>
        <pt x="419" y="119" on="0"/>
        <pt x="400" y="105" on="1"/>
        <pt x="328" y="50" on="0"/>
        <pt x="216" y="15" on="0"/>
        <pt x="174" y="9" on="1"/>
        <pt x="112" y="0" on="0"/>
        <pt x="5" y="0" on="1"/>
        <pt x="-34" y="0" on="1"/>
        <pt x="-29" y="7" on="0"/>
        <pt x="47" y="90" on="0"/>
        <pt x="133" y="204" on="0"/>
        <pt x="234" y="384" on="0"/>
        <pt x="321" y="571" on="0"/>
        <pt x="401" y="763" on="0"/>
        <pt x="486" y="956" on="0"/>
        <pt x="574" y="1153" on="0"/>
        <pt x="619" y="1265" on="0"/>
        <pt x="626" y="1293" on="0"/>
        <pt x="634" y="1303" on="1"/>
        <pt x="558" y="1303" on="1"/>
        <pt x="372" y="1303" on="0"/>
        <pt x="269" y="1261" on="1"/>
        <pt x="407" y="1381" on="0"/>
        <pt x="500" y="1412" on="1"/>
        <pt x="585" y="1439" on="0"/>
        <pt x="776" y="1439" on="1"/>
        <pt x="829" y="1439" on="1"/>
        <pt x="872" y="1296" on="0"/>
        <pt x="959" y="1002" on="0"/>
        <pt x="1003" y="855" on="1"/>
        <pt x="1099" y="535" on="0"/>
        <pt x="1196" y="247" on="0"/>
        <pt x="1213" y="192" on="0"/>
        <pt x="1226" y="170" on="1"/>
        <pt x="1255" y="122" on="0"/>
        <pt x="1319" y="122" on="1"/>
        <pt x="1370" y="122" on="0"/>
        <pt x="1446" y="163" on="0"/>
        <pt x="1450" y="165" on="1"/>
        <pt x="1241" y="-10" on="0"/>
        <pt x="1139" y="-17" on="1"/>
        <pt x="1091" y="-88" on="0"/>
        <pt x="1091" y="-190" on="0"/>
        <pt x="1120" y="-255" on="0"/>
        <pt x="1144" y="-280" on="1"/>
        <pt x="1197" y="-334" on="0"/>
        <pt x="1269" y="-334" on="1"/>
        <pt x="1319" y="-334" on="0"/>
        <pt x="1409" y="-277" on="1"/>
        <pt x="1431" y="-263" on="0"/>
        <pt x="1452" y="-253" on="1"/>
        <pt x="1452" y="-254" on="1"/>
        <pt x="1452" y="-274" on="0"/>
        <pt x="1258" y="-398" on="1"/>
        <pt x="1144" y="-471" on="0"/>
        <pt x="1071" y="-471" on="1"/>
        <pt x="1004" y="-471" on="0"/>
        <pt x="952" y="-415" on="1"/>
        <pt x="902" y="-361" on="0"/>
        <pt x="902" y="-292" on="1"/>
        <pt x="902" y="-135" on="0"/>
        <pt x="1081" y="-9" on="1"/>
        <pt x="1051" y="3" on="0"/>
        <pt x="1020" y="59" on="0"/>
        <pt x="966" y="212" on="0"/>
        <pt x="892" y="467" on="0"/>
        <pt x="854" y="586" on="1"/>
        <pt x="770" y="526" on="0"/>
        <pt x="488" y="530" on="1"/>
        <pt x="452" y="530" on="0"/>
        <pt x="426" y="530" on="1"/>
        <pt x="313" y="304" on="0"/>
        <pt x="206" y="185" on="1"/>
        <pt x="197" y="175" on="0"/>
        <pt x="188" y="164" on="1"/>
        <pt x="162" y="134" on="0"/>
      </contour>
      <contour>
        <pt x="504" y="669" on="1"/>
        <pt x="702" y="665" on="1"/>
        <pt x="764" y="665" on="0"/>
        <pt x="828" y="669" on="1"/>
        <pt x="782" y="815" on="0"/>
        <pt x="691" y="1116" on="1"/>
        <pt x="592" y="889" on="0"/>
        <pt x="490" y="666" on="1"/>
        <pt x="502" y="669" on="0"/>
      </contour>
      <contour>
        <pt x="511" y="189" on="1"/>
        <pt x="512" y="190" on="1"/>
      </contour>
      <contour>
        <pt x="1450" y="165" on="1"/>
        <pt x="1452" y="167" on="1"/>
      </contour>
    </TTGlyph>
    <TTGlyph name="Aring" xMin="-36" yMin="-18" xMax="1450" yMax="1853">
      <contour>
        <pt x="440" y="1387" on="1"/>
        <pt x="402" y="1436" on="0"/>
        <pt x="402" y="1539" on="0"/>
        <pt x="440" y="1622" on="0"/>
        <pt x="503" y="1700" on="0"/>
        <pt x="585" y="1770" on="0"/>
        <pt x="630" y="1796" on="1"/>
        <pt x="727" y="1853" on="0"/>
        <pt x="844" y="1853" on="0"/>
        <pt x="920" y="1821" on="0"/>
        <pt x="949" y="1793" on="1"/>
        <pt x="1012" y="1732" on="0"/>
        <pt x="1012" y="1648" on="1"/>
        <pt x="1012" y="1557" on="0"/>
        <pt x="906" y="1456" on="1"/>
        <pt x="874" y="1426" on="0"/>
        <pt x="838" y="1400" on="1"/>
        <pt x="923" y="1121" on="0"/>
        <pt x="1091" y="549" on="0"/>
        <pt x="1194" y="247" on="0"/>
        <pt x="1211" y="192" on="0"/>
        <pt x="1224" y="170" on="1"/>
        <pt x="1253" y="122" on="0"/>
        <pt x="1317" y="122" on="1"/>
        <pt x="1368" y="122" on="0"/>
        <pt x="1444" y="163" on="0"/>
        <pt x="1448" y="165" on="1"/>
        <pt x="1228" y="-18" on="0"/>
        <pt x="1125" y="-18" on="1"/>
        <pt x="1075" y="-18" on="0"/>
        <pt x="1053" y="6" on="1"/>
        <pt x="1009" y="58" on="0"/>
        <pt x="890" y="467" on="0"/>
        <pt x="852" y="586" on="1"/>
        <pt x="768" y="526" on="0"/>
        <pt x="486" y="530" on="1"/>
        <pt x="450" y="530" on="0"/>
        <pt x="424" y="530" on="1"/>
        <pt x="311" y="304" on="0"/>
        <pt x="204" y="185" on="1"/>
        <pt x="195" y="175" on="0"/>
        <pt x="186" y="164" on="1"/>
        <pt x="160" y="134" on="0"/>
        <pt x="160" y="135" on="1"/>
        <pt x="167" y="136" on="0"/>
        <pt x="311" y="136" on="0"/>
        <pt x="408" y="152" on="0"/>
        <pt x="473" y="171" on="0"/>
        <pt x="490" y="180" on="1"/>
        <pt x="509" y="189" on="1"/>
        <pt x="507" y="188" on="0"/>
        <pt x="487" y="172" on="0"/>
        <pt x="456" y="148" on="0"/>
        <pt x="417" y="119" on="0"/>
        <pt x="398" y="105" on="1"/>
        <pt x="326" y="50" on="0"/>
        <pt x="214" y="15" on="0"/>
        <pt x="172" y="9" on="1"/>
        <pt x="110" y="0" on="0"/>
        <pt x="3" y="0" on="1"/>
        <pt x="-36" y="0" on="1"/>
        <pt x="-31" y="7" on="0"/>
        <pt x="45" y="90" on="0"/>
        <pt x="131" y="204" on="0"/>
        <pt x="232" y="384" on="0"/>
        <pt x="319" y="571" on="0"/>
        <pt x="399" y="763" on="0"/>
        <pt x="484" y="956" on="0"/>
        <pt x="572" y="1153" on="0"/>
        <pt x="617" y="1265" on="0"/>
        <pt x="624" y="1293" on="0"/>
        <pt x="632" y="1303" on="1"/>
        <pt x="556" y="1303" on="1"/>
        <pt x="370" y="1303" on="0"/>
        <pt x="267" y="1261" on="1"/>
        <pt x="368" y="1350" on="0"/>
      </contour>
      <contour>
        <pt x="502" y="669" on="1"/>
        <pt x="700" y="665" on="1"/>
        <pt x="762" y="665" on="0"/>
        <pt x="826" y="669" on="1"/>
        <pt x="780" y="815" on="0"/>
        <pt x="689" y="1116" on="1"/>
        <pt x="590" y="889" on="0"/>
        <pt x="488" y="666" on="1"/>
        <pt x="500" y="669" on="0"/>
      </contour>
      <contour>
        <pt x="804" y="1440" on="1"/>
        <pt x="817" y="1475" on="0"/>
        <pt x="817" y="1547" on="0"/>
        <pt x="792" y="1614" on="0"/>
        <pt x="770" y="1642" on="1"/>
        <pt x="712" y="1718" on="0"/>
        <pt x="622" y="1718" on="1"/>
        <pt x="600" y="1718" on="0"/>
        <pt x="598" y="1692" on="1"/>
        <pt x="596" y="1679" on="0"/>
        <pt x="596" y="1611" on="0"/>
        <pt x="627" y="1533" on="0"/>
        <pt x="654" y="1504" on="1"/>
        <pt x="713" y="1442" on="0"/>
      </contour>
      <contour>
        <pt x="509" y="189" on="1"/>
        <pt x="510" y="190" on="1"/>
      </contour>
      <contour>
        <pt x="1448" y="165" on="1"/>
        <pt x="1450" y="167" on="1"/>
      </contour>
    </TTGlyph>
    <TTGlyph name="Atilde" xMin="-34" yMin="0" xMax="1452" yMax="1800">
      <component glyphName="A" x="0" y="0" flags="0x1204"/>
      <component glyphName="tilde" x="246" y="277" flags="0x1004"/>
    </TTGlyph>
    <TTGlyph name="B" xMin="30" yMin="0" xMax="1144" yMax="1440">
      <contour>
        <pt x="499" y="1439" on="1"/>
        <pt x="697" y="1440" on="1"/>
        <pt x="865" y="1440" on="0"/>
        <pt x="946" y="1391" on="1"/>
        <pt x="1052" y="1328" on="0"/>
        <pt x="1052" y="1174" on="1"/>
        <pt x="1052" y="1030" on="0"/>
        <pt x="886" y="909" on="1"/>
        <pt x="840" y="876" on="0"/>
        <pt x="797" y="846" on="1"/>
        <pt x="1038" y="819" on="0"/>
        <pt x="1116" y="648" on="1"/>
        <pt x="1144" y="588" on="0"/>
        <pt x="1144" y="451" on="0"/>
        <pt x="1093" y="341" on="0"/>
        <pt x="1008" y="240" on="0"/>
        <pt x="899" y="150" on="0"/>
        <pt x="841" y="114" on="1"/>
        <pt x="681" y="17" on="0"/>
        <pt x="560" y="7" on="1"/>
        <pt x="474" y="0" on="0"/>
        <pt x="408" y="0" on="1"/>
        <pt x="183" y="0" on="1"/>
        <pt x="227" y="62" on="0"/>
        <pt x="236" y="90" on="1"/>
        <pt x="250" y="132" on="0"/>
        <pt x="250" y="206" on="1"/>
        <pt x="250" y="1303" on="1"/>
        <pt x="30" y="1303" on="1"/>
        <pt x="189" y="1439" on="0"/>
        <pt x="224" y="1439" on="1"/>
        <pt x="362" y="1439" on="0"/>
      </contour>
      <contour>
        <pt x="444" y="845" on="1"/>
        <pt x="507" y="847" on="0"/>
        <pt x="695" y="848" on="0"/>
        <pt x="737" y="845" on="1"/>
        <pt x="837" y="876" on="0"/>
        <pt x="854" y="964" on="1"/>
        <pt x="859" y="995" on="0"/>
        <pt x="859" y="1034" on="1"/>
        <pt x="859" y="1310" on="0"/>
        <pt x="514" y="1310" on="1"/>
        <pt x="478" y="1310" on="0"/>
        <pt x="444" y="1308" on="1"/>
      </contour>
      <contour>
        <pt x="444" y="347" on="1"/>
        <pt x="444" y="232" on="0"/>
        <pt x="380" y="136" on="1"/>
        <pt x="659" y="136" on="1"/>
        <pt x="776" y="136" on="0"/>
        <pt x="888" y="201" on="0"/>
        <pt x="946" y="294" on="0"/>
        <pt x="946" y="448" on="0"/>
        <pt x="904" y="558" on="0"/>
        <pt x="832" y="634" on="0"/>
        <pt x="734" y="680" on="0"/>
        <pt x="678" y="692" on="1"/>
        <pt x="587" y="713" on="0"/>
        <pt x="444" y="713" on="1"/>
      </contour>
    </TTGlyph>
    <TTGlyph name="C" xMin="89" yMin="-43" xMax="1362" yMax="1478">
      <contour>
        <pt x="1323" y="1441" on="0"/>
        <pt x="1362" y="1423" on="0"/>
        <pt x="1362" y="1406" on="0"/>
        <pt x="1330" y="1376" on="0"/>
        <pt x="1282" y="1339" on="0"/>
        <pt x="1224" y="1297" on="0"/>
        <pt x="1198" y="1280" on="1"/>
        <pt x="1136" y="1239" on="0"/>
        <pt x="1124" y="1235" on="1"/>
        <pt x="1125" y="1239" on="0"/>
        <pt x="1139" y="1250" on="1"/>
        <pt x="1165" y="1271" on="0"/>
        <pt x="1165" y="1282" on="0"/>
        <pt x="1156" y="1289" on="0"/>
        <pt x="1145" y="1294" on="0"/>
        <pt x="1135" y="1298" on="0"/>
        <pt x="1102" y="1310" on="1"/>
        <pt x="1023" y="1341" on="0"/>
        <pt x="727" y="1341" on="0"/>
        <pt x="512" y="1272" on="0"/>
        <pt x="437" y="1202" on="1"/>
        <pt x="282" y="1057" on="0"/>
        <pt x="282" y="780" on="1"/>
        <pt x="282" y="499" on="0"/>
        <pt x="436" y="305" on="1"/>
        <pt x="602" y="97" on="0"/>
        <pt x="872" y="97" on="1"/>
        <pt x="1051" y="97" on="0"/>
        <pt x="1311" y="211" on="1"/>
        <pt x="1303" y="204" on="0"/>
        <pt x="1296" y="198" on="1"/>
        <pt x="1286" y="187" on="0"/>
        <pt x="1271" y="175" on="1"/>
        <pt x="980" y="-43" on="0"/>
        <pt x="668" y="-43" on="1"/>
        <pt x="399" y="-43" on="0"/>
        <pt x="238" y="160" on="1"/>
        <pt x="89" y="349" on="0"/>
        <pt x="89" y="629" on="1"/>
        <pt x="89" y="773" on="0"/>
        <pt x="174" y="972" on="0"/>
        <pt x="288" y="1128" on="0"/>
        <pt x="433" y="1260" on="0"/>
        <pt x="602" y="1365" on="0"/>
        <pt x="693" y="1402" on="1"/>
        <pt x="880" y="1478" on="0"/>
        <pt x="1070" y="1478" on="1"/>
        <pt x="1177" y="1478" on="0"/>
      </contour>
    </TTGlyph>
    <TTGlyph name="Cacute" xMin="89" yMin="-43" xMax="1362" yMax="1924">
      <component glyphName="C" x="0" y="0" flags="0x1204"/>
      <component glyphName="acute" x="638" y="221" flags="0x1004"/>
    </TTGlyph>
    <TTGlyph name="Ccaron" xMin="89" yMin="-43" xMax="1362" yMax="1828">
      <component glyphName="C" x="0" y="0" flags="0x1204"/>
      <component glyphName="caron" x="364" y="200" flags="0x1004"/>
    </TTGlyph>
    <TTGlyph name="Ccedilla" xMin="89" yMin="-501" xMax="1362" yMax="1478">
      <contour>
        <pt x="1323" y="1441" on="0"/>
        <pt x="1362" y="1423" on="0"/>
        <pt x="1362" y="1406" on="0"/>
        <pt x="1330" y="1376" on="0"/>
        <pt x="1282" y="1339" on="0"/>
        <pt x="1224" y="1297" on="0"/>
        <pt x="1198" y="1280" on="1"/>
        <pt x="1136" y="1239" on="0"/>
        <pt x="1124" y="1235" on="1"/>
        <pt x="1125" y="1239" on="0"/>
        <pt x="1139" y="1250" on="1"/>
        <pt x="1165" y="1271" on="0"/>
        <pt x="1165" y="1282" on="0"/>
        <pt x="1156" y="1289" on="0"/>
        <pt x="1145" y="1294" on="0"/>
        <pt x="1135" y="1298" on="0"/>
        <pt x="1102" y="1310" on="1"/>
        <pt x="1023" y="1341" on="0"/>
        <pt x="727" y="1341" on="0"/>
        <pt x="512" y="1272" on="0"/>
        <pt x="437" y="1202" on="1"/>
        <pt x="282" y="1057" on="0"/>
        <pt x="282" y="780" on="1"/>
        <pt x="282" y="499" on="0"/>
        <pt x="436" y="305" on="1"/>
        <pt x="602" y="97" on="0"/>
        <pt x="872" y="97" on="1"/>
        <pt x="1051" y="97" on="0"/>
        <pt x="1311" y="211" on="1"/>
        <pt x="1303" y="204" on="0"/>
        <pt x="1296" y="198" on="1"/>
        <pt x="1286" y="187" on="0"/>
        <pt x="1271" y="175" on="1"/>
        <pt x="1029" y="-7" on="0"/>
        <pt x="767" y="-37" on="1"/>
        <pt x="699" y="-107" on="1"/>
        <pt x="706" y="-102" on="0"/>
        <pt x="741" y="-96" on="0"/>
        <pt x="789" y="-89" on="0"/>
        <pt x="857" y="-102" on="0"/>
        <pt x="878" y="-120" on="1"/>
        <pt x="928" y="-160" on="0"/>
        <pt x="885" y="-237" on="1"/>
        <pt x="824" y="-345" on="0"/>
        <pt x="547" y="-501" on="1"/>
        <pt x="573" y="-475" on="0"/>
        <pt x="635" y="-434" on="0"/>
        <pt x="683" y="-402" on="0"/>
        <pt x="708" y="-349" on="0"/>
        <pt x="710" y="-320" on="1"/>
        <pt x="717" y="-216" on="0"/>
        <pt x="583" y="-227" on="1"/>
        <pt x="546" y="-230" on="0"/>
        <pt x="511" y="-241" on="1"/>
        <pt x="503" y="-244" on="0"/>
        <pt x="509" y="-238" on="1"/>
        <pt x="696" y="-42" on="1"/>
        <pt x="689" y="-43" on="0"/>
        <pt x="675" y="-43" on="0"/>
        <pt x="668" y="-43" on="1"/>
        <pt x="399" y="-43" on="0"/>
        <pt x="238" y="160" on="1"/>
        <pt x="89" y="349" on="0"/>
        <pt x="89" y="629" on="1"/>
        <pt x="89" y="773" on="0"/>
        <pt x="174" y="972" on="0"/>
        <pt x="288" y="1128" on="0"/>
        <pt x="433" y="1260" on="0"/>
        <pt x="602" y="1365" on="0"/>
        <pt x="693" y="1402" on="1"/>
        <pt x="880" y="1478" on="0"/>
        <pt x="1070" y="1478" on="1"/>
        <pt x="1177" y="1478" on="0"/>
      </contour>
    </TTGlyph>
    <TTGlyph name="Ccircumflex" xMin="89" yMin="-43" xMax="1362" yMax="1926">
      <component glyphName="C" x="0" y="0" flags="0x1204"/>
      <component glyphName="circumflex" x="465" y="298" flags="0x1004"/>
    </TTGlyph>
    <TTGlyph name="Cdotaccent" xMin="89" yMin="-43" xMax="1362" yMax="1761">
      <component glyphName="C" x="0" y="0" flags="0x1204"/>
      <component glyphName="dotaccent" x="522" y="239" flags="0x1004"/>
    </TTGlyph>
    <TTGlyph name="D" xMin="30" yMin="0" xMax="1458" yMax="1440">
      <contour>
        <pt x="1458" y="784" on="1"/>
        <pt x="1458" y="661" on="0"/>
        <pt x="1379" y="443" on="0"/>
        <pt x="1242" y="267" on="0"/>
        <pt x="1056" y="134" on="0"/>
        <pt x="950" y="90" on="1"/>
        <pt x="735" y="0" on="0"/>
        <pt x="496" y="0" on="1"/>
        <pt x="174" y="0" on="1"/>
        <pt x="250" y="79" on="0"/>
        <pt x="250" y="285" on="1"/>
        <pt x="250" y="1303" on="1"/>
        <pt x="30" y="1303" on="1"/>
        <pt x="46" y="1307" on="0"/>
        <pt x="98" y="1353" on="1"/>
        <pt x="197" y="1439" on="0"/>
        <pt x="224" y="1439" on="1"/>
        <pt x="668" y="1440" on="1"/>
        <pt x="1000" y="1440" on="0"/>
        <pt x="1215" y="1290" on="1"/>
        <pt x="1458" y="1121" on="0"/>
      </contour>
      <contour>
        <pt x="1230" y="413" on="1"/>
        <pt x="1265" y="509" on="0"/>
        <pt x="1265" y="770" on="0"/>
        <pt x="1212" y="968" on="0"/>
        <pt x="1112" y="1115" on="0"/>
        <pt x="968" y="1215" on="0"/>
        <pt x="877" y="1246" on="1"/>
        <pt x="705" y="1303" on="0"/>
        <pt x="444" y="1303" on="1"/>
        <pt x="444" y="339" on="1"/>
        <pt x="444" y="237" on="0"/>
        <pt x="414" y="184" on="1"/>
        <pt x="401" y="163" on="0"/>
        <pt x="380" y="133" on="1"/>
        <pt x="713" y="133" on="1"/>
        <pt x="1130" y="133" on="0"/>
      </contour>
    </TTGlyph>
    <TTGlyph name="Dcaron" xMin="30" yMin="0" xMax="1458" yMax="1891">
      <component glyphName="D" x="0" y="0" flags="0x1204"/>
      <component glyphName="caron" x="445" y="263" flags="0x1004"/>
    </TTGlyph>
    <TTGlyph name="Dcroat" xMin="31" yMin="0" xMax="1459" yMax="1440">
      <component glyphName="Eth" x="0" y="0" flags="0x1204"/>
    </TTGlyph>
    <TTGlyph name="E" xMin="56" yMin="0" xMax="1106" yMax="1439">
      <contour>
        <pt x="56" y="1303" on="1"/>
        <pt x="222" y="1439" on="0"/>
        <pt x="250" y="1439" on="1"/>
        <pt x="1076" y="1439" on="1"/>
        <pt x="1065" y="1438" on="0"/>
        <pt x="957" y="1345" on="0"/>
        <pt x="900" y="1303" on="0"/>
        <pt x="882" y="1303" on="1"/>
        <pt x="438" y="1303" on="1"/>
        <pt x="438" y="818" on="1"/>
        <pt x="923" y="818" on="1"/>
        <pt x="912" y="817" on="0"/>
        <pt x="862" y="774" on="0"/>
        <pt x="832" y="749" on="1"/>
        <pt x="753" y="682" on="0"/>
        <pt x="728" y="682" on="1"/>
        <pt x="438" y="682" on="1"/>
        <pt x="438" y="356" on="1"/>
        <pt x="438" y="245" on="0"/>
        <pt x="404" y="174" on="1"/>
        <pt x="391" y="146" on="0"/>
        <pt x="370" y="136" on="1"/>
        <pt x="926" y="136" on="1"/>
        <pt x="983" y="136" on="0"/>
        <pt x="1044" y="162" on="1"/>
        <pt x="1106" y="188" on="1"/>
        <pt x="1055" y="127" on="0"/>
        <pt x="888" y="38" on="1"/>
        <pt x="816" y="0" on="0"/>
        <pt x="791" y="0" on="1"/>
        <pt x="153" y="0" on="1"/>
        <pt x="243" y="122" on="0"/>
        <pt x="243" y="239" on="1"/>
        <pt x="243" y="682" on="1"/>
        <pt x="103" y="682" on="1"/>
        <pt x="190" y="752" on="0"/>
        <pt x="243" y="791" on="1"/>
        <pt x="243" y="1303" on="1"/>
      </contour>
    </TTGlyph>
    <TTGlyph name="Eacute" xMin="56" yMin="0" xMax="1106" yMax="1946">
      <component glyphName="E" x="0" y="0" flags="0x1204"/>
      <component glyphName="acute" x="439" y="243" flags="0x1004"/>
    </TTGlyph>
    <TTGlyph name="Ebreve" xMin="56" yMin="0" xMax="1106" yMax="1903">
      <component glyphName="E" x="0" y="0" flags="0x1204"/>
      <component glyphName="breve" x="182" y="276" flags="0x1004"/>
    </TTGlyph>
    <TTGlyph name="Ecaron" xMin="56" yMin="0" xMax="1106" yMax="1891">
      <component glyphName="E" x="0" y="0" flags="0x1204"/>
      <component glyphName="caron" x="235" y="263" flags="0x1004"/>
    </TTGlyph>
    <TTGlyph name="Ecircumflex" xMin="56" yMin="0" xMax="1106" yMax="1906">
      <component glyphName="E" x="0" y="0" flags="0x1204"/>
      <component glyphName="circumflex" x="300" y="278" flags="0x1004"/>
    </TTGlyph>
    <TTGlyph name="Edieresis" xMin="56" yMin="0" xMax="1106" yMax="1818">
      <component glyphName="E" x="0" y="0" flags="0x1204"/>
      <component glyphName="dieresis" x="180" y="296" flags="0x1004"/>
    </TTGlyph>
    <TTGlyph name="Edotaccent" xMin="56" yMin="0" xMax="1106" yMax="1790">
      <component glyphName="E" x="0" y="0" flags="0x1204"/>
      <component glyphName="dotaccent" x="393" y="268" flags="0x1004"/>
    </TTGlyph>
    <TTGlyph name="Egrave" xMin="56" yMin="0" xMax="1106" yMax="1990">
      <component glyphName="E" x="0" y="0" flags="0x1204"/>
      <component glyphName="grave" x="284" y="284" flags="0x1004"/>
    </TTGlyph>
    <TTGlyph name="Emacron" xMin="56" yMin="0" xMax="1106" yMax="1668">
      <component glyphName="E" x="0" y="0" flags="0x1204"/>
      <component glyphName="macron" x="108" y="205" flags="0x1004"/>
    </TTGlyph>
    <TTGlyph name="Eng" xMin="20" yMin="-536" xMax="1795" yMax="1439">
      <contour>
        <pt x="1398" y="343" on="1"/>
        <pt x="1421" y="609" on="0"/>
        <pt x="1421" y="1086" on="0"/>
        <pt x="1402" y="1303" on="1"/>
        <pt x="1224" y="1303" on="1"/>
        <pt x="1383" y="1439" on="0"/>
        <pt x="1418" y="1439" on="1"/>
        <pt x="1795" y="1439" on="1"/>
        <pt x="1781" y="1437" on="0"/>
        <pt x="1732" y="1393" on="1"/>
        <pt x="1636" y="1310" on="0"/>
        <pt x="1606" y="1304" on="1"/>
        <pt x="1615" y="1145" on="0"/>
        <pt x="1615" y="956" on="1"/>
        <pt x="1615" y="492" on="0"/>
        <pt x="1544" y="102" on="1"/>
        <pt x="1518" y="-36" on="0"/>
        <pt x="1386" y="-188" on="1"/>
        <pt x="1258" y="-337" on="0"/>
        <pt x="1092" y="-434" on="1"/>
        <pt x="916" y="-536" on="0"/>
        <pt x="770" y="-536" on="1"/>
        <pt x="718" y="-536" on="0"/>
        <pt x="583" y="-493" on="0"/>
        <pt x="557" y="-480" on="1"/>
        <pt x="498" y="-450" on="0"/>
        <pt x="498" y="-422" on="1"/>
        <pt x="498" y="-412" on="0"/>
        <pt x="511" y="-397" on="0"/>
        <pt x="530" y="-372" on="1"/>
        <pt x="599" y="-286" on="0"/>
        <pt x="739" y="-229" on="1"/>
        <pt x="687" y="-267" on="0"/>
        <pt x="687" y="-308" on="0"/>
        <pt x="725" y="-347" on="0"/>
        <pt x="762" y="-364" on="1"/>
        <pt x="842" y="-400" on="0"/>
        <pt x="1057" y="-400" on="0"/>
        <pt x="1192" y="-340" on="0"/>
        <pt x="1241" y="-288" on="1"/>
        <pt x="1345" y="-176" on="0"/>
        <pt x="1345" y="-12" on="1"/>
        <pt x="1345" y="48" on="0"/>
        <pt x="1037" y="408" on="1"/>
        <pt x="942" y="519" on="0"/>
        <pt x="848" y="633" on="1"/>
        <pt x="677" y="837" on="0"/>
        <pt x="458" y="1077" on="1"/>
        <pt x="463" y="890" on="0"/>
        <pt x="463" y="817" on="1"/>
        <pt x="463" y="698" on="1"/>
        <pt x="463" y="293" on="0"/>
        <pt x="413" y="205" on="1"/>
        <pt x="390" y="159" on="0"/>
        <pt x="367" y="136" on="1"/>
        <pt x="690" y="136" on="1"/>
        <pt x="524" y="0" on="0"/>
        <pt x="496" y="0" on="1"/>
        <pt x="157" y="0" on="1"/>
        <pt x="250" y="101" on="0"/>
        <pt x="260" y="278" on="1"/>
        <pt x="282" y="685" on="0"/>
        <pt x="247" y="1303" on="1"/>
        <pt x="20" y="1303" on="1"/>
        <pt x="179" y="1439" on="0"/>
        <pt x="214" y="1439" on="1"/>
        <pt x="591" y="1439" on="1"/>
        <pt x="568" y="1436" on="0"/>
        <pt x="504" y="1372" on="1"/>
        <pt x="789" y="1070" on="0"/>
        <pt x="1149" y="641" on="0"/>
        <pt x="1317" y="446" on="0"/>
      </contour>
    </TTGlyph>
    <TTGlyph name="Eogonek" xMin="56" yMin="-471" xMax="1107" yMax="1439">
      <contour>
        <pt x="56" y="1303" on="1"/>
        <pt x="222" y="1439" on="0"/>
        <pt x="250" y="1439" on="1"/>
        <pt x="1076" y="1439" on="1"/>
        <pt x="1065" y="1438" on="0"/>
        <pt x="957" y="1345" on="0"/>
        <pt x="900" y="1303" on="0"/>
        <pt x="882" y="1303" on="1"/>
        <pt x="438" y="1303" on="1"/>
        <pt x="438" y="818" on="1"/>
        <pt x="923" y="818" on="1"/>
        <pt x="912" y="817" on="0"/>
        <pt x="862" y="774" on="0"/>
        <pt x="832" y="749" on="1"/>
        <pt x="753" y="682" on="0"/>
        <pt x="728" y="682" on="1"/>
        <pt x="438" y="682" on="1"/>
        <pt x="438" y="356" on="1"/>
        <pt x="438" y="245" on="0"/>
        <pt x="404" y="174" on="1"/>
        <pt x="391" y="146" on="0"/>
        <pt x="370" y="136" on="1"/>
        <pt x="926" y="136" on="1"/>
        <pt x="983" y="136" on="0"/>
        <pt x="1044" y="162" on="1"/>
        <pt x="1106" y="188" on="1"/>
        <pt x="1061" y="133" on="0"/>
        <pt x="911" y="50" on="1"/>
        <pt x="841" y="12" on="0"/>
        <pt x="809" y="3" on="1"/>
        <pt x="746" y="-76" on="0"/>
        <pt x="746" y="-155" on="1"/>
        <pt x="746" y="-225" on="0"/>
        <pt x="800" y="-280" on="1"/>
        <pt x="852" y="-334" on="0"/>
        <pt x="924" y="-334" on="1"/>
        <pt x="974" y="-334" on="0"/>
        <pt x="1064" y="-277" on="1"/>
        <pt x="1086" y="-263" on="0"/>
        <pt x="1107" y="-253" on="1"/>
        <pt x="1107" y="-254" on="1"/>
        <pt x="1107" y="-274" on="0"/>
        <pt x="912" y="-398" on="1"/>
        <pt x="799" y="-471" on="0"/>
        <pt x="726" y="-471" on="1"/>
        <pt x="659" y="-471" on="0"/>
        <pt x="607" y="-415" on="1"/>
        <pt x="557" y="-361" on="0"/>
        <pt x="557" y="-247" on="0"/>
        <pt x="588" y="-163" on="0"/>
        <pt x="614" y="-126" on="1"/>
        <pt x="666" y="-54" on="0"/>
        <pt x="750" y="0" on="1"/>
        <pt x="153" y="0" on="1"/>
        <pt x="243" y="122" on="0"/>
        <pt x="243" y="239" on="1"/>
        <pt x="243" y="682" on="1"/>
        <pt x="103" y="682" on="1"/>
        <pt x="190" y="752" on="0"/>
        <pt x="243" y="791" on="1"/>
        <pt x="243" y="1303" on="1"/>
      </contour>
    </TTGlyph>
    <TTGlyph name="Eth" xMin="31" yMin="0" xMax="1459" yMax="1440">
      <contour>
        <pt x="1459" y="784" on="1"/>
        <pt x="1459" y="661" on="0"/>
        <pt x="1380" y="443" on="0"/>
        <pt x="1243" y="267" on="0"/>
        <pt x="1057" y="134" on="0"/>
        <pt x="950" y="90" on="1"/>
        <pt x="736" y="0" on="0"/>
        <pt x="497" y="0" on="1"/>
        <pt x="175" y="0" on="1"/>
        <pt x="251" y="79" on="0"/>
        <pt x="251" y="285" on="1"/>
        <pt x="251" y="619" on="1"/>
        <pt x="31" y="619" on="1"/>
        <pt x="43" y="620" on="0"/>
        <pt x="150" y="713" on="0"/>
        <pt x="207" y="755" on="0"/>
        <pt x="225" y="755" on="1"/>
        <pt x="251" y="755" on="1"/>
        <pt x="251" y="1303" on="1"/>
        <pt x="31" y="1303" on="1"/>
        <pt x="47" y="1307" on="0"/>
        <pt x="99" y="1353" on="1"/>
        <pt x="198" y="1439" on="0"/>
        <pt x="225" y="1439" on="1"/>
        <pt x="669" y="1440" on="1"/>
        <pt x="1001" y="1440" on="0"/>
        <pt x="1216" y="1290" on="1"/>
        <pt x="1459" y="1121" on="0"/>
      </contour>
      <contour>
        <pt x="1232" y="413" on="1"/>
        <pt x="1266" y="509" on="0"/>
        <pt x="1266" y="770" on="0"/>
        <pt x="1213" y="968" on="0"/>
        <pt x="1113" y="1115" on="0"/>
        <pt x="969" y="1215" on="0"/>
        <pt x="878" y="1246" on="1"/>
        <pt x="706" y="1303" on="0"/>
        <pt x="445" y="1303" on="1"/>
        <pt x="445" y="755" on="1"/>
        <pt x="747" y="755" on="1"/>
        <pt x="734" y="754" on="0"/>
        <pt x="681" y="707" on="1"/>
        <pt x="580" y="619" on="0"/>
        <pt x="553" y="619" on="1"/>
        <pt x="445" y="619" on="1"/>
        <pt x="445" y="339" on="1"/>
        <pt x="445" y="237" on="0"/>
        <pt x="414" y="184" on="1"/>
        <pt x="402" y="163" on="0"/>
        <pt x="381" y="133" on="1"/>
        <pt x="714" y="133" on="1"/>
        <pt x="1131" y="133" on="0"/>
      </contour>
    </TTGlyph>
    <TTGlyph name="Euro" xMin="64" yMin="-3" xMax="1584" yMax="1438">
      <contour>
        <pt x="313" y="641" on="1"/>
        <pt x="318" y="697" on="0"/>
        <pt x="326" y="737" on="1"/>
        <pt x="64" y="737" on="1"/>
        <pt x="102" y="768" on="1"/>
        <pt x="230" y="873" on="0"/>
        <pt x="258" y="873" on="1"/>
        <pt x="372" y="873" on="1"/>
        <pt x="489" y="1121" on="0"/>
        <pt x="754" y="1280" on="1"/>
        <pt x="1015" y="1438" on="0"/>
        <pt x="1293" y="1438" on="1"/>
        <pt x="1399" y="1438" on="0"/>
        <pt x="1545" y="1401" on="0"/>
        <pt x="1584" y="1383" on="0"/>
        <pt x="1584" y="1363" on="0"/>
        <pt x="1548" y="1319" on="0"/>
        <pt x="1516" y="1293" on="1"/>
        <pt x="1436" y="1226" on="0"/>
        <pt x="1347" y="1195" on="1"/>
        <pt x="1387" y="1228" on="0"/>
        <pt x="1387" y="1247" on="0"/>
        <pt x="1349" y="1264" on="0"/>
        <pt x="1289" y="1278" on="0"/>
        <pt x="1217" y="1289" on="0"/>
        <pt x="1184" y="1293" on="1"/>
        <pt x="1117" y="1301" on="0"/>
        <pt x="962" y="1301" on="0"/>
        <pt x="777" y="1257" on="0"/>
        <pt x="708" y="1207" on="1"/>
        <pt x="575" y="1110" on="0"/>
        <pt x="520" y="873" on="1"/>
        <pt x="726" y="873" on="1"/>
        <pt x="805" y="873" on="0"/>
        <pt x="888" y="932" on="1"/>
        <pt x="754" y="756" on="0"/>
        <pt x="505" y="741" on="1"/>
        <pt x="505" y="681" on="0"/>
        <pt x="513" y="641" on="1"/>
        <pt x="726" y="640" on="1"/>
        <pt x="803" y="640" on="0"/>
        <pt x="888" y="700" on="1"/>
        <pt x="823" y="606" on="0"/>
        <pt x="701" y="550" on="1"/>
        <pt x="637" y="520" on="0"/>
        <pt x="547" y="514" on="1"/>
        <pt x="685" y="137" on="0"/>
        <pt x="1094" y="137" on="1"/>
        <pt x="1254" y="137" on="0"/>
        <pt x="1411" y="193" on="1"/>
        <pt x="1480" y="218" on="0"/>
        <pt x="1535" y="250" on="1"/>
        <pt x="1340" y="57" on="0"/>
        <pt x="1034" y="8" on="1"/>
        <pt x="966" y="-3" on="0"/>
        <pt x="778" y="-3" on="0"/>
        <pt x="585" y="72" on="0"/>
        <pt x="510" y="140" on="1"/>
        <pt x="353" y="281" on="0"/>
        <pt x="319" y="505" on="1"/>
        <pt x="64" y="505" on="1"/>
        <pt x="230" y="641" on="0"/>
        <pt x="258" y="641" on="1"/>
      </contour>
    </TTGlyph>
    <TTGlyph name="F" xMin="58" yMin="0" xMax="1125" yMax="1439">
      <contour>
        <pt x="58" y="1303" on="1"/>
        <pt x="221" y="1439" on="0"/>
        <pt x="252" y="1439" on="1"/>
        <pt x="1125" y="1439" on="1"/>
        <pt x="1111" y="1437" on="0"/>
        <pt x="1054" y="1387" on="0"/>
        <pt x="1014" y="1352" on="0"/>
        <pt x="995" y="1338" on="1"/>
        <pt x="950" y="1303" on="0"/>
        <pt x="930" y="1303" on="1"/>
        <pt x="440" y="1303" on="1"/>
        <pt x="440" y="759" on="1"/>
        <pt x="925" y="759" on="1"/>
        <pt x="912" y="757" on="0"/>
        <pt x="854" y="706" on="0"/>
        <pt x="814" y="672" on="0"/>
        <pt x="795" y="657" on="1"/>
        <pt x="751" y="622" on="0"/>
        <pt x="730" y="622" on="1"/>
        <pt x="440" y="622" on="1"/>
        <pt x="440" y="388" on="1"/>
        <pt x="440" y="208" on="0"/>
        <pt x="368" y="136" on="1"/>
        <pt x="689" y="136" on="1"/>
        <pt x="675" y="134" on="0"/>
        <pt x="618" y="84" on="0"/>
        <pt x="578" y="49" on="0"/>
        <pt x="559" y="34" on="1"/>
        <pt x="514" y="0" on="0"/>
        <pt x="494" y="0" on="1"/>
        <pt x="155" y="0" on="1"/>
        <pt x="245" y="140" on="0"/>
        <pt x="245" y="239" on="1"/>
        <pt x="245" y="622" on="1"/>
        <pt x="105" y="622" on="1"/>
        <pt x="175" y="678" on="0"/>
        <pt x="245" y="732" on="1"/>
        <pt x="245" y="1303" on="1"/>
      </contour>
    </TTGlyph>
    <TTGlyph name="G" xMin="91" yMin="-38" xMax="1599" yMax="1497">
      <contour>
        <pt x="1599" y="759" on="1"/>
        <pt x="1590" y="756" on="0"/>
        <pt x="1504" y="690" on="0"/>
        <pt x="1475" y="664" on="1"/>
        <pt x="1475" y="317" on="1"/>
        <pt x="1359" y="169" on="0"/>
        <pt x="1149" y="66" on="1"/>
        <pt x="937" y="-38" on="0"/>
        <pt x="597" y="-38" on="0"/>
        <pt x="352" y="63" on="0"/>
        <pt x="266" y="152" on="1"/>
        <pt x="91" y="336" on="0"/>
        <pt x="91" y="637" on="1"/>
        <pt x="91" y="859" on="0"/>
        <pt x="173" y="998" on="1"/>
        <pt x="292" y="1210" on="0"/>
        <pt x="540" y="1354" on="1"/>
        <pt x="787" y="1497" on="0"/>
        <pt x="1033" y="1497" on="1"/>
        <pt x="1202" y="1497" on="0"/>
        <pt x="1374" y="1445" on="1"/>
        <pt x="1442" y="1425" on="0"/>
        <pt x="1487" y="1396" on="1"/>
        <pt x="1497" y="1389" on="0"/>
        <pt x="1497" y="1373" on="0"/>
        <pt x="1465" y="1344" on="0"/>
        <pt x="1416" y="1307" on="0"/>
        <pt x="1358" y="1267" on="0"/>
        <pt x="1332" y="1250" on="1"/>
        <pt x="1279" y="1214" on="0"/>
        <pt x="1262" y="1207" on="1"/>
        <pt x="1263" y="1210" on="0"/>
        <pt x="1275" y="1220" on="0"/>
        <pt x="1282" y="1226" on="1"/>
        <pt x="1299" y="1242" on="0"/>
        <pt x="1299" y="1252" on="1"/>
        <pt x="1299" y="1291" on="0"/>
        <pt x="1162" y="1325" on="1"/>
        <pt x="1016" y="1362" on="0"/>
        <pt x="686" y="1362" on="0"/>
        <pt x="480" y="1282" on="0"/>
        <pt x="414" y="1206" on="1"/>
        <pt x="287" y="1058" on="0"/>
        <pt x="287" y="766" on="1"/>
        <pt x="287" y="483" on="0"/>
        <pt x="455" y="296" on="1"/>
        <pt x="630" y="100" on="0"/>
        <pt x="909" y="100" on="1"/>
        <pt x="1077" y="100" on="0"/>
        <pt x="1206" y="144" on="1"/>
        <pt x="1254" y="161" on="0"/>
        <pt x="1283" y="187" on="1"/>
        <pt x="1283" y="622" on="1"/>
        <pt x="996" y="622" on="1"/>
        <pt x="1034" y="654" on="1"/>
        <pt x="1163" y="759" on="0"/>
        <pt x="1190" y="759" on="1"/>
      </contour>
    </TTGlyph>
    <TTGlyph name="Gbreve" xMin="91" yMin="-38" xMax="1599" yMax="1920">
      <component glyphName="G" x="0" y="0" flags="0x1204"/>
      <component glyphName="breve" x="434" y="293" flags="0x1004"/>
    </TTGlyph>
    <TTGlyph name="Gcircumflex" xMin="91" yMin="-38" xMax="1599" yMax="1938">
      <component glyphName="G" x="0" y="0" flags="0x1204"/>
      <component glyphName="circumflex" x="487" y="310" flags="0x1004"/>
    </TTGlyph>
    <TTGlyph name="Gcommaaccent" xMin="91" yMin="-547" xMax="1599" yMax="1497">
      <component glyphName="G" x="0" y="0" flags="0x1204"/>
      <component glyphName="uni0326" x="624" y="0" flags="0x1004"/>
    </TTGlyph>
    <TTGlyph name="Gdotaccent" xMin="91" yMin="-38" xMax="1599" yMax="1819">
      <component glyphName="G" x="0" y="0" flags="0x1204"/>
      <component glyphName="dotaccent" x="645" y="297" flags="0x1004"/>
    </TTGlyph>
    <TTGlyph name="H" xMin="59" yMin="0" xMax="1629" yMax="1439">
      <contour>
        <pt x="1629" y="136" on="1"/>
        <pt x="1617" y="135" on="0"/>
        <pt x="1564" y="88" on="1"/>
        <pt x="1461" y="0" on="0"/>
        <pt x="1434" y="0" on="1"/>
        <pt x="1096" y="0" on="1"/>
        <pt x="1149" y="59" on="0"/>
        <pt x="1163" y="94" on="1"/>
        <pt x="1185" y="150" on="0"/>
        <pt x="1185" y="239" on="1"/>
        <pt x="1185" y="682" on="1"/>
        <pt x="441" y="682" on="1"/>
        <pt x="441" y="388" on="1"/>
        <pt x="441" y="293" on="0"/>
        <pt x="432" y="259" on="1"/>
        <pt x="418" y="207" on="0"/>
        <pt x="369" y="136" on="1"/>
        <pt x="690" y="136" on="1"/>
        <pt x="676" y="134" on="0"/>
        <pt x="580" y="50" on="0"/>
        <pt x="560" y="35" on="1"/>
        <pt x="515" y="0" on="0"/>
        <pt x="495" y="0" on="1"/>
        <pt x="156" y="0" on="1"/>
        <pt x="230" y="58" on="0"/>
        <pt x="242" y="159" on="1"/>
        <pt x="246" y="194" on="0"/>
        <pt x="246" y="239" on="1"/>
        <pt x="246" y="1303" on="1"/>
        <pt x="59" y="1303" on="1"/>
        <pt x="98" y="1334" on="1"/>
        <pt x="225" y="1439" on="0"/>
        <pt x="253" y="1439" on="1"/>
        <pt x="690" y="1439" on="1"/>
        <pt x="678" y="1439" on="0"/>
        <pt x="580" y="1353" on="0"/>
        <pt x="560" y="1338" on="1"/>
        <pt x="515" y="1303" on="0"/>
        <pt x="495" y="1303" on="1"/>
        <pt x="441" y="1303" on="1"/>
        <pt x="441" y="818" on="1"/>
        <pt x="1185" y="818" on="1"/>
        <pt x="1185" y="1303" on="1"/>
        <pt x="998" y="1303" on="1"/>
        <pt x="1036" y="1334" on="1"/>
        <pt x="1164" y="1439" on="0"/>
        <pt x="1193" y="1439" on="1"/>
        <pt x="1629" y="1439" on="1"/>
        <pt x="1617" y="1439" on="0"/>
        <pt x="1519" y="1353" on="0"/>
        <pt x="1500" y="1338" on="1"/>
        <pt x="1454" y="1303" on="0"/>
        <pt x="1434" y="1303" on="1"/>
        <pt x="1380" y="1303" on="1"/>
        <pt x="1380" y="388" on="1"/>
        <pt x="1380" y="293" on="0"/>
        <pt x="1371" y="259" on="1"/>
        <pt x="1357" y="205" on="0"/>
        <pt x="1309" y="136" on="1"/>
      </contour>
    </TTGlyph>
    <TTGlyph name="Hbar" xMin="37" yMin="0" xMax="1629" yMax="1439">
      <contour>
        <pt x="1629" y="136" on="1"/>
        <pt x="1617" y="135" on="0"/>
        <pt x="1564" y="88" on="1"/>
        <pt x="1461" y="0" on="0"/>
        <pt x="1434" y="0" on="1"/>
        <pt x="1096" y="0" on="1"/>
        <pt x="1149" y="59" on="0"/>
        <pt x="1163" y="94" on="1"/>
        <pt x="1185" y="150" on="0"/>
        <pt x="1185" y="239" on="1"/>
        <pt x="1185" y="682" on="1"/>
        <pt x="441" y="682" on="1"/>
        <pt x="441" y="388" on="1"/>
        <pt x="441" y="293" on="0"/>
        <pt x="432" y="259" on="1"/>
        <pt x="418" y="207" on="0"/>
        <pt x="369" y="136" on="1"/>
        <pt x="690" y="136" on="1"/>
        <pt x="676" y="134" on="0"/>
        <pt x="580" y="50" on="0"/>
        <pt x="560" y="35" on="1"/>
        <pt x="515" y="0" on="0"/>
        <pt x="495" y="0" on="1"/>
        <pt x="156" y="0" on="1"/>
        <pt x="230" y="58" on="0"/>
        <pt x="242" y="159" on="1"/>
        <pt x="246" y="194" on="0"/>
        <pt x="246" y="239" on="1"/>
        <pt x="246" y="935" on="1"/>
        <pt x="37" y="935" on="1"/>
        <pt x="49" y="936" on="0"/>
        <pt x="156" y="1029" on="0"/>
        <pt x="213" y="1071" on="0"/>
        <pt x="231" y="1071" on="1"/>
        <pt x="246" y="1071" on="1"/>
        <pt x="246" y="1303" on="1"/>
        <pt x="59" y="1303" on="1"/>
        <pt x="98" y="1334" on="1"/>
        <pt x="225" y="1439" on="0"/>
        <pt x="253" y="1439" on="1"/>
        <pt x="690" y="1439" on="1"/>
        <pt x="678" y="1439" on="0"/>
        <pt x="580" y="1353" on="0"/>
        <pt x="560" y="1338" on="1"/>
        <pt x="515" y="1303" on="0"/>
        <pt x="495" y="1303" on="1"/>
        <pt x="441" y="1303" on="1"/>
        <pt x="441" y="1071" on="1"/>
        <pt x="1185" y="1071" on="1"/>
        <pt x="1185" y="1303" on="1"/>
        <pt x="998" y="1303" on="1"/>
        <pt x="1036" y="1334" on="1"/>
        <pt x="1164" y="1439" on="0"/>
        <pt x="1193" y="1439" on="1"/>
        <pt x="1629" y="1439" on="1"/>
        <pt x="1617" y="1439" on="0"/>
        <pt x="1519" y="1353" on="0"/>
        <pt x="1500" y="1338" on="1"/>
        <pt x="1454" y="1303" on="0"/>
        <pt x="1434" y="1303" on="1"/>
        <pt x="1380" y="1303" on="1"/>
        <pt x="1380" y="1071" on="1"/>
        <pt x="1592" y="1071" on="1"/>
        <pt x="1580" y="1070" on="0"/>
        <pt x="1473" y="977" on="0"/>
        <pt x="1416" y="935" on="0"/>
        <pt x="1398" y="935" on="1"/>
        <pt x="1380" y="935" on="1"/>
        <pt x="1380" y="388" on="1"/>
        <pt x="1380" y="293" on="0"/>
        <pt x="1371" y="259" on="1"/>
        <pt x="1357" y="205" on="0"/>
        <pt x="1309" y="136" on="1"/>
      </contour>
      <contour>
        <pt x="1185" y="818" on="1"/>
        <pt x="1185" y="935" on="1"/>
        <pt x="441" y="935" on="1"/>
        <pt x="441" y="818" on="1"/>
      </contour>
    </TTGlyph>
    <TTGlyph name="Hcircumflex" xMin="59" yMin="0" xMax="1629" yMax="1887">
      <component glyphName="H" x="0" y="0" flags="0x1204"/>
      <component glyphName="circumflex" x="501" y="259" flags="0x1004"/>
    </TTGlyph>
    <TTGlyph name="I" xMin="59" yMin="0" xMax="709" yMax="1439">
      <contour>
        <pt x="59" y="1303" on="1"/>
        <pt x="225" y="1439" on="0"/>
        <pt x="253" y="1439" on="1"/>
        <pt x="709" y="1439" on="1"/>
        <pt x="696" y="1437" on="0"/>
        <pt x="600" y="1353" on="0"/>
        <pt x="580" y="1338" on="1"/>
        <pt x="535" y="1303" on="0"/>
        <pt x="515" y="1303" on="1"/>
        <pt x="441" y="1303" on="1"/>
        <pt x="441" y="388" on="1"/>
        <pt x="441" y="215" on="0"/>
        <pt x="369" y="136" on="1"/>
        <pt x="690" y="136" on="1"/>
        <pt x="676" y="134" on="0"/>
        <pt x="580" y="50" on="0"/>
        <pt x="560" y="35" on="1"/>
        <pt x="515" y="0" on="0"/>
        <pt x="495" y="0" on="1"/>
        <pt x="156" y="0" on="1"/>
        <pt x="209" y="53" on="0"/>
        <pt x="223" y="90" on="1"/>
        <pt x="246" y="149" on="0"/>
        <pt x="246" y="239" on="1"/>
        <pt x="246" y="1303" on="1"/>
      </contour>
    </TTGlyph>
    <TTGlyph name="IJ" xMin="59" yMin="-543" xMax="1440" yMax="1439">
      <component glyphName="I" x="0" y="0" flags="0x1004"/>
      <component glyphName="J" x="733" y="0" flags="0x1004"/>
    </TTGlyph>
    <TTGlyph name="Iacute" xMin="60" yMin="0" xMax="735" yMax="1990">
      <component glyphName="I" x="1" y="0" flags="0x1004"/>
      <component glyphName="acute" x="252" y="287" flags="0x1004"/>
    </TTGlyph>
    <TTGlyph name="Ibreve" xMin="-16" yMin="0" xMax="752" yMax="1907">
      <component glyphName="I" x="0" y="0" flags="0x1204"/>
      <component glyphName="breve" x="-16" y="280" flags="0x1004"/>
    </TTGlyph>
    <TTGlyph name="Icircumflex" xMin="54" yMin="0" xMax="716" yMax="1915">
      <component glyphName="I" x="1" y="0" flags="0x1004"/>
      <component glyphName="circumflex" x="54" y="287" flags="0x1004"/>
    </TTGlyph>
    <TTGlyph name="Idieresis" xMin="-15" yMin="0" xMax="787" yMax="1818">
      <component glyphName="I" x="1" y="0" flags="0x1004"/>
      <component glyphName="dieresis" x="-15" y="296" flags="0x1004"/>
    </TTGlyph>
    <TTGlyph name="Idotaccent" xMin="59" yMin="0" xMax="709" yMax="1811">
      <component glyphName="I" x="0" y="0" flags="0x1204"/>
      <component glyphName="dotaccent" x="193" y="289" flags="0x1004"/>
    </TTGlyph>
    <TTGlyph name="Igrave" xMin="60" yMin="0" xMax="710" yMax="1992">
      <component glyphName="I" x="1" y="0" flags="0x1004"/>
      <component glyphName="grave" x="78" y="286" flags="0x1004"/>
    </TTGlyph>
    <TTGlyph name="Imacron" xMin="-90" yMin="0" xMax="826" yMax="1680">
      <component glyphName="I" x="0" y="0" flags="0x1204"/>
      <component glyphName="macron" x="-90" y="217" flags="0x1004"/>
    </TTGlyph>
    <TTGlyph name="Iogonek" xMin="59" yMin="-471" xMax="709" yMax="1439">
      <contour>
        <pt x="409" y="0" on="1"/>
        <pt x="348" y="-80" on="0"/>
        <pt x="348" y="-155" on="1"/>
        <pt x="348" y="-225" on="0"/>
        <pt x="402" y="-280" on="1"/>
        <pt x="454" y="-334" on="0"/>
        <pt x="526" y="-334" on="1"/>
        <pt x="576" y="-334" on="0"/>
        <pt x="666" y="-277" on="1"/>
        <pt x="688" y="-263" on="0"/>
        <pt x="709" y="-253" on="1"/>
        <pt x="709" y="-254" on="1"/>
        <pt x="709" y="-274" on="0"/>
        <pt x="514" y="-398" on="1"/>
        <pt x="401" y="-471" on="0"/>
        <pt x="328" y="-471" on="1"/>
        <pt x="261" y="-471" on="0"/>
        <pt x="209" y="-415" on="1"/>
        <pt x="159" y="-361" on="0"/>
        <pt x="159" y="-247" on="0"/>
        <pt x="190" y="-163" on="0"/>
        <pt x="216" y="-126" on="1"/>
        <pt x="268" y="-54" on="0"/>
        <pt x="352" y="0" on="1"/>
        <pt x="156" y="0" on="1"/>
        <pt x="209" y="53" on="0"/>
        <pt x="223" y="90" on="1"/>
        <pt x="246" y="149" on="0"/>
        <pt x="246" y="239" on="1"/>
        <pt x="246" y="1303" on="1"/>
        <pt x="59" y="1303" on="1"/>
        <pt x="225" y="1439" on="0"/>
        <pt x="253" y="1439" on="1"/>
        <pt x="709" y="1439" on="1"/>
        <pt x="696" y="1437" on="0"/>
        <pt x="600" y="1353" on="0"/>
        <pt x="580" y="1338" on="1"/>
        <pt x="535" y="1303" on="0"/>
        <pt x="515" y="1303" on="1"/>
        <pt x="441" y="1303" on="1"/>
        <pt x="441" y="388" on="1"/>
        <pt x="441" y="215" on="0"/>
        <pt x="369" y="136" on="1"/>
        <pt x="690" y="136" on="1"/>
        <pt x="676" y="134" on="0"/>
        <pt x="580" y="50" on="0"/>
        <pt x="560" y="35" on="1"/>
        <pt x="515" y="0" on="0"/>
        <pt x="495" y="0" on="1"/>
      </contour>
    </TTGlyph>
    <TTGlyph name="Itilde" xMin="-95" yMin="0" xMax="830" yMax="1791">
      <component glyphName="I" x="0" y="0" flags="0x1204"/>
      <component glyphName="tilde" x="-95" y="268" flags="0x1004"/>
    </TTGlyph>
    <TTGlyph name="J" xMin="-466" yMin="-543" xMax="707" yMax="1439">
      <contour>
        <pt x="707" y="1439" on="1"/>
        <pt x="689" y="1434" on="0"/>
        <pt x="585" y="1343" on="0"/>
        <pt x="531" y="1303" on="0"/>
        <pt x="513" y="1303" on="1"/>
        <pt x="438" y="1303" on="1"/>
        <pt x="438" y="223" on="1"/>
        <pt x="438" y="48" on="0"/>
        <pt x="354" y="-127" on="1"/>
        <pt x="268" y="-308" on="0"/>
        <pt x="128" y="-420" on="1"/>
        <pt x="-27" y="-543" on="0"/>
        <pt x="-204" y="-543" on="1"/>
        <pt x="-255" y="-543" on="0"/>
        <pt x="-385" y="-494" on="0"/>
        <pt x="-410" y="-480" on="1"/>
        <pt x="-466" y="-449" on="0"/>
        <pt x="-466" y="-421" on="1"/>
        <pt x="-466" y="-392" on="0"/>
        <pt x="-304" y="-280" on="1"/>
        <pt x="-253" y="-243" on="0"/>
        <pt x="-224" y="-229" on="1"/>
        <pt x="-276" y="-264" on="0"/>
        <pt x="-276" y="-289" on="1"/>
        <pt x="-276" y="-301" on="0"/>
        <pt x="-179" y="-359" on="0"/>
        <pt x="-144" y="-374" on="1"/>
        <pt x="-63" y="-408" on="0"/>
        <pt x="56" y="-408" on="0"/>
        <pt x="138" y="-358" on="0"/>
        <pt x="193" y="-276" on="0"/>
        <pt x="224" y="-172" on="0"/>
        <pt x="232" y="-117" on="1"/>
        <pt x="244" y="-34" on="0"/>
        <pt x="244" y="86" on="1"/>
        <pt x="244" y="1303" on="1"/>
        <pt x="57" y="1303" on="1"/>
        <pt x="69" y="1312" on="0"/>
        <pt x="124" y="1357" on="0"/>
        <pt x="154" y="1380" on="1"/>
        <pt x="230" y="1439" on="0"/>
        <pt x="251" y="1439" on="1"/>
      </contour>
    </TTGlyph>
    <TTGlyph name="Jcircumflex" xMin="-466" yMin="-543" xMax="707" yMax="1890">
      <component glyphName="J" x="0" y="0" flags="0x1204"/>
      <component glyphName="circumflex" x="24" y="262" flags="0x1004"/>
    </TTGlyph>
    <TTGlyph name="K" xMin="61" yMin="0" xMax="1717" yMax="1439">
      <contour>
        <pt x="1117" y="1303" on="1"/>
        <pt x="992" y="1169" on="0"/>
        <pt x="670" y="869" on="1"/>
        <pt x="1259" y="289" on="0"/>
        <pt x="1382" y="202" on="1"/>
        <pt x="1477" y="134" on="0"/>
        <pt x="1566" y="134" on="1"/>
        <pt x="1612" y="134" on="0"/>
        <pt x="1717" y="181" on="1"/>
        <pt x="1661" y="128" on="0"/>
        <pt x="1573" y="70" on="0"/>
        <pt x="1513" y="37" on="0"/>
        <pt x="1481" y="24" on="1"/>
        <pt x="1358" y="-26" on="0"/>
        <pt x="1272" y="11" on="1"/>
        <pt x="1207" y="38" on="0"/>
        <pt x="1101" y="133" on="0"/>
        <pt x="1033" y="193" on="0"/>
        <pt x="939" y="278" on="0"/>
        <pt x="888" y="324" on="1"/>
        <pt x="793" y="413" on="0"/>
        <pt x="578" y="617" on="0"/>
        <pt x="462" y="727" on="1"/>
        <pt x="945" y="1190" on="0"/>
        <pt x="1044" y="1303" on="1"/>
        <pt x="869" y="1303" on="1"/>
        <pt x="938" y="1365" on="0"/>
        <pt x="1051" y="1439" on="0"/>
        <pt x="1063" y="1439" on="1"/>
        <pt x="1460" y="1439" on="1"/>
        <pt x="1441" y="1435" on="0"/>
        <pt x="1348" y="1351" on="0"/>
        <pt x="1330" y="1336" on="1"/>
        <pt x="1287" y="1303" on="0"/>
        <pt x="1265" y="1303" on="1"/>
      </contour>
      <contour>
        <pt x="158" y="0" on="1"/>
        <pt x="248" y="93" on="0"/>
        <pt x="248" y="348" on="1"/>
        <pt x="248" y="1303" on="1"/>
        <pt x="61" y="1303" on="1"/>
        <pt x="100" y="1334" on="1"/>
        <pt x="227" y="1439" on="0"/>
        <pt x="255" y="1439" on="1"/>
        <pt x="711" y="1439" on="1"/>
        <pt x="700" y="1438" on="0"/>
        <pt x="592" y="1345" on="0"/>
        <pt x="535" y="1303" on="0"/>
        <pt x="517" y="1303" on="1"/>
        <pt x="443" y="1303" on="1"/>
        <pt x="443" y="388" on="1"/>
        <pt x="443" y="293" on="0"/>
        <pt x="434" y="259" on="1"/>
        <pt x="420" y="207" on="0"/>
        <pt x="371" y="136" on="1"/>
        <pt x="692" y="136" on="1"/>
        <pt x="678" y="134" on="0"/>
        <pt x="582" y="50" on="0"/>
        <pt x="562" y="35" on="1"/>
        <pt x="517" y="0" on="0"/>
        <pt x="497" y="0" on="1"/>
      </contour>
    </TTGlyph>
    <TTGlyph name="Kcommaaccent" xMin="61" yMin="-547" xMax="1717" yMax="1439">
      <component glyphName="K" x="0" y="0" flags="0x1204"/>
      <component glyphName="uni0326" x="621" y="0" flags="0x1004"/>
    </TTGlyph>
    <TTGlyph name="L" xMin="62" yMin="0" xMax="1113" yMax="1439">
      <contour>
        <pt x="444" y="307" on="1"/>
        <pt x="444" y="196" on="0"/>
        <pt x="365" y="136" on="1"/>
        <pt x="929" y="136" on="1"/>
        <pt x="1010" y="136" on="0"/>
        <pt x="1093" y="174" on="0"/>
        <pt x="1113" y="190" on="1"/>
        <pt x="994" y="43" on="0"/>
        <pt x="858" y="8" on="1"/>
        <pt x="828" y="0" on="0"/>
        <pt x="797" y="0" on="1"/>
        <pt x="149" y="0" on="1"/>
        <pt x="205" y="54" on="0"/>
        <pt x="221" y="90" on="1"/>
        <pt x="249" y="154" on="0"/>
        <pt x="249" y="239" on="1"/>
        <pt x="249" y="1303" on="1"/>
        <pt x="62" y="1303" on="1"/>
        <pt x="100" y="1334" on="1"/>
        <pt x="228" y="1439" on="0"/>
        <pt x="256" y="1439" on="1"/>
        <pt x="712" y="1439" on="1"/>
        <pt x="701" y="1439" on="0"/>
        <pt x="603" y="1353" on="0"/>
        <pt x="584" y="1338" on="1"/>
        <pt x="538" y="1303" on="0"/>
        <pt x="518" y="1303" on="1"/>
        <pt x="444" y="1303" on="1"/>
      </contour>
    </TTGlyph>
    <TTGlyph name="Lacute" xMin="62" yMin="0" xMax="1113" yMax="1962">
      <component glyphName="L" x="0" y="0" flags="0x1204"/>
      <component glyphName="acute" x="318" y="259" flags="0x1004"/>
    </TTGlyph>
    <TTGlyph name="Lcaron" xMin="62" yMin="0" xMax="1113" yMax="1708">
      <component glyphName="L" x="0" y="0" flags="0x1204"/>
      <component glyphName="uni0315" x="727" y="37" flags="0x1004"/>
    </TTGlyph>
    <TTGlyph name="Lcommaaccent" xMin="62" yMin="-547" xMax="1113" yMax="1439">
      <component glyphName="L" x="0" y="0" flags="0x1204"/>
      <component glyphName="uni0326" x="366" y="0" flags="0x1004"/>
    </TTGlyph>
    <TTGlyph name="Ldot" xMin="62" yMin="0" xMax="1113" yMax="1439">
      <component glyphName="L" x="0" y="0" flags="0x1004"/>
      <component glyphName="periodcentered" x="714" y="0" flags="0x1004"/>
    </TTGlyph>
    <TTGlyph name="Lslash" xMin="59" yMin="0" xMax="1110" yMax="1439">
      <contour>
        <pt x="441" y="307" on="1"/>
        <pt x="441" y="196" on="0"/>
        <pt x="362" y="136" on="1"/>
        <pt x="926" y="136" on="1"/>
        <pt x="1007" y="136" on="0"/>
        <pt x="1090" y="174" on="0"/>
        <pt x="1110" y="190" on="1"/>
        <pt x="991" y="43" on="0"/>
        <pt x="856" y="8" on="1"/>
        <pt x="825" y="0" on="0"/>
        <pt x="794" y="0" on="1"/>
        <pt x="146" y="0" on="1"/>
        <pt x="202" y="54" on="0"/>
        <pt x="218" y="90" on="1"/>
        <pt x="246" y="154" on="0"/>
        <pt x="246" y="239" on="1"/>
        <pt x="246" y="555" on="1"/>
        <pt x="166" y="523" on="0"/>
        <pt x="103" y="504" on="1"/>
        <pt x="93" y="527" on="1"/>
        <pt x="144" y="560" on="0"/>
        <pt x="246" y="624" on="1"/>
        <pt x="246" y="1303" on="1"/>
        <pt x="59" y="1303" on="1"/>
        <pt x="98" y="1334" on="1"/>
        <pt x="225" y="1439" on="0"/>
        <pt x="253" y="1439" on="1"/>
        <pt x="709" y="1439" on="1"/>
        <pt x="698" y="1439" on="0"/>
        <pt x="600" y="1353" on="0"/>
        <pt x="580" y="1338" on="1"/>
        <pt x="535" y="1303" on="0"/>
        <pt x="515" y="1303" on="1"/>
        <pt x="441" y="1303" on="1"/>
        <pt x="441" y="743" on="1"/>
        <pt x="516" y="792" on="0"/>
        <pt x="606" y="872" on="1"/>
        <pt x="668" y="861" on="0"/>
        <pt x="784" y="881" on="0"/>
        <pt x="820" y="901" on="1"/>
        <pt x="656" y="761" on="0"/>
        <pt x="441" y="646" on="1"/>
      </contour>
    </TTGlyph>
    <TTGlyph name="M" xMin="59" yMin="0" xMax="2214" yMax="1469">
      <contour>
        <pt x="1969" y="366" on="1"/>
        <pt x="1969" y="217" on="0"/>
        <pt x="1918" y="136" on="1"/>
        <pt x="2214" y="136" on="1"/>
        <pt x="2195" y="131" on="0"/>
        <pt x="2145" y="87" on="0"/>
        <pt x="2118" y="63" on="1"/>
        <pt x="2047" y="0" on="0"/>
        <pt x="2019" y="0" on="1"/>
        <pt x="1722" y="0" on="1"/>
        <pt x="1772" y="74" on="0"/>
        <pt x="1772" y="330" on="0"/>
        <pt x="1759" y="567" on="0"/>
        <pt x="1751" y="737" on="0"/>
        <pt x="1746" y="849" on="0"/>
        <pt x="1744" y="906" on="1"/>
        <pt x="1736" y="1073" on="0"/>
        <pt x="1733" y="1127" on="1"/>
        <pt x="1644" y="972" on="0"/>
        <pt x="1459" y="639" on="0"/>
        <pt x="1327" y="409" on="0"/>
        <pt x="1250" y="259" on="0"/>
        <pt x="1207" y="185" on="1"/>
        <pt x="1198" y="170" on="0"/>
        <pt x="1026" y="58" on="0"/>
        <pt x="1013" y="49" on="1"/>
        <pt x="958" y="217" on="0"/>
        <pt x="792" y="507" on="0"/>
        <pt x="684" y="681" on="0"/>
        <pt x="632" y="768" on="1"/>
        <pt x="473" y="1033" on="1"/>
        <pt x="430" y="516" on="0"/>
        <pt x="385" y="285" on="0"/>
        <pt x="344" y="168" on="0"/>
        <pt x="313" y="136" on="1"/>
        <pt x="633" y="136" on="1"/>
        <pt x="467" y="0" on="0"/>
        <pt x="439" y="0" on="1"/>
        <pt x="110" y="0" on="1"/>
        <pt x="168" y="58" on="0"/>
        <pt x="207" y="254" on="1"/>
        <pt x="251" y="472" on="0"/>
        <pt x="310" y="1303" on="1"/>
        <pt x="59" y="1303" on="1"/>
        <pt x="132" y="1376" on="0"/>
        <pt x="232" y="1431" on="1"/>
        <pt x="246" y="1439" on="0"/>
        <pt x="253" y="1439" on="1"/>
        <pt x="505" y="1439" on="1"/>
        <pt x="589" y="1300" on="0"/>
        <pt x="672" y="1162" on="1"/>
        <pt x="838" y="885" on="1"/>
        <pt x="880" y="815" on="0"/>
        <pt x="966" y="676" on="0"/>
        <pt x="1007" y="606" on="1"/>
        <pt x="1106" y="435" on="0"/>
        <pt x="1157" y="316" on="1"/>
        <pt x="1252" y="483" on="0"/>
        <pt x="1381" y="719" on="1"/>
        <pt x="1610" y="1141" on="0"/>
        <pt x="1722" y="1333" on="1"/>
        <pt x="1741" y="1364" on="0"/>
        <pt x="1870" y="1440" on="1"/>
        <pt x="1899" y="1457" on="0"/>
        <pt x="1916" y="1469" on="1"/>
        <pt x="1940" y="1032" on="0"/>
        <pt x="1961" y="520" on="0"/>
        <pt x="1969" y="418" on="0"/>
      </contour>
    </TTGlyph>
    <TTGlyph name="N" xMin="23" yMin="-34" xMax="1798" yMax="1439">
      <contour>
        <pt x="1401" y="343" on="1"/>
        <pt x="1424" y="609" on="0"/>
        <pt x="1424" y="1086" on="0"/>
        <pt x="1405" y="1303" on="1"/>
        <pt x="1227" y="1303" on="1"/>
        <pt x="1239" y="1312" on="0"/>
        <pt x="1294" y="1357" on="0"/>
        <pt x="1324" y="1380" on="1"/>
        <pt x="1400" y="1439" on="0"/>
        <pt x="1421" y="1439" on="1"/>
        <pt x="1798" y="1439" on="1"/>
        <pt x="1776" y="1432" on="0"/>
        <pt x="1685" y="1350" on="0"/>
        <pt x="1634" y="1310" on="0"/>
        <pt x="1609" y="1304" on="1"/>
        <pt x="1611" y="1280" on="0"/>
        <pt x="1611" y="1232" on="0"/>
        <pt x="1611" y="1208" on="1"/>
        <pt x="1608" y="985" on="1"/>
        <pt x="1608" y="617" on="0"/>
        <pt x="1529" y="207" on="1"/>
        <pt x="1527" y="197" on="0"/>
        <pt x="1523" y="169" on="0"/>
        <pt x="1520" y="154" on="1"/>
        <pt x="1515" y="119" on="0"/>
        <pt x="1501" y="88" on="0"/>
        <pt x="1461" y="49" on="0"/>
        <pt x="1437" y="30" on="1"/>
        <pt x="1409" y="6" on="0"/>
        <pt x="1352" y="-34" on="1"/>
        <pt x="1340" y="41" on="0"/>
        <pt x="1266" y="133" on="1"/>
        <pt x="909" y="579" on="0"/>
        <pt x="461" y="1077" on="1"/>
        <pt x="461" y="584" on="1"/>
        <pt x="461" y="291" on="0"/>
        <pt x="416" y="205" on="1"/>
        <pt x="391" y="160" on="0"/>
        <pt x="370" y="136" on="1"/>
        <pt x="693" y="136" on="1"/>
        <pt x="681" y="127" on="0"/>
        <pt x="626" y="82" on="0"/>
        <pt x="596" y="58" on="1"/>
        <pt x="520" y="0" on="0"/>
        <pt x="499" y="0" on="1"/>
        <pt x="170" y="0" on="1"/>
        <pt x="256" y="124" on="0"/>
        <pt x="268" y="326" on="1"/>
        <pt x="272" y="384" on="0"/>
        <pt x="272" y="905" on="0"/>
        <pt x="250" y="1303" on="1"/>
        <pt x="23" y="1303" on="1"/>
        <pt x="35" y="1312" on="0"/>
        <pt x="90" y="1357" on="0"/>
        <pt x="120" y="1380" on="1"/>
        <pt x="196" y="1439" on="0"/>
        <pt x="217" y="1439" on="1"/>
        <pt x="594" y="1439" on="1"/>
        <pt x="568" y="1430" on="0"/>
        <pt x="516" y="1380" on="0"/>
        <pt x="507" y="1372" on="1"/>
        <pt x="775" y="1088" on="0"/>
        <pt x="1152" y="641" on="0"/>
        <pt x="1320" y="446" on="0"/>
      </contour>
    </TTGlyph>
    <TTGlyph name="Nacute" xMin="23" yMin="-34" xMax="1798" yMax="1811">
      <component glyphName="N" x="0" y="0" flags="0x1204"/>
      <component glyphName="acute" x="901" y="108" flags="0x1004"/>
    </TTGlyph>
    <TTGlyph name="Ncaron" xMin="23" yMin="-34" xMax="1798" yMax="1803">
      <component glyphName="N" x="0" y="0" flags="0x1204"/>
      <component glyphName="caron" x="581" y="175" flags="0x1004"/>
    </TTGlyph>
    <TTGlyph name="Ncommaaccent" xMin="23" yMin="-547" xMax="1798" yMax="1439">
      <component glyphName="N" x="0" y="0" flags="0x1204"/>
      <component glyphName="uni0326" x="718" y="0" flags="0x1004"/>
    </TTGlyph>
    <TTGlyph name="Ntilde" xMin="23" yMin="-34" xMax="1798" yMax="1803">
      <component glyphName="N" x="0" y="0" flags="0x1204"/>
      <component glyphName="tilde" x="448" y="280" flags="0x1004"/>
    </TTGlyph>
    <TTGlyph name="O" xMin="89" yMin="-81" xMax="1673" yMax="1483">
      <contour>
        <pt x="1673" y="834" on="1"/>
        <pt x="1673" y="731" on="0"/>
        <pt x="1603" y="506" on="0"/>
        <pt x="1480" y="301" on="0"/>
        <pt x="1310" y="123" on="0"/>
        <pt x="1210" y="58" on="1"/>
        <pt x="996" y="-81" on="0"/>
        <pt x="773" y="-81" on="1"/>
        <pt x="458" y="-81" on="0"/>
        <pt x="274" y="102" on="1"/>
        <pt x="89" y="285" on="0"/>
        <pt x="89" y="599" on="1"/>
        <pt x="89" y="836" on="0"/>
        <pt x="220" y="1044" on="1"/>
        <pt x="344" y="1243" on="0"/>
        <pt x="552" y="1362" on="1"/>
        <pt x="763" y="1483" on="0"/>
        <pt x="1001" y="1483" on="1"/>
        <pt x="1275" y="1483" on="0"/>
        <pt x="1472" y="1302" on="1"/>
        <pt x="1673" y="1117" on="0"/>
      </contour>
      <contour>
        <pt x="1478" y="674" on="1"/>
        <pt x="1478" y="813" on="0"/>
        <pt x="1381" y="1066" on="0"/>
        <pt x="1292" y="1156" on="1"/>
        <pt x="1106" y="1343" on="0"/>
        <pt x="797" y="1343" on="1"/>
        <pt x="394" y="1343" on="0"/>
        <pt x="310" y="1004" on="1"/>
        <pt x="284" y="897" on="0"/>
        <pt x="284" y="603" on="0"/>
        <pt x="375" y="340" on="0"/>
        <pt x="463" y="246" on="1"/>
        <pt x="647" y="51" on="0"/>
        <pt x="971" y="51" on="1"/>
        <pt x="1230" y="51" on="0"/>
        <pt x="1362" y="231" on="1"/>
        <pt x="1478" y="389" on="0"/>
      </contour>
    </TTGlyph>
    <TTGlyph name="OE" xMin="89" yMin="-81" xMax="2342" yMax="1483">
      <contour>
        <pt x="1379" y="1373" on="1"/>
        <pt x="1463" y="1439" on="0"/>
        <pt x="1486" y="1439" on="1"/>
        <pt x="2312" y="1439" on="1"/>
        <pt x="2299" y="1438" on="0"/>
        <pt x="2192" y="1345" on="0"/>
        <pt x="2135" y="1303" on="0"/>
        <pt x="2117" y="1303" on="1"/>
        <pt x="1673" y="1303" on="1"/>
        <pt x="1673" y="818" on="1"/>
        <pt x="2158" y="818" on="1"/>
        <pt x="2147" y="817" on="0"/>
        <pt x="2098" y="774" on="0"/>
        <pt x="2068" y="749" on="1"/>
        <pt x="1989" y="682" on="0"/>
        <pt x="1964" y="682" on="1"/>
        <pt x="1673" y="682" on="1"/>
        <pt x="1673" y="356" on="1"/>
        <pt x="1673" y="245" on="0"/>
        <pt x="1640" y="174" on="1"/>
        <pt x="1626" y="146" on="0"/>
        <pt x="1605" y="136" on="1"/>
        <pt x="2161" y="136" on="1"/>
        <pt x="2215" y="136" on="0"/>
        <pt x="2279" y="162" on="1"/>
        <pt x="2342" y="188" on="1"/>
        <pt x="2292" y="128" on="0"/>
        <pt x="2123" y="38" on="1"/>
        <pt x="2051" y="0" on="0"/>
        <pt x="2026" y="0" on="1"/>
        <pt x="1389" y="0" on="1"/>
        <pt x="1479" y="122" on="0"/>
        <pt x="1479" y="239" on="1"/>
        <pt x="1479" y="310" on="1"/>
        <pt x="1268" y="35" on="0"/>
        <pt x="973" y="-52" on="1"/>
        <pt x="874" y="-81" on="0"/>
        <pt x="616" y="-81" on="0"/>
        <pt x="363" y="13" on="0"/>
        <pt x="274" y="102" on="1"/>
        <pt x="89" y="285" on="0"/>
        <pt x="89" y="599" on="1"/>
        <pt x="89" y="836" on="0"/>
        <pt x="220" y="1044" on="1"/>
        <pt x="344" y="1243" on="0"/>
        <pt x="552" y="1362" on="1"/>
        <pt x="763" y="1483" on="0"/>
        <pt x="1209" y="1483" on="0"/>
      </contour>
      <contour>
        <pt x="1338" y="682" on="1"/>
        <pt x="1432" y="756" on="0"/>
        <pt x="1470" y="784" on="1"/>
        <pt x="1432" y="1043" on="0"/>
        <pt x="1253" y="1192" on="1"/>
        <pt x="1071" y="1343" on="0"/>
        <pt x="797" y="1343" on="1"/>
        <pt x="394" y="1343" on="0"/>
        <pt x="310" y="1004" on="1"/>
        <pt x="284" y="897" on="0"/>
        <pt x="284" y="603" on="0"/>
        <pt x="375" y="340" on="0"/>
        <pt x="463" y="246" on="1"/>
        <pt x="647" y="51" on="0"/>
        <pt x="971" y="51" on="1"/>
        <pt x="1231" y="51" on="0"/>
        <pt x="1362" y="231" on="1"/>
        <pt x="1478" y="389" on="0"/>
        <pt x="1478" y="659" on="1"/>
        <pt x="1478" y="682" on="1"/>
      </contour>
    </TTGlyph>
    <TTGlyph name="Oacute" xMin="89" yMin="-81" xMax="1673" yMax="2016">
      <component glyphName="O" x="0" y="0" flags="0x1204"/>
      <component glyphName="acute" x="689" y="313" flags="0x1004"/>
    </TTGlyph>
    <TTGlyph name="Obreve" xMin="89" yMin="-81" xMax="1673" yMax="1925">
      <component glyphName="O" x="0" y="0" flags="0x1204"/>
      <component glyphName="breve" x="494" y="298" flags="0x1004"/>
    </TTGlyph>
    <TTGlyph name="Ocircumflex" xMin="89" yMin="-81" xMax="1673" yMax="1933">
      <component glyphName="O" x="0" y="0" flags="0x1204"/>
      <component glyphName="circumflex" x="600" y="305" flags="0x1004"/>
    </TTGlyph>
    <TTGlyph name="Odieresis" xMin="89" yMin="-81" xMax="1673" yMax="1855">
      <component glyphName="O" x="0" y="0" flags="0x1204"/>
      <component glyphName="dieresis" x="480" y="333" flags="0x1004"/>
    </TTGlyph>
    <TTGlyph name="Ograve" xMin="89" yMin="-81" xMax="1673" yMax="2025">
      <component glyphName="O" x="0" y="0" flags="0x1204"/>
      <component glyphName="grave" x="584" y="319" flags="0x1004"/>
    </TTGlyph>
    <TTGlyph name="Ohungarumlaut" xMin="89" yMin="-81" xMax="1673" yMax="1995">
      <component glyphName="O" x="0" y="0" flags="0x1204"/>
      <component glyphName="hungarumlaut" x="674" y="292" flags="0x1004"/>
    </TTGlyph>
    <TTGlyph name="Omacron" xMin="89" yMin="-81" xMax="1673" yMax="1689">
      <component glyphName="O" x="0" y="0" flags="0x1204"/>
      <component glyphName="macron" x="420" y="226" flags="0x1004"/>
    </TTGlyph>
    <TTGlyph name="Oslash" xMin="89" yMin="-160" xMax="1673" yMax="1624">
      <contour>
        <pt x="1339" y="1624" on="1"/>
        <pt x="1294" y="1488" on="0"/>
        <pt x="1271" y="1429" on="1"/>
        <pt x="1452" y="1354" on="0"/>
        <pt x="1560" y="1203" on="1"/>
        <pt x="1673" y="1044" on="0"/>
        <pt x="1673" y="844" on="1"/>
        <pt x="1673" y="623" on="0"/>
        <pt x="1542" y="404" on="1"/>
        <pt x="1414" y="190" on="0"/>
        <pt x="1210" y="58" on="1"/>
        <pt x="996" y="-81" on="0"/>
        <pt x="773" y="-81" on="1"/>
        <pt x="648" y="-81" on="0"/>
        <pt x="543" y="-51" on="1"/>
        <pt x="517" y="-73" on="0"/>
        <pt x="475" y="-96" on="1"/>
        <pt x="394" y="-139" on="0"/>
        <pt x="374" y="-160" on="1"/>
        <pt x="419" y="-88" on="0"/>
        <pt x="456" y="-21" on="1"/>
        <pt x="191" y="92" on="0"/>
        <pt x="114" y="389" on="1"/>
        <pt x="89" y="486" on="0"/>
        <pt x="89" y="720" on="0"/>
        <pt x="158" y="946" on="0"/>
        <pt x="281" y="1142" on="0"/>
        <pt x="451" y="1304" on="0"/>
        <pt x="552" y="1362" on="1"/>
        <pt x="763" y="1483" on="0"/>
        <pt x="1001" y="1483" on="1"/>
        <pt x="1064" y="1483" on="0"/>
        <pt x="1138" y="1470" on="1"/>
        <pt x="1152" y="1506" on="0"/>
        <pt x="1206" y="1543" on="0"/>
        <pt x="1236" y="1559" on="1"/>
        <pt x="1320" y="1605" on="0"/>
      </contour>
      <contour>
        <pt x="650" y="114" on="1"/>
        <pt x="790" y="51" on="0"/>
        <pt x="1109" y="51" on="0"/>
        <pt x="1301" y="148" on="0"/>
        <pt x="1362" y="231" on="1"/>
        <pt x="1478" y="389" on="0"/>
        <pt x="1478" y="659" on="1"/>
        <pt x="1478" y="852" on="0"/>
        <pt x="1330" y="1145" on="0"/>
        <pt x="1196" y="1233" on="1"/>
        <pt x="965" y="658" on="0"/>
        <pt x="750" y="286" on="1"/>
        <pt x="726" y="245" on="0"/>
        <pt x="674" y="155" on="0"/>
      </contour>
      <contour>
        <pt x="1071" y="1296" on="1"/>
        <pt x="947" y="1343" on="0"/>
        <pt x="653" y="1343" on="0"/>
        <pt x="457" y="1262" on="0"/>
        <pt x="397" y="1187" on="1"/>
        <pt x="284" y="1046" on="0"/>
        <pt x="284" y="764" on="1"/>
        <pt x="284" y="562" on="0"/>
        <pt x="425" y="255" on="0"/>
        <pt x="560" y="164" on="1"/>
        <pt x="812" y="621" on="0"/>
        <pt x="1025" y="1176" on="1"/>
        <pt x="1049" y="1239" on="0"/>
      </contour>
    </TTGlyph>
    <TTGlyph name="Oslashacute" xMin="89" yMin="-160" xMax="1673" yMax="1963">
      <component glyphName="Oslash" x="0" y="0" flags="0x1204"/>
      <component glyphName="acute" x="716" y="260" flags="0x1004"/>
    </TTGlyph>
    <TTGlyph name="Otilde" xMin="89" yMin="-81" xMax="1673" yMax="1836">
      <component glyphName="O" x="0" y="0" flags="0x1204"/>
      <component glyphName="tilde" x="418" y="313" flags="0x1004"/>
    </TTGlyph>
    <TTGlyph name="P" xMin="26" yMin="0" xMax="1190" yMax="1439">
      <contour>
        <pt x="736" y="565" on="0"/>
        <pt x="585" y="527" on="0"/>
        <pt x="479" y="527" on="0"/>
        <pt x="451" y="529" on="1"/>
        <pt x="451" y="473" on="0"/>
        <pt x="452" y="367" on="0"/>
        <pt x="443" y="318" on="1"/>
        <pt x="423" y="208" on="0"/>
        <pt x="344" y="136" on="1"/>
        <pt x="659" y="138" on="1"/>
        <pt x="645" y="135" on="0"/>
        <pt x="595" y="91" on="0"/>
        <pt x="566" y="66" on="1"/>
        <pt x="491" y="0" on="0"/>
        <pt x="465" y="0" on="1"/>
        <pt x="148" y="0" on="1"/>
        <pt x="217" y="63" on="0"/>
        <pt x="234" y="106" on="1"/>
        <pt x="256" y="165" on="0"/>
        <pt x="256" y="268" on="1"/>
        <pt x="256" y="1303" on="1"/>
        <pt x="26" y="1303" on="1"/>
        <pt x="185" y="1439" on="0"/>
        <pt x="220" y="1439" on="1"/>
        <pt x="757" y="1439" on="1"/>
        <pt x="934" y="1439" on="0"/>
        <pt x="1055" y="1352" on="1"/>
        <pt x="1190" y="1255" on="0"/>
        <pt x="1190" y="1083" on="1"/>
        <pt x="1190" y="926" on="0"/>
        <pt x="1066" y="794" on="1"/>
        <pt x="982" y="703" on="0"/>
        <pt x="805" y="603" on="1"/>
      </contour>
      <contour>
        <pt x="996" y="953" on="1"/>
        <pt x="996" y="1303" on="0"/>
        <pt x="494" y="1303" on="1"/>
        <pt x="451" y="1303" on="1"/>
        <pt x="451" y="711" on="1"/>
        <pt x="488" y="708" on="0"/>
        <pt x="553" y="692" on="1"/>
        <pt x="668" y="664" on="0"/>
        <pt x="799" y="664" on="0"/>
        <pt x="902" y="697" on="0"/>
        <pt x="934" y="732" on="1"/>
        <pt x="996" y="798" on="0"/>
      </contour>
    </TTGlyph>
    <TTGlyph name="Q" xMin="90" yMin="-295" xMax="2206" yMax="1483">
      <contour>
        <pt x="1101" y="33" on="1"/>
        <pt x="953" y="-41" on="0"/>
        <pt x="622" y="-41" on="0"/>
        <pt x="370" y="51" on="0"/>
        <pt x="280" y="137" on="1"/>
        <pt x="90" y="319" on="0"/>
        <pt x="90" y="624" on="1"/>
        <pt x="90" y="855" on="0"/>
        <pt x="224" y="1058" on="1"/>
        <pt x="352" y="1252" on="0"/>
        <pt x="560" y="1366" on="1"/>
        <pt x="774" y="1483" on="0"/>
        <pt x="1002" y="1483" on="1"/>
        <pt x="1275" y="1483" on="0"/>
        <pt x="1472" y="1302" on="1"/>
        <pt x="1674" y="1116" on="0"/>
        <pt x="1674" y="845" on="1"/>
        <pt x="1674" y="552" on="0"/>
        <pt x="1449" y="302" on="1"/>
        <pt x="1381" y="227" on="0"/>
        <pt x="1302" y="165" on="1"/>
        <pt x="1375" y="114" on="0"/>
        <pt x="1537" y="1" on="0"/>
        <pt x="1624" y="-47" on="1"/>
        <pt x="1824" y="-158" on="0"/>
        <pt x="1984" y="-158" on="1"/>
        <pt x="2072" y="-158" on="0"/>
        <pt x="2206" y="-103" on="1"/>
        <pt x="2074" y="-235" on="0"/>
        <pt x="1897" y="-280" on="1"/>
        <pt x="1838" y="-295" on="0"/>
        <pt x="1772" y="-295" on="1"/>
        <pt x="1646" y="-295" on="0"/>
        <pt x="1522" y="-228" on="1"/>
        <pt x="1354" y="-139" on="0"/>
      </contour>
      <contour>
        <pt x="1479" y="702" on="1"/>
        <pt x="1479" y="837" on="0"/>
        <pt x="1374" y="1078" on="0"/>
        <pt x="1282" y="1164" on="1"/>
        <pt x="1090" y="1343" on="0"/>
        <pt x="798" y="1343" on="1"/>
        <pt x="397" y="1343" on="0"/>
        <pt x="312" y="1008" on="1"/>
        <pt x="285" y="902" on="0"/>
        <pt x="285" y="615" on="0"/>
        <pt x="385" y="365" on="0"/>
        <pt x="476" y="276" on="1"/>
        <pt x="667" y="91" on="0"/>
        <pt x="972" y="91" on="1"/>
        <pt x="1225" y="91" on="0"/>
        <pt x="1358" y="269" on="1"/>
        <pt x="1479" y="430" on="0"/>
      </contour>
    </TTGlyph>
    <TTGlyph name="R" xMin="34" yMin="-5" xMax="1499" yMax="1439">
      <contour>
        <pt x="712" y="1439" on="1"/>
        <pt x="1174" y="1439" on="0"/>
        <pt x="1174" y="1138" on="1"/>
        <pt x="1174" y="992" on="0"/>
        <pt x="1050" y="866" on="1"/>
        <pt x="952" y="767" on="0"/>
        <pt x="796" y="692" on="1"/>
        <pt x="874" y="661" on="0"/>
        <pt x="950" y="577" on="1"/>
        <pt x="971" y="553" on="0"/>
        <pt x="994" y="528" on="1"/>
        <pt x="1254" y="240" on="1"/>
        <pt x="1322" y="163" on="0"/>
        <pt x="1383" y="133" on="0"/>
        <pt x="1403" y="133" on="1"/>
        <pt x="1449" y="133" on="0"/>
        <pt x="1499" y="165" on="1"/>
        <pt x="1379" y="-5" on="0"/>
        <pt x="1201" y="-5" on="1"/>
        <pt x="1156" y="-5" on="0"/>
        <pt x="1112" y="46" on="1"/>
        <pt x="1101" y="59" on="0"/>
        <pt x="1089" y="72" on="1"/>
        <pt x="822" y="367" on="1"/>
        <pt x="765" y="430" on="0"/>
        <pt x="685" y="515" on="0"/>
        <pt x="646" y="541" on="1"/>
        <pt x="572" y="590" on="0"/>
        <pt x="444" y="590" on="1"/>
        <pt x="444" y="388" on="1"/>
        <pt x="444" y="290" on="0"/>
        <pt x="436" y="257" on="1"/>
        <pt x="423" y="208" on="0"/>
        <pt x="373" y="136" on="1"/>
        <pt x="693" y="136" on="1"/>
        <pt x="680" y="134" on="0"/>
        <pt x="623" y="84" on="0"/>
        <pt x="583" y="49" on="0"/>
        <pt x="564" y="34" on="1"/>
        <pt x="519" y="0" on="0"/>
        <pt x="499" y="0" on="1"/>
        <pt x="170" y="0" on="1"/>
        <pt x="250" y="88" on="0"/>
        <pt x="250" y="239" on="1"/>
        <pt x="250" y="1303" on="1"/>
        <pt x="34" y="1303" on="1"/>
        <pt x="72" y="1334" on="1"/>
        <pt x="200" y="1439" on="0"/>
        <pt x="228" y="1439" on="1"/>
      </contour>
      <contour>
        <pt x="980" y="993" on="1"/>
        <pt x="980" y="1079" on="0"/>
        <pt x="906" y="1197" on="0"/>
        <pt x="847" y="1234" on="1"/>
        <pt x="737" y="1303" on="0"/>
        <pt x="568" y="1303" on="1"/>
        <pt x="444" y="1303" on="1"/>
        <pt x="444" y="730" on="1"/>
        <pt x="600" y="730" on="1"/>
        <pt x="779" y="730" on="0"/>
        <pt x="864" y="775" on="1"/>
        <pt x="980" y="836" on="0"/>
      </contour>
    </TTGlyph>
    <TTGlyph name="Racute" xMin="34" yMin="-5" xMax="1499" yMax="1945">
      <component glyphName="R" x="0" y="0" flags="0x1204"/>
      <component glyphName="acute" x="592" y="242" flags="0x1004"/>
    </TTGlyph>
    <TTGlyph name="Rcaron" xMin="34" yMin="-5" xMax="1499" yMax="1891">
      <component glyphName="R" x="0" y="0" flags="0x1204"/>
      <component glyphName="caron" x="385" y="263" flags="0x1004"/>
    </TTGlyph>
    <TTGlyph name="Rcommaaccent" xMin="34" yMin="-547" xMax="1499" yMax="1439">
      <component glyphName="R" x="0" y="0" flags="0x1204"/>
      <component glyphName="uni0326" x="522" y="0" flags="0x1004"/>
    </TTGlyph>
    <TTGlyph name="S" xMin="54" yMin="-24" xMax="1091" yMax="1467">
      <contour>
        <pt x="789" y="1207" on="1"/>
        <pt x="823" y="1241" on="0"/>
        <pt x="823" y="1272" on="0"/>
        <pt x="794" y="1294" on="0"/>
        <pt x="749" y="1310" on="0"/>
        <pt x="694" y="1321" on="0"/>
        <pt x="668" y="1324" on="1"/>
        <pt x="616" y="1330" on="0"/>
        <pt x="543" y="1330" on="0"/>
        <pt x="448" y="1316" on="0"/>
        <pt x="408" y="1296" on="1"/>
        <pt x="317" y="1250" on="0"/>
        <pt x="317" y="1068" on="0"/>
        <pt x="384" y="959" on="0"/>
        <pt x="492" y="887" on="0"/>
        <pt x="631" y="839" on="0"/>
        <pt x="777" y="797" on="0"/>
        <pt x="916" y="749" on="0"/>
        <pt x="970" y="712" on="1"/>
        <pt x="1091" y="629" on="0"/>
        <pt x="1091" y="481" on="1"/>
        <pt x="1091" y="336" on="0"/>
        <pt x="968" y="212" on="1"/>
        <pt x="863" y="106" on="0"/>
        <pt x="689" y="38" on="1"/>
        <pt x="532" y="-24" on="0"/>
        <pt x="388" y="-24" on="1"/>
        <pt x="299" y="-24" on="0"/>
        <pt x="154" y="18" on="0"/>
        <pt x="124" y="34" on="1"/>
        <pt x="54" y="69" on="0"/>
        <pt x="54" y="117" on="1"/>
        <pt x="54" y="194" on="0"/>
        <pt x="283" y="319" on="1"/>
        <pt x="253" y="286" on="0"/>
        <pt x="253" y="225" on="0"/>
        <pt x="292" y="182" on="0"/>
        <pt x="354" y="151" on="0"/>
        <pt x="431" y="131" on="0"/>
        <pt x="469" y="125" on="1"/>
        <pt x="539" y="114" on="0"/>
        <pt x="653" y="114" on="0"/>
        <pt x="763" y="135" on="0"/>
        <pt x="806" y="161" on="1"/>
        <pt x="903" y="219" on="0"/>
        <pt x="903" y="344" on="1"/>
        <pt x="903" y="538" on="0"/>
        <pt x="657" y="632" on="1"/>
        <pt x="587" y="658" on="0"/>
        <pt x="440" y="705" on="0"/>
        <pt x="300" y="755" on="0"/>
        <pt x="246" y="790" on="1"/>
        <pt x="124" y="870" on="0"/>
        <pt x="124" y="1001" on="1"/>
        <pt x="124" y="1110" on="0"/>
        <pt x="247" y="1226" on="1"/>
        <pt x="353" y="1326" on="0"/>
        <pt x="514" y="1398" on="1"/>
        <pt x="667" y="1467" on="0"/>
        <pt x="775" y="1467" on="1"/>
        <pt x="872" y="1467" on="0"/>
        <pt x="990" y="1431" on="0"/>
        <pt x="1021" y="1412" on="0"/>
        <pt x="1021" y="1387" on="0"/>
        <pt x="993" y="1352" on="0"/>
        <pt x="949" y="1312" on="0"/>
        <pt x="896" y="1272" on="0"/>
        <pt x="870" y="1255" on="1"/>
        <pt x="810" y="1216" on="0"/>
      </contour>
    </TTGlyph>
    <TTGlyph name="Sacute" xMin="54" yMin="-24" xMax="1091" yMax="1904">
      <component glyphName="S" x="0" y="0" flags="0x1204"/>
      <component glyphName="acute" x="475" y="201" flags="0x1004"/>
    </TTGlyph>
    <TTGlyph name="Scaron" xMin="54" yMin="-24" xMax="1091" yMax="1899">
      <component glyphName="S" x="0" y="0" flags="0x1204"/>
      <component glyphName="caron" x="311" y="271" flags="0x1004"/>
    </TTGlyph>
    <TTGlyph name="Scedilla" xMin="54" yMin="-501" xMax="1091" yMax="1467">
      <contour>
        <pt x="789" y="1207" on="1"/>
        <pt x="823" y="1241" on="0"/>
        <pt x="823" y="1272" on="0"/>
        <pt x="794" y="1294" on="0"/>
        <pt x="749" y="1310" on="0"/>
        <pt x="694" y="1321" on="0"/>
        <pt x="668" y="1324" on="1"/>
        <pt x="616" y="1330" on="0"/>
        <pt x="543" y="1330" on="0"/>
        <pt x="448" y="1316" on="0"/>
        <pt x="408" y="1296" on="1"/>
        <pt x="317" y="1250" on="0"/>
        <pt x="317" y="1068" on="0"/>
        <pt x="384" y="959" on="0"/>
        <pt x="492" y="887" on="0"/>
        <pt x="631" y="839" on="0"/>
        <pt x="777" y="797" on="0"/>
        <pt x="916" y="749" on="0"/>
        <pt x="970" y="712" on="1"/>
        <pt x="1091" y="629" on="0"/>
        <pt x="1091" y="481" on="1"/>
        <pt x="1091" y="309" on="0"/>
        <pt x="924" y="170" on="1"/>
        <pt x="779" y="52" on="0"/>
        <pt x="571" y="0" on="1"/>
        <pt x="467" y="-107" on="1"/>
        <pt x="474" y="-102" on="0"/>
        <pt x="509" y="-96" on="0"/>
        <pt x="557" y="-89" on="0"/>
        <pt x="625" y="-102" on="0"/>
        <pt x="646" y="-120" on="1"/>
        <pt x="696" y="-160" on="0"/>
        <pt x="653" y="-237" on="1"/>
        <pt x="592" y="-345" on="0"/>
        <pt x="315" y="-501" on="1"/>
        <pt x="341" y="-475" on="0"/>
        <pt x="403" y="-434" on="0"/>
        <pt x="451" y="-402" on="0"/>
        <pt x="476" y="-349" on="0"/>
        <pt x="478" y="-320" on="1"/>
        <pt x="485" y="-216" on="0"/>
        <pt x="351" y="-227" on="1"/>
        <pt x="314" y="-230" on="0"/>
        <pt x="279" y="-241" on="1"/>
        <pt x="271" y="-244" on="0"/>
        <pt x="277" y="-238" on="1"/>
        <pt x="467" y="-40" on="1"/>
        <pt x="471" y="-37" on="0"/>
        <pt x="476" y="-33" on="1"/>
        <pt x="481" y="-29" on="0"/>
        <pt x="501" y="-14" on="1"/>
        <pt x="441" y="-24" on="0"/>
        <pt x="368" y="-24" on="0"/>
        <pt x="304" y="-18" on="0"/>
        <pt x="230" y="-4" on="0"/>
        <pt x="154" y="18" on="0"/>
        <pt x="124" y="34" on="1"/>
        <pt x="54" y="69" on="0"/>
        <pt x="54" y="117" on="1"/>
        <pt x="54" y="194" on="0"/>
        <pt x="283" y="319" on="1"/>
        <pt x="253" y="286" on="0"/>
        <pt x="253" y="225" on="0"/>
        <pt x="292" y="182" on="0"/>
        <pt x="354" y="151" on="0"/>
        <pt x="431" y="131" on="0"/>
        <pt x="469" y="125" on="1"/>
        <pt x="539" y="114" on="0"/>
        <pt x="653" y="114" on="0"/>
        <pt x="763" y="135" on="0"/>
        <pt x="806" y="161" on="1"/>
        <pt x="903" y="219" on="0"/>
        <pt x="903" y="344" on="1"/>
        <pt x="903" y="538" on="0"/>
        <pt x="657" y="632" on="1"/>
        <pt x="587" y="658" on="0"/>
        <pt x="440" y="705" on="0"/>
        <pt x="300" y="755" on="0"/>
        <pt x="246" y="790" on="1"/>
        <pt x="124" y="870" on="0"/>
        <pt x="124" y="1001" on="1"/>
        <pt x="124" y="1110" on="0"/>
        <pt x="247" y="1226" on="1"/>
        <pt x="353" y="1326" on="0"/>
        <pt x="514" y="1398" on="1"/>
        <pt x="667" y="1467" on="0"/>
        <pt x="775" y="1467" on="1"/>
        <pt x="872" y="1467" on="0"/>
        <pt x="990" y="1431" on="0"/>
        <pt x="1021" y="1412" on="0"/>
        <pt x="1021" y="1387" on="0"/>
        <pt x="993" y="1352" on="0"/>
        <pt x="949" y="1312" on="0"/>
        <pt x="896" y="1272" on="0"/>
        <pt x="870" y="1255" on="1"/>
        <pt x="810" y="1216" on="0"/>
      </contour>
    </TTGlyph>
    <TTGlyph name="Scircumflex" xMin="54" yMin="-24" xMax="1091" yMax="1904">
      <component glyphName="S" x="0" y="0" flags="0x1204"/>
      <component glyphName="circumflex" x="285" y="276" flags="0x1004"/>
    </TTGlyph>
    <TTGlyph name="T" xMin="-18" yMin="0" xMax="1304" yMax="1439">
      <contour>
        <pt x="-18" y="1303" on="1"/>
        <pt x="148" y="1439" on="0"/>
        <pt x="176" y="1439" on="1"/>
        <pt x="1304" y="1439" on="1"/>
        <pt x="1291" y="1437" on="0"/>
        <pt x="1195" y="1353" on="0"/>
        <pt x="1176" y="1338" on="1"/>
        <pt x="1130" y="1303" on="0"/>
        <pt x="1110" y="1303" on="1"/>
        <pt x="700" y="1303" on="1"/>
        <pt x="700" y="388" on="1"/>
        <pt x="700" y="267" on="0"/>
        <pt x="659" y="188" on="1"/>
        <pt x="641" y="154" on="0"/>
        <pt x="619" y="136" on="1"/>
        <pt x="949" y="136" on="1"/>
        <pt x="935" y="134" on="0"/>
        <pt x="839" y="50" on="0"/>
        <pt x="820" y="35" on="1"/>
        <pt x="774" y="0" on="0"/>
        <pt x="754" y="0" on="1"/>
        <pt x="406" y="0" on="1"/>
        <pt x="466" y="54" on="0"/>
        <pt x="481" y="91" on="1"/>
        <pt x="505" y="150" on="0"/>
        <pt x="505" y="239" on="1"/>
        <pt x="505" y="1303" on="1"/>
      </contour>
    </TTGlyph>
    <TTGlyph name="Tbar" xMin="-18" yMin="0" xMax="1304" yMax="1439">
      <contour>
        <pt x="-18" y="1303" on="1"/>
        <pt x="148" y="1439" on="0"/>
        <pt x="176" y="1439" on="1"/>
        <pt x="1304" y="1439" on="1"/>
        <pt x="1291" y="1437" on="0"/>
        <pt x="1195" y="1353" on="0"/>
        <pt x="1176" y="1338" on="1"/>
        <pt x="1130" y="1303" on="0"/>
        <pt x="1110" y="1303" on="1"/>
        <pt x="700" y="1303" on="1"/>
        <pt x="700" y="813" on="1"/>
        <pt x="947" y="813" on="1"/>
        <pt x="932" y="811" on="0"/>
        <pt x="861" y="763" on="0"/>
        <pt x="811" y="729" on="0"/>
        <pt x="786" y="713" on="1"/>
        <pt x="728" y="675" on="0"/>
        <pt x="700" y="670" on="1"/>
        <pt x="700" y="388" on="1"/>
        <pt x="700" y="267" on="0"/>
        <pt x="659" y="188" on="1"/>
        <pt x="641" y="154" on="0"/>
        <pt x="619" y="136" on="1"/>
        <pt x="949" y="136" on="1"/>
        <pt x="935" y="134" on="0"/>
        <pt x="839" y="50" on="0"/>
        <pt x="820" y="35" on="1"/>
        <pt x="774" y="0" on="0"/>
        <pt x="754" y="0" on="1"/>
        <pt x="406" y="0" on="1"/>
        <pt x="466" y="54" on="0"/>
        <pt x="481" y="91" on="1"/>
        <pt x="505" y="150" on="0"/>
        <pt x="505" y="239" on="1"/>
        <pt x="505" y="669" on="1"/>
        <pt x="282" y="669" on="1"/>
        <pt x="294" y="669" on="0"/>
        <pt x="351" y="708" on="1"/>
        <pt x="473" y="790" on="0"/>
        <pt x="505" y="804" on="1"/>
        <pt x="505" y="1303" on="1"/>
      </contour>
    </TTGlyph>
    <TTGlyph name="Tcaron" xMin="-18" yMin="0" xMax="1304" yMax="1867">
      <component glyphName="T" x="0" y="0" flags="0x1204"/>
      <component glyphName="caron" x="293" y="239" flags="0x1004"/>
    </TTGlyph>
    <TTGlyph name="Tcommaaccent" xMin="-18" yMin="-547" xMax="1304" yMax="1439">
      <component glyphName="T" x="0" y="0" flags="0x1204"/>
      <component glyphName="uni0326" x="430" y="0" flags="0x1004"/>
    </TTGlyph>
    <TTGlyph name="Thorn" xMin="22" yMin="0" xMax="1186" yMax="1477">
      <contour>
        <pt x="22" y="1065" on="1"/>
        <pt x="188" y="1201" on="0"/>
        <pt x="216" y="1201" on="1"/>
        <pt x="252" y="1201" on="1"/>
        <pt x="252" y="1341" on="1"/>
        <pt x="333" y="1408" on="0"/>
        <pt x="384" y="1436" on="0"/>
        <pt x="400" y="1446" on="1"/>
        <pt x="442" y="1470" on="0"/>
        <pt x="447" y="1477" on="1"/>
        <pt x="447" y="1201" on="1"/>
        <pt x="753" y="1201" on="1"/>
        <pt x="931" y="1201" on="0"/>
        <pt x="1051" y="1114" on="1"/>
        <pt x="1186" y="1015" on="0"/>
        <pt x="1186" y="844" on="1"/>
        <pt x="1186" y="687" on="0"/>
        <pt x="1062" y="554" on="1"/>
        <pt x="978" y="464" on="0"/>
        <pt x="801" y="364" on="1"/>
        <pt x="663" y="288" on="0"/>
        <pt x="502" y="288" on="1"/>
        <pt x="467" y="288" on="0"/>
        <pt x="433" y="292" on="1"/>
        <pt x="413" y="200" on="0"/>
        <pt x="340" y="135" on="1"/>
        <pt x="655" y="135" on="1"/>
        <pt x="641" y="133" on="0"/>
        <pt x="588" y="86" on="1"/>
        <pt x="489" y="0" on="0"/>
        <pt x="461" y="0" on="1"/>
        <pt x="144" y="0" on="1"/>
        <pt x="170" y="22" on="1"/>
        <pt x="243" y="83" on="0"/>
        <pt x="250" y="196" on="1"/>
        <pt x="252" y="230" on="0"/>
        <pt x="252" y="266" on="1"/>
        <pt x="252" y="1065" on="1"/>
      </contour>
      <contour>
        <pt x="447" y="472" on="1"/>
        <pt x="592" y="426" on="0"/>
        <pt x="787" y="426" on="0"/>
        <pt x="887" y="453" on="0"/>
        <pt x="922" y="484" on="1"/>
        <pt x="991" y="545" on="0"/>
        <pt x="991" y="685" on="1"/>
        <pt x="991" y="1020" on="0"/>
        <pt x="620" y="1058" on="1"/>
        <pt x="557" y="1065" on="0"/>
        <pt x="490" y="1065" on="1"/>
        <pt x="447" y="1065" on="1"/>
      </contour>
    </TTGlyph>
    <TTGlyph name="U" xMin="50" yMin="-27" xMax="1728" yMax="1440">
      <contour>
        <pt x="1728" y="1440" on="1"/>
        <pt x="1707" y="1434" on="0"/>
        <pt x="1657" y="1390" on="0"/>
        <pt x="1630" y="1366" on="1"/>
        <pt x="1562" y="1304" on="0"/>
        <pt x="1533" y="1304" on="1"/>
        <pt x="1459" y="1304" on="1"/>
        <pt x="1459" y="389" on="1"/>
        <pt x="1459" y="279" on="0"/>
        <pt x="1414" y="190" on="1"/>
        <pt x="1399" y="159" on="0"/>
        <pt x="1378" y="137" on="1"/>
        <pt x="1708" y="137" on="1"/>
        <pt x="1684" y="130" on="0"/>
        <pt x="1585" y="39" on="0"/>
        <pt x="1534" y="1" on="0"/>
        <pt x="1513" y="1" on="1"/>
        <pt x="1185" y="1" on="1"/>
        <pt x="1245" y="85" on="0"/>
        <pt x="1264" y="179" on="0"/>
        <pt x="1265" y="215" on="1"/>
        <pt x="1106" y="100" on="0"/>
        <pt x="1007" y="56" on="1"/>
        <pt x="821" y="-27" on="0"/>
        <pt x="537" y="-27" on="0"/>
        <pt x="367" y="43" on="0"/>
        <pt x="316" y="108" on="1"/>
        <pt x="219" y="230" on="0"/>
        <pt x="219" y="474" on="1"/>
        <pt x="219" y="1304" on="1"/>
        <pt x="50" y="1304" on="1"/>
        <pt x="62" y="1313" on="0"/>
        <pt x="116" y="1358" on="0"/>
        <pt x="147" y="1382" on="1"/>
        <pt x="224" y="1440" on="0"/>
        <pt x="244" y="1440" on="1"/>
        <pt x="661" y="1440" on="1"/>
        <pt x="637" y="1433" on="0"/>
        <pt x="538" y="1342" on="0"/>
        <pt x="487" y="1304" on="0"/>
        <pt x="466" y="1304" on="1"/>
        <pt x="413" y="1304" on="1"/>
        <pt x="413" y="531" on="1"/>
        <pt x="413" y="327" on="0"/>
        <pt x="537" y="216" on="1"/>
        <pt x="656" y="111" on="0"/>
        <pt x="863" y="111" on="1"/>
        <pt x="1004" y="111" on="0"/>
        <pt x="1178" y="198" on="1"/>
        <pt x="1228" y="223" on="0"/>
        <pt x="1265" y="251" on="1"/>
        <pt x="1265" y="1304" on="1"/>
        <pt x="1077" y="1304" on="1"/>
        <pt x="1089" y="1313" on="0"/>
        <pt x="1144" y="1358" on="0"/>
        <pt x="1175" y="1382" on="1"/>
        <pt x="1252" y="1440" on="0"/>
        <pt x="1272" y="1440" on="1"/>
      </contour>
    </TTGlyph>
    <TTGlyph name="Uacute" xMin="50" yMin="-27" xMax="1728" yMax="1803">
      <component glyphName="U" x="0" y="0" flags="0x1204"/>
      <component glyphName="acute" x="748" y="100" flags="0x1004"/>
    </TTGlyph>
    <TTGlyph name="Ubreve" xMin="50" yMin="-27" xMax="1728" yMax="1891">
      <component glyphName="U" x="0" y="0" flags="0x1204"/>
      <component glyphName="breve" x="478" y="264" flags="0x1004"/>
    </TTGlyph>
    <TTGlyph name="Ucircumflex" xMin="50" yMin="-27" xMax="1728" yMax="1909">
      <component glyphName="U" x="0" y="0" flags="0x1204"/>
      <component glyphName="circumflex" x="608" y="281" flags="0x1004"/>
    </TTGlyph>
    <TTGlyph name="Udieresis" xMin="50" yMin="-27" xMax="1728" yMax="1814">
      <component glyphName="U" x="0" y="0" flags="0x1204"/>
      <component glyphName="dieresis" x="488" y="292" flags="0x1004"/>
    </TTGlyph>
    <TTGlyph name="Ugrave" xMin="50" yMin="-27" xMax="1728" yMax="1856">
      <component glyphName="U" x="0" y="0" flags="0x1204"/>
      <component glyphName="grave" x="542" y="150" flags="0x1004"/>
    </TTGlyph>
    <TTGlyph name="Uhungarumlaut" xMin="50" yMin="-27" xMax="1728" yMax="1958">
      <component glyphName="U" x="0" y="0" flags="0x1204"/>
      <component glyphName="hungarumlaut" x="712" y="255" flags="0x1004"/>
    </TTGlyph>
    <TTGlyph name="Umacron" xMin="50" yMin="-27" xMax="1728" yMax="1680">
      <component glyphName="U" x="0" y="0" flags="0x1204"/>
      <component glyphName="macron" x="404" y="217" flags="0x1004"/>
    </TTGlyph>
    <TTGlyph name="Uogonek" xMin="50" yMin="-471" xMax="1728" yMax="1440">
      <contour>
        <pt x="1429" y="1" on="1"/>
        <pt x="1367" y="-80" on="0"/>
        <pt x="1367" y="-155" on="1"/>
        <pt x="1367" y="-225" on="0"/>
        <pt x="1420" y="-280" on="1"/>
        <pt x="1473" y="-334" on="0"/>
        <pt x="1545" y="-334" on="1"/>
        <pt x="1595" y="-334" on="0"/>
        <pt x="1685" y="-277" on="1"/>
        <pt x="1707" y="-263" on="0"/>
        <pt x="1728" y="-253" on="1"/>
        <pt x="1728" y="-254" on="1"/>
        <pt x="1728" y="-274" on="0"/>
        <pt x="1534" y="-398" on="1"/>
        <pt x="1420" y="-471" on="0"/>
        <pt x="1347" y="-471" on="1"/>
        <pt x="1280" y="-471" on="0"/>
        <pt x="1228" y="-415" on="1"/>
        <pt x="1178" y="-361" on="0"/>
        <pt x="1178" y="-246" on="0"/>
        <pt x="1209" y="-162" on="0"/>
        <pt x="1236" y="-125" on="1"/>
        <pt x="1289" y="-52" on="0"/>
        <pt x="1372" y="1" on="1"/>
        <pt x="1185" y="1" on="1"/>
        <pt x="1245" y="85" on="0"/>
        <pt x="1264" y="179" on="0"/>
        <pt x="1265" y="215" on="1"/>
        <pt x="1106" y="100" on="0"/>
        <pt x="1007" y="56" on="1"/>
        <pt x="821" y="-27" on="0"/>
        <pt x="537" y="-27" on="0"/>
        <pt x="367" y="43" on="0"/>
        <pt x="316" y="108" on="1"/>
        <pt x="219" y="230" on="0"/>
        <pt x="219" y="474" on="1"/>
        <pt x="219" y="1304" on="1"/>
        <pt x="50" y="1304" on="1"/>
        <pt x="62" y="1313" on="0"/>
        <pt x="116" y="1358" on="0"/>
        <pt x="147" y="1382" on="1"/>
        <pt x="224" y="1440" on="0"/>
        <pt x="244" y="1440" on="1"/>
        <pt x="661" y="1440" on="1"/>
        <pt x="637" y="1433" on="0"/>
        <pt x="538" y="1342" on="0"/>
        <pt x="487" y="1304" on="0"/>
        <pt x="466" y="1304" on="1"/>
        <pt x="413" y="1304" on="1"/>
        <pt x="413" y="531" on="1"/>
        <pt x="413" y="327" on="0"/>
        <pt x="537" y="216" on="1"/>
        <pt x="656" y="111" on="0"/>
        <pt x="863" y="111" on="1"/>
        <pt x="1004" y="111" on="0"/>
        <pt x="1178" y="198" on="1"/>
        <pt x="1228" y="223" on="0"/>
        <pt x="1265" y="251" on="1"/>
        <pt x="1265" y="1304" on="1"/>
        <pt x="1077" y="1304" on="1"/>
        <pt x="1089" y="1313" on="0"/>
        <pt x="1144" y="1358" on="0"/>
        <pt x="1175" y="1382" on="1"/>
        <pt x="1252" y="1440" on="0"/>
        <pt x="1272" y="1440" on="1"/>
        <pt x="1728" y="1440" on="1"/>
        <pt x="1707" y="1434" on="0"/>
        <pt x="1657" y="1390" on="0"/>
        <pt x="1630" y="1366" on="1"/>
        <pt x="1562" y="1304" on="0"/>
        <pt x="1533" y="1304" on="1"/>
        <pt x="1459" y="1304" on="1"/>
        <pt x="1459" y="389" on="1"/>
        <pt x="1459" y="279" on="0"/>
        <pt x="1414" y="190" on="1"/>
        <pt x="1399" y="159" on="0"/>
        <pt x="1378" y="137" on="1"/>
        <pt x="1708" y="137" on="1"/>
        <pt x="1684" y="130" on="0"/>
        <pt x="1585" y="39" on="0"/>
        <pt x="1534" y="1" on="0"/>
        <pt x="1513" y="1" on="1"/>
      </contour>
    </TTGlyph>
    <TTGlyph name="Uring" xMin="50" yMin="-27" xMax="1728" yMax="2054">
      <component glyphName="U" x="0" y="0" flags="0x1204"/>
      <component glyphName="ring" x="557" y="340" flags="0x1004"/>
    </TTGlyph>
    <TTGlyph name="Utilde" xMin="50" yMin="-27" xMax="1728" yMax="1781">
      <component glyphName="U" x="0" y="0" flags="0x1204"/>
      <component glyphName="tilde" x="399" y="258" flags="0x1004"/>
    </TTGlyph>
    <TTGlyph name="V" xMin="-69" yMin="-59" xMax="1383" yMax="1456">
      <contour>
        <pt x="773" y="195" on="1"/>
        <pt x="1189" y="888" on="0"/>
        <pt x="1189" y="1149" on="1"/>
        <pt x="1189" y="1263" on="0"/>
        <pt x="1120" y="1302" on="1"/>
        <pt x="1095" y="1316" on="0"/>
        <pt x="1024" y="1316" on="0"/>
        <pt x="987" y="1303" on="1"/>
        <pt x="1026" y="1319" on="0"/>
        <pt x="1087" y="1376" on="0"/>
        <pt x="1121" y="1408" on="0"/>
        <pt x="1142" y="1421" on="1"/>
        <pt x="1187" y="1450" on="0"/>
        <pt x="1316" y="1450" on="0"/>
        <pt x="1383" y="1371" on="0"/>
        <pt x="1383" y="1236" on="0"/>
        <pt x="1337" y="1064" on="0"/>
        <pt x="1263" y="878" on="0"/>
        <pt x="1168" y="686" on="0"/>
        <pt x="1118" y="596" on="1"/>
        <pt x="1067" y="503" on="0"/>
        <pt x="903" y="229" on="0"/>
        <pt x="839" y="120" on="0"/>
        <pt x="785" y="59" on="0"/>
        <pt x="729" y="23" on="0"/>
        <pt x="699" y="5" on="1"/>
        <pt x="619" y="-43" on="0"/>
        <pt x="607" y="-59" on="1"/>
        <pt x="574" y="74" on="0"/>
        <pt x="514" y="341" on="0"/>
        <pt x="480" y="474" on="1"/>
        <pt x="403" y="780" on="0"/>
        <pt x="317" y="997" on="1"/>
        <pt x="306" y="1024" on="0"/>
        <pt x="278" y="1093" on="0"/>
        <pt x="243" y="1164" on="0"/>
        <pt x="200" y="1232" on="0"/>
        <pt x="174" y="1258" on="1"/>
        <pt x="117" y="1317" on="0"/>
        <pt x="51" y="1317" on="1"/>
        <pt x="16" y="1317" on="0"/>
        <pt x="-53" y="1281" on="0"/>
        <pt x="-69" y="1278" on="1"/>
        <pt x="-68" y="1278" on="0"/>
        <pt x="-42" y="1302" on="0"/>
        <pt x="-29" y="1313" on="0"/>
        <pt x="0" y="1336" on="0"/>
        <pt x="69" y="1385" on="0"/>
        <pt x="106" y="1406" on="1"/>
        <pt x="193" y="1456" on="0"/>
        <pt x="285" y="1456" on="0"/>
        <pt x="327" y="1438" on="0"/>
        <pt x="384" y="1387" on="0"/>
        <pt x="454" y="1270" on="0"/>
        <pt x="520" y="1117" on="0"/>
        <pt x="581" y="938" on="0"/>
        <pt x="637" y="750" on="0"/>
        <pt x="687" y="562" on="0"/>
        <pt x="728" y="391" on="0"/>
        <pt x="761" y="246" on="0"/>
      </contour>
    </TTGlyph>
    <TTGlyph name="W" xMin="-77" yMin="-49" xMax="2091" yMax="1459">
      <contour>
        <pt x="927" y="1302" on="1"/>
        <pt x="964" y="1327" on="0"/>
        <pt x="1117" y="1439" on="1"/>
        <pt x="1264" y="1334" on="0"/>
        <pt x="1521" y="378" on="1"/>
        <pt x="1539" y="311" on="0"/>
        <pt x="1549" y="271" on="1"/>
        <pt x="1568" y="317" on="0"/>
        <pt x="1634" y="458" on="0"/>
        <pt x="1711" y="624" on="0"/>
        <pt x="1790" y="802" on="0"/>
        <pt x="1822" y="884" on="1"/>
        <pt x="1894" y="1067" on="0"/>
        <pt x="1894" y="1141" on="1"/>
        <pt x="1894" y="1257" on="0"/>
        <pt x="1820" y="1308" on="1"/>
        <pt x="1795" y="1325" on="0"/>
        <pt x="1768" y="1325" on="1"/>
        <pt x="1724" y="1325" on="0"/>
        <pt x="1688" y="1308" on="1"/>
        <pt x="1721" y="1325" on="0"/>
        <pt x="1780" y="1376" on="0"/>
        <pt x="1810" y="1400" on="1"/>
        <pt x="1884" y="1459" on="0"/>
        <pt x="1947" y="1459" on="1"/>
        <pt x="2011" y="1459" on="0"/>
        <pt x="2052" y="1408" on="1"/>
        <pt x="2091" y="1362" on="0"/>
        <pt x="2091" y="1295" on="1"/>
        <pt x="2091" y="1175" on="0"/>
        <pt x="1792" y="514" on="1"/>
        <pt x="1690" y="288" on="0"/>
        <pt x="1664" y="222" on="0"/>
        <pt x="1651" y="192" on="1"/>
        <pt x="1620" y="122" on="0"/>
        <pt x="1590" y="80" on="0"/>
        <pt x="1537" y="42" on="0"/>
        <pt x="1473" y="-1" on="0"/>
        <pt x="1413" y="-40" on="0"/>
        <pt x="1401" y="-49" on="1"/>
        <pt x="1371" y="69" on="0"/>
        <pt x="1312" y="305" on="0"/>
        <pt x="1280" y="422" on="1"/>
        <pt x="1213" y="671" on="0"/>
        <pt x="1135" y="884" on="1"/>
        <pt x="1065" y="694" on="0"/>
        <pt x="857" y="238" on="0"/>
        <pt x="810" y="128" on="0"/>
        <pt x="781" y="87" on="1"/>
        <pt x="769" y="71" on="0"/>
        <pt x="599" y="-40" on="0"/>
        <pt x="587" y="-49" on="1"/>
        <pt x="576" y="-3" on="0"/>
        <pt x="540" y="162" on="0"/>
        <pt x="492" y="372" on="0"/>
        <pt x="432" y="608" on="0"/>
        <pt x="360" y="842" on="0"/>
        <pt x="278" y="1056" on="0"/>
        <pt x="232" y="1138" on="1"/>
        <pt x="132" y="1317" on="0"/>
        <pt x="31" y="1317" on="1"/>
        <pt x="-20" y="1317" on="0"/>
        <pt x="-77" y="1284" on="1"/>
        <pt x="20" y="1385" on="0"/>
        <pt x="156" y="1438" on="1"/>
        <pt x="201" y="1456" on="0"/>
        <pt x="234" y="1456" on="1"/>
        <pt x="321" y="1456" on="0"/>
        <pt x="396" y="1336" on="1"/>
        <pt x="462" y="1228" on="0"/>
        <pt x="552" y="969" on="0"/>
        <pt x="606" y="792" on="0"/>
        <pt x="654" y="615" on="0"/>
        <pt x="674" y="534" on="1"/>
        <pt x="704" y="418" on="0"/>
        <pt x="738" y="269" on="1"/>
        <pt x="761" y="322" on="0"/>
        <pt x="820" y="452" on="0"/>
        <pt x="881" y="593" on="0"/>
        <pt x="939" y="741" on="0"/>
        <pt x="962" y="813" on="1"/>
        <pt x="1012" y="975" on="0"/>
        <pt x="1012" y="1076" on="1"/>
        <pt x="1012" y="1222" on="0"/>
      </contour>
    </TTGlyph>
    <TTGlyph name="Wacute" xMin="-77" yMin="-49" xMax="2091" yMax="1925">
      <component glyphName="W" x="0" y="0" flags="0x1204"/>
      <component glyphName="acute" x="968" y="222" flags="0x1004"/>
    </TTGlyph>
    <TTGlyph name="Wcircumflex" xMin="-77" yMin="-49" xMax="2091" yMax="1874">
      <component glyphName="W" x="0" y="0" flags="0x1204"/>
      <component glyphName="circumflex" x="752" y="246" flags="0x1004"/>
    </TTGlyph>
    <TTGlyph name="Wdieresis" xMin="-77" yMin="-49" xMax="2091" yMax="1752">
      <component glyphName="W" x="0" y="0" flags="0x1204"/>
      <component glyphName="dieresis" x="682" y="230" flags="0x1004"/>
    </TTGlyph>
    <TTGlyph name="Wgrave" xMin="-77" yMin="-49" xMax="2091" yMax="1923">
      <component glyphName="W" x="0" y="0" flags="0x1204"/>
      <component glyphName="grave" x="697" y="217" flags="0x1004"/>
    </TTGlyph>
    <TTGlyph name="X" xMin="-13" yMin="-21" xMax="1632" yMax="1458">
      <contour>
        <pt x="1310" y="1304" on="1"/>
        <pt x="1135" y="1102" on="0"/>
        <pt x="888" y="837" on="1"/>
        <pt x="1365" y="166" on="0"/>
        <pt x="1418" y="137" on="1"/>
        <pt x="1457" y="113" on="0"/>
        <pt x="1483" y="113" on="1"/>
        <pt x="1527" y="113" on="0"/>
        <pt x="1623" y="161" on="1"/>
        <pt x="1441" y="-21" on="0"/>
        <pt x="1310" y="-21" on="1"/>
        <pt x="1237" y="-21" on="0"/>
        <pt x="1182" y="42" on="1"/>
        <pt x="1132" y="97" on="0"/>
        <pt x="984" y="300" on="0"/>
        <pt x="948" y="349" on="1"/>
        <pt x="873" y="451" on="0"/>
        <pt x="721" y="665" on="1"/>
        <pt x="188" y="137" on="1"/>
        <pt x="550" y="137" on="1"/>
        <pt x="528" y="128" on="0"/>
        <pt x="423" y="36" on="0"/>
        <pt x="373" y="1" on="0"/>
        <pt x="355" y="1" on="1"/>
        <pt x="-13" y="1" on="1"/>
        <pt x="696" y="699" on="1"/>
        <pt x="592" y="842" on="0"/>
        <pt x="503" y="961" on="0"/>
        <pt x="452" y="1030" on="0"/>
        <pt x="404" y="1094" on="0"/>
        <pt x="364" y="1147" on="0"/>
        <pt x="318" y="1216" on="0"/>
        <pt x="290" y="1246" on="1"/>
        <pt x="223" y="1319" on="0"/>
        <pt x="159" y="1319" on="1"/>
        <pt x="112" y="1319" on="0"/>
        <pt x="34" y="1280" on="1"/>
        <pt x="183" y="1415" on="0"/>
        <pt x="308" y="1450" on="1"/>
        <pt x="336" y="1458" on="0"/>
        <pt x="393" y="1458" on="0"/>
        <pt x="442" y="1430" on="0"/>
        <pt x="483" y="1387" on="0"/>
        <pt x="517" y="1336" on="0"/>
        <pt x="555" y="1288" on="0"/>
        <pt x="604" y="1221" on="0"/>
        <pt x="658" y="1149" on="0"/>
        <pt x="712" y="1075" on="0"/>
        <pt x="798" y="960" on="0"/>
        <pt x="860" y="876" on="1"/>
        <pt x="1060" y="1123" on="0"/>
        <pt x="1227" y="1304" on="1"/>
        <pt x="981" y="1304" on="1"/>
        <pt x="999" y="1309" on="0"/>
        <pt x="1103" y="1400" on="0"/>
        <pt x="1157" y="1440" on="0"/>
        <pt x="1176" y="1440" on="1"/>
        <pt x="1632" y="1440" on="1"/>
        <pt x="1614" y="1435" on="0"/>
        <pt x="1510" y="1344" on="0"/>
        <pt x="1456" y="1304" on="0"/>
        <pt x="1437" y="1304" on="1"/>
      </contour>
    </TTGlyph>
    <TTGlyph name="Y" xMin="-96" yMin="0" xMax="1182" yMax="1464">
      <contour>
        <pt x="748" y="354" on="1"/>
        <pt x="748" y="238" on="0"/>
        <pt x="678" y="135" on="1"/>
        <pt x="999" y="135" on="1"/>
        <pt x="986" y="133" on="0"/>
        <pt x="933" y="87" on="1"/>
        <pt x="832" y="0" on="0"/>
        <pt x="805" y="0" on="1"/>
        <pt x="456" y="0" on="1"/>
        <pt x="556" y="104" on="0"/>
        <pt x="556" y="257" on="1"/>
        <pt x="556" y="510" on="1"/>
        <pt x="556" y="607" on="0"/>
        <pt x="442" y="843" on="1"/>
        <pt x="323" y="1088" on="0"/>
        <pt x="194" y="1228" on="1"/>
        <pt x="98" y="1333" on="0"/>
        <pt x="26" y="1333" on="1"/>
        <pt x="-21" y="1333" on="0"/>
        <pt x="-96" y="1284" on="1"/>
        <pt x="61" y="1459" on="0"/>
        <pt x="213" y="1459" on="1"/>
        <pt x="298" y="1459" on="0"/>
        <pt x="364" y="1382" on="1"/>
        <pt x="511" y="1209" on="0"/>
        <pt x="644" y="930" on="1"/>
        <pt x="706" y="798" on="0"/>
        <pt x="735" y="696" on="1"/>
        <pt x="925" y="944" on="0"/>
        <pt x="976" y="1107" on="1"/>
        <pt x="989" y="1149" on="0"/>
        <pt x="989" y="1212" on="0"/>
        <pt x="973" y="1266" on="0"/>
        <pt x="956" y="1286" on="1"/>
        <pt x="921" y="1328" on="0"/>
        <pt x="859" y="1328" on="1"/>
        <pt x="829" y="1328" on="0"/>
        <pt x="805" y="1321" on="1"/>
        <pt x="827" y="1327" on="0"/>
        <pt x="876" y="1374" on="0"/>
        <pt x="904" y="1399" on="1"/>
        <pt x="979" y="1464" on="0"/>
        <pt x="1108" y="1464" on="0"/>
        <pt x="1182" y="1393" on="0"/>
        <pt x="1182" y="1284" on="0"/>
        <pt x="1133" y="1162" on="0"/>
        <pt x="1056" y="1029" on="0"/>
        <pt x="959" y="892" on="0"/>
        <pt x="863" y="766" on="0"/>
        <pt x="776" y="659" on="0"/>
        <pt x="748" y="623" on="1"/>
      </contour>
    </TTGlyph>
    <TTGlyph name="Yacute" xMin="-96" yMin="0" xMax="1182" yMax="1803">
      <component glyphName="Y" x="0" y="0" flags="0x1204"/>
      <component glyphName="acute" x="621" y="100" flags="0x1004"/>
    </TTGlyph>
    <TTGlyph name="Ycircumflex" xMin="-96" yMin="0" xMax="1182" yMax="1858">
      <component glyphName="Y" x="0" y="0" flags="0x1204"/>
      <component glyphName="circumflex" x="335" y="230" flags="0x1004"/>
    </TTGlyph>
    <TTGlyph name="Ydieresis" xMin="-96" yMin="0" xMax="1182" yMax="1782">
      <component glyphName="Y" x="0" y="0" flags="0x1204"/>
      <component glyphName="dieresis" x="246" y="260" flags="0x1004"/>
    </TTGlyph>
    <TTGlyph name="Ygrave" xMin="-96" yMin="0" xMax="1182" yMax="1940">
      <component glyphName="Y" x="0" y="0" flags="0x1204"/>
      <component glyphName="grave" x="335" y="234" flags="0x1004"/>
    </TTGlyph>
    <TTGlyph name="Z" xMin="0" yMin="0" xMax="1219" yMax="1446">
      <contour>
        <pt x="543" y="149" on="1"/>
        <pt x="1027" y="135" on="1"/>
        <pt x="1102" y="135" on="0"/>
        <pt x="1219" y="187" on="1"/>
        <pt x="1118" y="62" on="0"/>
        <pt x="971" y="16" on="1"/>
        <pt x="922" y="0" on="0"/>
        <pt x="875" y="0" on="1"/>
        <pt x="0" y="0" on="1"/>
        <pt x="192" y="164" on="0"/>
        <pt x="481" y="626" on="1"/>
        <pt x="522" y="692" on="0"/>
        <pt x="580" y="784" on="0"/>
        <pt x="637" y="880" on="0"/>
        <pt x="701" y="985" on="0"/>
        <pt x="770" y="1093" on="0"/>
        <pt x="804" y="1142" on="1"/>
        <pt x="879" y="1252" on="0"/>
        <pt x="933" y="1302" on="1"/>
        <pt x="863" y="1294" on="0"/>
        <pt x="758" y="1294" on="1"/>
        <pt x="275" y="1310" on="1"/>
        <pt x="169" y="1310" on="0"/>
        <pt x="97" y="1302" on="1"/>
        <pt x="111" y="1313" on="0"/>
        <pt x="164" y="1356" on="0"/>
        <pt x="193" y="1378" on="1"/>
        <pt x="265" y="1433" on="0"/>
        <pt x="335" y="1446" on="0"/>
        <pt x="380" y="1446" on="1"/>
        <pt x="469" y="1446" on="1"/>
        <pt x="952" y="1430" on="1"/>
        <pt x="1057" y="1430" on="0"/>
        <pt x="1129" y="1438" on="1"/>
        <pt x="1058" y="1374" on="0"/>
        <pt x="935" y="1175" on="1"/>
        <pt x="870" y="1074" on="0"/>
        <pt x="745" y="873" on="0"/>
        <pt x="627" y="686" on="0"/>
        <pt x="518" y="512" on="0"/>
        <pt x="458" y="429" on="1"/>
        <pt x="323" y="242" on="0"/>
        <pt x="185" y="125" on="1"/>
        <pt x="363" y="149" on="0"/>
      </contour>
    </TTGlyph>
    <TTGlyph name="Zacute" xMin="0" yMin="0" xMax="1219" yMax="1945">
      <component glyphName="Z" x="0" y="0" flags="0x1204"/>
      <component glyphName="acute" x="575" y="242" flags="0x1004"/>
    </TTGlyph>
    <TTGlyph name="Zcaron" xMin="0" yMin="0" xMax="1219" yMax="1921">
      <component glyphName="Z" x="0" y="0" flags="0x1204"/>
      <component glyphName="caron" x="328" y="293" flags="0x1004"/>
    </TTGlyph>
    <TTGlyph name="Zdotaccent" xMin="0" yMin="0" xMax="1219" yMax="1802">
      <component glyphName="Z" x="0" y="0" flags="0x1204"/>
      <component glyphName="dotaccent" x="450" y="280" flags="0x1004"/>
    </TTGlyph>
    <TTGlyph name="a" xMin="34" yMin="-18" xMax="906" yMax="1001">
      <contour>
        <pt x="753" y="296" on="1"/>
        <pt x="751" y="226" on="1"/>
        <pt x="751" y="148" on="0"/>
        <pt x="795" y="127" on="1"/>
        <pt x="812" y="119" on="0"/>
        <pt x="834" y="119" on="1"/>
        <pt x="869" y="119" on="0"/>
        <pt x="906" y="135" on="1"/>
        <pt x="868" y="119" on="0"/>
        <pt x="812" y="67" on="0"/>
        <pt x="783" y="42" on="1"/>
        <pt x="711" y="-18" on="0"/>
        <pt x="638" y="-18" on="1"/>
        <pt x="565" y="-18" on="0"/>
        <pt x="560" y="66" on="1"/>
        <pt x="558" y="88" on="0"/>
        <pt x="558" y="110" on="1"/>
        <pt x="378" y="-15" on="0"/>
        <pt x="228" y="-15" on="1"/>
        <pt x="101" y="-15" on="0"/>
        <pt x="52" y="62" on="1"/>
        <pt x="34" y="90" on="0"/>
        <pt x="34" y="188" on="0"/>
        <pt x="94" y="287" on="0"/>
        <pt x="140" y="328" on="1"/>
        <pt x="222" y="404" on="0"/>
        <pt x="338" y="453" on="1"/>
        <pt x="424" y="490" on="0"/>
        <pt x="559" y="495" on="1"/>
        <pt x="559" y="539" on="1"/>
        <pt x="559" y="698" on="0"/>
        <pt x="501" y="810" on="0"/>
        <pt x="409" y="863" on="0"/>
        <pt x="347" y="863" on="1"/>
        <pt x="242" y="863" on="0"/>
        <pt x="162" y="822" on="1"/>
        <pt x="272" y="913" on="0"/>
        <pt x="323" y="942" on="1"/>
        <pt x="428" y="1001" on="0"/>
        <pt x="599" y="1001" on="0"/>
        <pt x="685" y="951" on="0"/>
        <pt x="710" y="910" on="1"/>
        <pt x="753" y="838" on="0"/>
        <pt x="753" y="703" on="1"/>
      </contour>
      <contour>
        <pt x="307" y="135" on="0"/>
        <pt x="371" y="119" on="0"/>
        <pt x="497" y="119" on="0"/>
        <pt x="559" y="149" on="1"/>
        <pt x="559" y="359" on="1"/>
        <pt x="397" y="359" on="1"/>
        <pt x="310" y="359" on="0"/>
        <pt x="245" y="347" on="1"/>
        <pt x="232" y="304" on="0"/>
        <pt x="232" y="226" on="0"/>
        <pt x="259" y="170" on="0"/>
      </contour>
    </TTGlyph>
    <TTGlyph name="aacute" xMin="34" yMin="-18" xMax="906" yMax="1491">
      <component glyphName="a" x="0" y="0" flags="0x1204"/>
      <component glyphName="acute" x="278" y="-212" flags="0x1004"/>
    </TTGlyph>
    <TTGlyph name="abreve" xMin="34" yMin="-18" xMax="906" yMax="1459">
      <component glyphName="a" x="0" y="0" flags="0x1204"/>
      <component glyphName="breve" x="81" y="-168" flags="0x1004"/>
    </TTGlyph>
    <TTGlyph name="acircumflex" xMin="34" yMin="-18" xMax="906" yMax="1458">
      <component glyphName="a" x="0" y="0" flags="0x1204"/>
      <component glyphName="circumflex" x="189" y="-170" flags="0x1004"/>
    </TTGlyph>
    <TTGlyph name="acute" xMin="2" yMin="1247" xMax="483" yMax="1703">
      <contour>
        <pt x="2" y="1247" on="1"/>
        <pt x="2" y="1259" on="1"/>
        <pt x="81" y="1311" on="0"/>
        <pt x="139" y="1378" on="1"/>
        <pt x="209" y="1459" on="0"/>
        <pt x="294" y="1574" on="1"/>
        <pt x="295" y="1576" on="0"/>
        <pt x="407" y="1658" on="0"/>
        <pt x="419" y="1667" on="0"/>
        <pt x="445" y="1681" on="0"/>
        <pt x="469" y="1695" on="0"/>
        <pt x="483" y="1703" on="1"/>
        <pt x="456" y="1668" on="0"/>
        <pt x="397" y="1587" on="0"/>
        <pt x="349" y="1534" on="1"/>
        <pt x="244" y="1418" on="0"/>
        <pt x="51" y="1274" on="0"/>
      </contour>
    </TTGlyph>
    <TTGlyph name="adieresis" xMin="34" yMin="-18" xMax="906" yMax="1382">
      <component glyphName="a" x="0" y="0" flags="0x1204"/>
      <component glyphName="dieresis" x="69" y="-140" flags="0x1004"/>
    </TTGlyph>
    <TTGlyph name="ae" xMin="36" yMin="-15" xMax="1321" yMax="1001">
      <contour>
        <pt x="532" y="1001" on="1"/>
        <pt x="724" y="1001" on="0"/>
        <pt x="750" y="793" on="1"/>
        <pt x="868" y="918" on="0"/>
        <pt x="1000" y="964" on="1"/>
        <pt x="1049" y="980" on="0"/>
        <pt x="1129" y="980" on="0"/>
        <pt x="1180" y="956" on="0"/>
        <pt x="1198" y="936" on="1"/>
        <pt x="1237" y="893" on="0"/>
        <pt x="1237" y="783" on="0"/>
        <pt x="1189" y="690" on="0"/>
        <pt x="1112" y="602" on="0"/>
        <pt x="1013" y="521" on="0"/>
        <pt x="962" y="486" on="1"/>
        <pt x="888" y="436" on="0"/>
        <pt x="777" y="373" on="1"/>
        <pt x="809" y="252" on="0"/>
        <pt x="972" y="121" on="0"/>
        <pt x="1099" y="121" on="1"/>
        <pt x="1216" y="121" on="0"/>
        <pt x="1321" y="185" on="1"/>
        <pt x="1203" y="45" on="0"/>
        <pt x="1004" y="0" on="1"/>
        <pt x="942" y="-14" on="0"/>
        <pt x="883" y="-14" on="1"/>
        <pt x="708" y="-14" on="0"/>
        <pt x="621" y="149" on="1"/>
        <pt x="574" y="120" on="0"/>
        <pt x="484" y="62" on="0"/>
        <pt x="436" y="38" on="1"/>
        <pt x="328" y="-15" on="0"/>
        <pt x="230" y="-15" on="1"/>
        <pt x="102" y="-15" on="0"/>
        <pt x="54" y="63" on="1"/>
        <pt x="36" y="91" on="0"/>
        <pt x="36" y="187" on="0"/>
        <pt x="96" y="287" on="0"/>
        <pt x="142" y="328" on="1"/>
        <pt x="282" y="456" on="0"/>
        <pt x="448" y="484" on="1"/>
        <pt x="503" y="493" on="0"/>
        <pt x="561" y="495" on="1"/>
        <pt x="561" y="539" on="1"/>
        <pt x="561" y="698" on="0"/>
        <pt x="503" y="810" on="0"/>
        <pt x="411" y="863" on="0"/>
        <pt x="349" y="863" on="1"/>
        <pt x="244" y="863" on="0"/>
        <pt x="164" y="822" on="1"/>
        <pt x="266" y="909" on="0"/>
        <pt x="322" y="940" on="1"/>
        <pt x="432" y="1001" on="0"/>
      </contour>
      <contour>
        <pt x="992" y="544" on="0"/>
        <pt x="1046" y="629" on="0"/>
        <pt x="1046" y="710" on="0"/>
        <pt x="1028" y="767" on="0"/>
        <pt x="1010" y="790" on="1"/>
        <pt x="971" y="840" on="0"/>
        <pt x="910" y="840" on="1"/>
        <pt x="758" y="840" on="0"/>
        <pt x="758" y="530" on="1"/>
        <pt x="758" y="475" on="0"/>
        <pt x="767" y="421" on="1"/>
        <pt x="871" y="449" on="0"/>
      </contour>
      <contour>
        <pt x="561" y="231" on="1"/>
        <pt x="561" y="359" on="1"/>
        <pt x="402" y="359" on="1"/>
        <pt x="304" y="359" on="0"/>
        <pt x="247" y="347" on="1"/>
        <pt x="234" y="304" on="0"/>
        <pt x="234" y="226" on="0"/>
        <pt x="261" y="170" on="0"/>
        <pt x="285" y="152" on="1"/>
        <pt x="331" y="119" on="0"/>
        <pt x="410" y="119" on="1"/>
        <pt x="461" y="119" on="0"/>
        <pt x="496" y="141" on="1"/>
        <pt x="561" y="182" on="0"/>
      </contour>
    </TTGlyph>
    <TTGlyph name="aeacute" xMin="36" yMin="-15" xMax="1321" yMax="1519">
      <component glyphName="ae" x="0" y="0" flags="0x1204"/>
      <component glyphName="acute" x="707" y="-184" flags="0x1004"/>
    </TTGlyph>
    <TTGlyph name="agrave" xMin="34" yMin="-18" xMax="906" yMax="1544">
      <component glyphName="a" x="0" y="0" flags="0x1204"/>
      <component glyphName="grave" x="173" y="-162" flags="0x1004"/>
    </TTGlyph>
    <TTGlyph name="amacron" xMin="7" yMin="-18" xMax="923" yMax="1249">
      <component glyphName="a" x="0" y="0" flags="0x1204"/>
      <component glyphName="macron" x="7" y="-214" flags="0x1004"/>
    </TTGlyph>
    <TTGlyph name="ampersand" xMin="103" yMin="-22" xMax="2150" yMax="1470">
      <contour>
        <pt x="1415" y="442" on="1"/>
        <pt x="1539" y="625" on="0"/>
        <pt x="1539" y="807" on="1"/>
        <pt x="1539" y="911" on="0"/>
        <pt x="1497" y="1006" on="1"/>
        <pt x="1439" y="1014" on="0"/>
        <pt x="1385" y="1014" on="1"/>
        <pt x="1264" y="1014" on="0"/>
        <pt x="1183" y="972" on="1"/>
        <pt x="1305" y="1072" on="0"/>
        <pt x="1355" y="1098" on="1"/>
        <pt x="1453" y="1149" on="0"/>
        <pt x="1573" y="1149" on="1"/>
        <pt x="1645" y="1149" on="0"/>
        <pt x="1740" y="1138" on="1"/>
        <pt x="1926" y="1115" on="0"/>
        <pt x="1981" y="1115" on="1"/>
        <pt x="2081" y="1115" on="0"/>
        <pt x="2150" y="1128" on="1"/>
        <pt x="2128" y="1121" on="0"/>
        <pt x="2066" y="1062" on="0"/>
        <pt x="2050" y="1050" on="1"/>
        <pt x="1985" y="1000" on="0"/>
        <pt x="1944" y="990" on="1"/>
        <pt x="1870" y="972" on="0"/>
        <pt x="1732" y="980" on="1"/>
        <pt x="1734" y="962" on="0"/>
        <pt x="1734" y="942" on="1"/>
        <pt x="1734" y="661" on="0"/>
        <pt x="1459" y="401" on="1"/>
        <pt x="1494" y="369" on="0"/>
        <pt x="1575" y="295" on="0"/>
        <pt x="1639" y="237" on="0"/>
        <pt x="1695" y="188" on="0"/>
        <pt x="1725" y="168" on="1"/>
        <pt x="1824" y="104" on="0"/>
        <pt x="1965" y="138" on="1"/>
        <pt x="2014" y="149" on="0"/>
        <pt x="2059" y="172" on="1"/>
        <pt x="1954" y="84" on="0"/>
        <pt x="1895" y="52" on="1"/>
        <pt x="1782" y="-12" on="0"/>
        <pt x="1678" y="-12" on="1"/>
        <pt x="1544" y="-12" on="0"/>
        <pt x="1362" y="172" on="1"/>
        <pt x="1317" y="218" on="0"/>
        <pt x="1277" y="255" on="1"/>
        <pt x="896" y="-22" on="0"/>
        <pt x="578" y="-22" on="1"/>
        <pt x="395" y="-22" on="0"/>
        <pt x="262" y="56" on="1"/>
        <pt x="103" y="148" on="0"/>
        <pt x="103" y="319" on="1"/>
        <pt x="103" y="520" on="0"/>
        <pt x="416" y="710" on="1"/>
        <pt x="460" y="737" on="0"/>
        <pt x="500" y="760" on="1"/>
        <pt x="291" y="810" on="0"/>
        <pt x="291" y="996" on="1"/>
        <pt x="291" y="1090" on="0"/>
        <pt x="391" y="1206" on="1"/>
        <pt x="484" y="1315" on="0"/>
        <pt x="613" y="1391" on="1"/>
        <pt x="747" y="1470" on="0"/>
        <pt x="840" y="1470" on="1"/>
        <pt x="959" y="1470" on="0"/>
        <pt x="1042" y="1400" on="1"/>
        <pt x="1130" y="1327" on="0"/>
        <pt x="1130" y="1210" on="1"/>
        <pt x="1130" y="1014" on="0"/>
        <pt x="872" y="847" on="1"/>
        <pt x="1055" y="775" on="0"/>
        <pt x="1292" y="555" on="1"/>
        <pt x="1355" y="496" on="0"/>
      </contour>
      <contour>
        <pt x="931" y="1082" on="1"/>
        <pt x="931" y="1126" on="0"/>
        <pt x="891" y="1226" on="0"/>
        <pt x="854" y="1262" on="1"/>
        <pt x="779" y="1335" on="0"/>
        <pt x="656" y="1335" on="1"/>
        <pt x="610" y="1335" on="0"/>
        <pt x="569" y="1325" on="1"/>
        <pt x="486" y="1225" on="0"/>
        <pt x="486" y="1124" on="1"/>
        <pt x="486" y="985" on="0"/>
        <pt x="600" y="932" on="1"/>
        <pt x="658" y="906" on="0"/>
        <pt x="789" y="876" on="0"/>
        <pt x="826" y="864" on="1"/>
        <pt x="931" y="884" on="0"/>
      </contour>
      <contour>
        <pt x="1263" y="268" on="1"/>
        <pt x="1192" y="334" on="0"/>
        <pt x="1046" y="472" on="0"/>
        <pt x="968" y="535" on="1"/>
        <pt x="787" y="680" on="0"/>
        <pt x="624" y="730" on="1"/>
        <pt x="563" y="715" on="0"/>
        <pt x="445" y="689" on="0"/>
        <pt x="399" y="663" on="1"/>
        <pt x="297" y="605" on="0"/>
        <pt x="297" y="466" on="1"/>
        <pt x="297" y="245" on="0"/>
        <pt x="546" y="152" on="1"/>
        <pt x="645" y="115" on="0"/>
        <pt x="815" y="115" on="0"/>
        <pt x="954" y="135" on="0"/>
        <pt x="1022" y="154" on="1"/>
        <pt x="1177" y="197" on="0"/>
      </contour>
    </TTGlyph>
    <TTGlyph name="aogonek" xMin="34" yMin="-471" xMax="970" yMax="1001">
      <contour>
        <pt x="753" y="296" on="1"/>
        <pt x="751" y="226" on="1"/>
        <pt x="751" y="148" on="0"/>
        <pt x="795" y="127" on="1"/>
        <pt x="812" y="119" on="0"/>
        <pt x="834" y="119" on="1"/>
        <pt x="868" y="119" on="0"/>
        <pt x="901" y="133" on="1"/>
        <pt x="867" y="117" on="0"/>
        <pt x="814" y="70" on="0"/>
        <pt x="787" y="46" on="1"/>
        <pt x="721" y="-11" on="0"/>
        <pt x="658" y="-17" on="1"/>
        <pt x="609" y="-86" on="0"/>
        <pt x="609" y="-190" on="0"/>
        <pt x="638" y="-255" on="0"/>
        <pt x="662" y="-280" on="1"/>
        <pt x="715" y="-334" on="0"/>
        <pt x="787" y="-334" on="1"/>
        <pt x="837" y="-334" on="0"/>
        <pt x="927" y="-277" on="1"/>
        <pt x="949" y="-263" on="0"/>
        <pt x="970" y="-253" on="1"/>
        <pt x="970" y="-254" on="1"/>
        <pt x="970" y="-274" on="0"/>
        <pt x="776" y="-398" on="1"/>
        <pt x="662" y="-471" on="0"/>
        <pt x="589" y="-471" on="1"/>
        <pt x="522" y="-471" on="0"/>
        <pt x="470" y="-415" on="1"/>
        <pt x="420" y="-361" on="0"/>
        <pt x="420" y="-292" on="1"/>
        <pt x="420" y="-138" on="0"/>
        <pt x="598" y="-9" on="1"/>
        <pt x="558" y="11" on="0"/>
        <pt x="558" y="110" on="1"/>
        <pt x="378" y="-15" on="0"/>
        <pt x="228" y="-15" on="1"/>
        <pt x="101" y="-15" on="0"/>
        <pt x="52" y="62" on="1"/>
        <pt x="34" y="90" on="0"/>
        <pt x="34" y="188" on="0"/>
        <pt x="94" y="287" on="0"/>
        <pt x="140" y="328" on="1"/>
        <pt x="222" y="404" on="0"/>
        <pt x="338" y="453" on="1"/>
        <pt x="424" y="490" on="0"/>
        <pt x="559" y="495" on="1"/>
        <pt x="559" y="539" on="1"/>
        <pt x="559" y="698" on="0"/>
        <pt x="501" y="810" on="0"/>
        <pt x="409" y="863" on="0"/>
        <pt x="347" y="863" on="1"/>
        <pt x="242" y="863" on="0"/>
        <pt x="162" y="822" on="1"/>
        <pt x="272" y="913" on="0"/>
        <pt x="323" y="942" on="1"/>
        <pt x="428" y="1001" on="0"/>
        <pt x="599" y="1001" on="0"/>
        <pt x="685" y="951" on="0"/>
        <pt x="710" y="910" on="1"/>
        <pt x="753" y="838" on="0"/>
        <pt x="753" y="703" on="1"/>
      </contour>
      <contour>
        <pt x="307" y="135" on="0"/>
        <pt x="371" y="119" on="0"/>
        <pt x="497" y="119" on="0"/>
        <pt x="559" y="149" on="1"/>
        <pt x="559" y="359" on="1"/>
        <pt x="397" y="359" on="1"/>
        <pt x="310" y="359" on="0"/>
        <pt x="245" y="347" on="1"/>
        <pt x="232" y="304" on="0"/>
        <pt x="232" y="226" on="0"/>
        <pt x="259" y="170" on="0"/>
      </contour>
      <contour>
        <pt x="906" y="135" on="1"/>
        <pt x="902" y="133" on="0"/>
        <pt x="901" y="133" on="1"/>
        <pt x="902" y="133" on="0"/>
      </contour>
    </TTGlyph>
    <TTGlyph name="approxequal" xMin="130" yMin="161" xMax="1049" yMax="917">
      <contour>
        <pt x="369" y="779" on="1"/>
        <pt x="356" y="778" on="1"/>
        <pt x="346" y="764" on="0"/>
        <pt x="312" y="704" on="0"/>
        <pt x="254" y="665" on="0"/>
        <pt x="222" y="648" on="1"/>
        <pt x="138" y="602" on="0"/>
        <pt x="130" y="589" on="1"/>
        <pt x="182" y="689" on="0"/>
        <pt x="314" y="797" on="1"/>
        <pt x="459" y="916" on="0"/>
        <pt x="558" y="916" on="1"/>
        <pt x="600" y="916" on="0"/>
        <pt x="669" y="864" on="0"/>
        <pt x="710" y="828" on="0"/>
        <pt x="732" y="812" on="1"/>
        <pt x="784" y="776" on="0"/>
        <pt x="837" y="776" on="1"/>
        <pt x="846" y="776" on="0"/>
        <pt x="850" y="777" on="1"/>
        <pt x="880" y="817" on="0"/>
        <pt x="985" y="872" on="0"/>
        <pt x="1035" y="899" on="0"/>
        <pt x="1049" y="917" on="1"/>
        <pt x="976" y="826" on="0"/>
        <pt x="866" y="740" on="1"/>
        <pt x="735" y="639" on="0"/>
        <pt x="642" y="639" on="1"/>
        <pt x="601" y="639" on="0"/>
        <pt x="537" y="683" on="0"/>
        <pt x="476" y="735" on="0"/>
        <pt x="411" y="779" on="0"/>
      </contour>
      <contour>
        <pt x="1049" y="490" on="1"/>
        <pt x="934" y="346" on="0"/>
        <pt x="790" y="262" on="1"/>
        <pt x="705" y="212" on="0"/>
        <pt x="642" y="212" on="1"/>
        <pt x="584" y="212" on="0"/>
        <pt x="429" y="351" on="0"/>
        <pt x="369" y="351" on="1"/>
        <pt x="361" y="351" on="0"/>
        <pt x="356" y="350" on="1"/>
        <pt x="346" y="336" on="0"/>
        <pt x="312" y="277" on="0"/>
        <pt x="254" y="238" on="0"/>
        <pt x="222" y="220" on="1"/>
        <pt x="138" y="174" on="0"/>
        <pt x="130" y="161" on="1"/>
        <pt x="178" y="257" on="0"/>
        <pt x="314" y="370" on="1"/>
        <pt x="457" y="489" on="0"/>
        <pt x="558" y="489" on="1"/>
        <pt x="600" y="489" on="0"/>
        <pt x="669" y="437" on="0"/>
        <pt x="710" y="401" on="0"/>
        <pt x="732" y="386" on="1"/>
        <pt x="784" y="349" on="0"/>
        <pt x="837" y="349" on="1"/>
        <pt x="846" y="349" on="0"/>
        <pt x="850" y="350" on="1"/>
        <pt x="882" y="391" on="0"/>
        <pt x="985" y="445" on="0"/>
        <pt x="1035" y="472" on="0"/>
      </contour>
    </TTGlyph>
    <TTGlyph name="aring" xMin="34" yMin="-18" xMax="906" yMax="1611">
      <component glyphName="a" x="0" y="0" flags="0x1204"/>
      <component glyphName="ring" x="165" y="-103" flags="0x1004"/>
    </TTGlyph>
    <TTGlyph name="asciicircum" xMin="0" yMin="738" xMax="665" yMax="1408">
      <contour>
        <pt x="665" y="874" on="1"/>
        <pt x="667" y="868" on="0"/>
        <pt x="641" y="845" on="0"/>
        <pt x="598" y="816" on="0"/>
        <pt x="547" y="786" on="0"/>
        <pt x="524" y="773" on="1"/>
        <pt x="471" y="742" on="0"/>
        <pt x="470" y="738" on="1"/>
        <pt x="311" y="1123" on="1"/>
        <pt x="194" y="874" on="1"/>
        <pt x="180" y="843" on="0"/>
        <pt x="95" y="798" on="1"/>
        <pt x="7" y="753" on="0"/>
        <pt x="0" y="738" on="1"/>
        <pt x="250" y="1272" on="1"/>
        <pt x="257" y="1290" on="0"/>
        <pt x="330" y="1335" on="1"/>
        <pt x="424" y="1393" on="0"/>
        <pt x="444" y="1408" on="1"/>
      </contour>
    </TTGlyph>
    <TTGlyph name="asciitilde" xMin="104" yMin="557" xMax="1023" yMax="886">
      <contour>
        <pt x="811" y="744" on="1"/>
        <pt x="824" y="745" on="1"/>
        <pt x="855" y="786" on="0"/>
        <pt x="959" y="841" on="0"/>
        <pt x="1009" y="868" on="0"/>
        <pt x="1023" y="886" on="1"/>
        <pt x="908" y="742" on="0"/>
        <pt x="764" y="658" on="1"/>
        <pt x="679" y="608" on="0"/>
        <pt x="616" y="608" on="1"/>
        <pt x="558" y="608" on="0"/>
        <pt x="403" y="747" on="0"/>
        <pt x="343" y="747" on="1"/>
        <pt x="335" y="747" on="0"/>
        <pt x="330" y="746" on="1"/>
        <pt x="320" y="732" on="0"/>
        <pt x="286" y="673" on="0"/>
        <pt x="228" y="634" on="0"/>
        <pt x="196" y="616" on="1"/>
        <pt x="112" y="570" on="0"/>
        <pt x="104" y="557" on="1"/>
        <pt x="152" y="653" on="0"/>
        <pt x="288" y="766" on="1"/>
        <pt x="431" y="885" on="0"/>
        <pt x="532" y="885" on="1"/>
        <pt x="571" y="885" on="0"/>
        <pt x="632" y="841" on="0"/>
        <pt x="694" y="788" on="0"/>
        <pt x="764" y="744" on="0"/>
      </contour>
    </TTGlyph>
    <TTGlyph name="asterisk" xMin="102" yMin="590" xMax="909" yMax="1444">
      <contour>
        <pt x="909" y="1096" on="1"/>
        <pt x="909" y="1062" on="0"/>
        <pt x="671" y="1001" on="1"/>
        <pt x="602" y="983" on="0"/>
        <pt x="558" y="976" on="1"/>
        <pt x="703" y="843" on="0"/>
        <pt x="822" y="789" on="1"/>
        <pt x="861" y="776" on="0"/>
        <pt x="861" y="759" on="0"/>
        <pt x="845" y="727" on="0"/>
        <pt x="819" y="687" on="0"/>
        <pt x="787" y="646" on="0"/>
        <pt x="772" y="629" on="1"/>
        <pt x="738" y="590" on="0"/>
        <pt x="712" y="590" on="0"/>
        <pt x="672" y="636" on="0"/>
        <pt x="624" y="708" on="0"/>
        <pt x="574" y="795" on="0"/>
        <pt x="552" y="836" on="1"/>
        <pt x="505" y="924" on="0"/>
        <pt x="499" y="954" on="1"/>
        <pt x="411" y="844" on="0"/>
        <pt x="350" y="717" on="1"/>
        <pt x="330" y="674" on="0"/>
        <pt x="318" y="627" on="0"/>
        <pt x="311" y="626" on="1"/>
        <pt x="285" y="624" on="0"/>
        <pt x="228" y="660" on="1"/>
        <pt x="121" y="725" on="0"/>
        <pt x="121" y="748" on="1"/>
        <pt x="121" y="782" on="0"/>
        <pt x="316" y="916" on="1"/>
        <pt x="384" y="963" on="0"/>
        <pt x="410" y="977" on="1"/>
        <pt x="294" y="1000" on="0"/>
        <pt x="142" y="1059" on="0"/>
        <pt x="102" y="1082" on="0"/>
        <pt x="102" y="1092" on="1"/>
        <pt x="102" y="1111" on="0"/>
        <pt x="139" y="1161" on="1"/>
        <pt x="208" y="1253" on="0"/>
        <pt x="229" y="1253" on="1"/>
        <pt x="235" y="1253" on="0"/>
        <pt x="260" y="1218" on="0"/>
        <pt x="316" y="1159" on="0"/>
        <pt x="348" y="1130" on="1"/>
        <pt x="407" y="1079" on="0"/>
        <pt x="475" y="1033" on="1"/>
        <pt x="449" y="1255" on="0"/>
        <pt x="381" y="1371" on="1"/>
        <pt x="374" y="1383" on="0"/>
        <pt x="374" y="1395" on="0"/>
        <pt x="399" y="1410" on="0"/>
        <pt x="438" y="1422" on="0"/>
        <pt x="484" y="1433" on="0"/>
        <pt x="506" y="1436" on="1"/>
        <pt x="552" y="1444" on="0"/>
        <pt x="581" y="1444" on="0"/>
        <pt x="597" y="1441" on="0"/>
        <pt x="600" y="1436" on="1"/>
        <pt x="605" y="1430" on="0"/>
        <pt x="605" y="1364" on="0"/>
        <pt x="595" y="1271" on="0"/>
        <pt x="586" y="1223" on="1"/>
        <pt x="567" y="1113" on="0"/>
        <pt x="548" y="1052" on="1"/>
        <pt x="707" y="1164" on="0"/>
        <pt x="766" y="1252" on="1"/>
        <pt x="772" y="1260" on="0"/>
        <pt x="788" y="1260" on="0"/>
        <pt x="832" y="1216" on="0"/>
        <pt x="854" y="1188" on="1"/>
        <pt x="909" y="1118" on="0"/>
      </contour>
    </TTGlyph>
    <TTGlyph name="at" xMin="102" yMin="-250" xMax="1443" yMax="1148">
      <contour>
        <pt x="929" y="790" on="1"/>
        <pt x="994" y="790" on="0"/>
        <pt x="1041" y="743" on="1"/>
        <pt x="1053" y="752" on="0"/>
        <pt x="1090" y="773" on="1"/>
        <pt x="1157" y="811" on="0"/>
        <pt x="1162" y="821" on="1"/>
        <pt x="1149" y="753" on="0"/>
        <pt x="1114" y="618" on="0"/>
        <pt x="1098" y="550" on="1"/>
        <pt x="1061" y="385" on="0"/>
        <pt x="1061" y="276" on="1"/>
        <pt x="1061" y="240" on="0"/>
        <pt x="1099" y="200" on="0"/>
        <pt x="1135" y="202" on="1"/>
        <pt x="1248" y="393" on="0"/>
        <pt x="1248" y="601" on="1"/>
        <pt x="1248" y="777" on="0"/>
        <pt x="1142" y="889" on="1"/>
        <pt x="1032" y="1005" on="0"/>
        <pt x="860" y="1005" on="1"/>
        <pt x="627" y="1005" on="0"/>
        <pt x="458" y="812" on="1"/>
        <pt x="358" y="697" on="0"/>
        <pt x="319" y="546" on="1"/>
        <pt x="300" y="472" on="0"/>
        <pt x="300" y="304" on="0"/>
        <pt x="348" y="122" on="0"/>
        <pt x="398" y="50" on="1"/>
        <pt x="511" y="-108" on="0"/>
        <pt x="709" y="-114" on="1"/>
        <pt x="695" y="-118" on="0"/>
        <pt x="637" y="-167" on="0"/>
        <pt x="597" y="-201" on="0"/>
        <pt x="578" y="-216" on="1"/>
        <pt x="537" y="-250" on="0"/>
        <pt x="514" y="-250" on="1"/>
        <pt x="325" y="-250" on="0"/>
        <pt x="208" y="-90" on="1"/>
        <pt x="102" y="54" on="0"/>
        <pt x="102" y="250" on="1"/>
        <pt x="102" y="595" on="0"/>
        <pt x="383" y="832" on="1"/>
        <pt x="573" y="992" on="0"/>
        <pt x="794" y="1082" on="1"/>
        <pt x="954" y="1148" on="0"/>
        <pt x="1164" y="1148" on="0"/>
        <pt x="1302" y="1076" on="0"/>
        <pt x="1348" y="1016" on="1"/>
        <pt x="1443" y="894" on="0"/>
        <pt x="1443" y="719" on="1"/>
        <pt x="1443" y="596" on="0"/>
        <pt x="1373" y="442" on="1"/>
        <pt x="1258" y="191" on="0"/>
        <pt x="1076" y="97" on="1"/>
        <pt x="1013" y="65" on="0"/>
        <pt x="947" y="65" on="1"/>
        <pt x="857" y="65" on="0"/>
        <pt x="868" y="182" on="1"/>
        <pt x="736" y="83" on="0"/>
        <pt x="543" y="83" on="0"/>
        <pt x="428" y="197" on="0"/>
        <pt x="428" y="298" on="1"/>
        <pt x="428" y="414" on="0"/>
        <pt x="504" y="531" on="1"/>
        <pt x="576" y="643" on="0"/>
        <pt x="689" y="715" on="1"/>
        <pt x="807" y="790" on="0"/>
      </contour>
      <contour>
        <pt x="758" y="651" on="1"/>
        <pt x="656" y="657" on="0"/>
        <pt x="631" y="510" on="1"/>
        <pt x="625" y="474" on="0"/>
        <pt x="625" y="440" on="1"/>
        <pt x="625" y="334" on="0"/>
        <pt x="737" y="221" on="0"/>
        <pt x="841" y="221" on="1"/>
        <pt x="867" y="221" on="0"/>
        <pt x="890" y="304" on="1"/>
        <pt x="909" y="374" on="0"/>
        <pt x="909" y="413" on="1"/>
        <pt x="909" y="508" on="0"/>
        <pt x="839" y="644" on="0"/>
      </contour>
    </TTGlyph>
    <TTGlyph name="atilde" xMin="10" yMin="-18" xMax="935" yMax="1364">
      <component glyphName="a" x="2" y="0" flags="0x1204"/>
      <component glyphName="tilde" x="10" y="-159" flags="0x1004"/>
    </TTGlyph>
    <TTGlyph name="b" xMin="-30" yMin="-32" xMax="1051" yMax="1707">
      <contour>
        <pt x="338" y="807" on="1"/>
        <pt x="540" y="982" on="0"/>
        <pt x="706" y="982" on="1"/>
        <pt x="876" y="982" on="0"/>
        <pt x="970" y="848" on="1"/>
        <pt x="1051" y="732" on="0"/>
        <pt x="1051" y="557" on="1"/>
        <pt x="1051" y="423" on="0"/>
        <pt x="964" y="284" on="1"/>
        <pt x="879" y="149" on="0"/>
        <pt x="750" y="61" on="1"/>
        <pt x="612" y="-32" on="0"/>
        <pt x="478" y="-32" on="1"/>
        <pt x="337" y="-32" on="0"/>
        <pt x="240" y="65" on="1"/>
        <pt x="144" y="161" on="0"/>
        <pt x="144" y="303" on="1"/>
        <pt x="144" y="1294" on="1"/>
        <pt x="144" y="1379" on="0"/>
        <pt x="135" y="1407" on="1"/>
        <pt x="114" y="1471" on="0"/>
        <pt x="53" y="1471" on="1"/>
        <pt x="36" y="1471" on="0"/>
        <pt x="-14" y="1459" on="0"/>
        <pt x="-30" y="1456" on="1"/>
        <pt x="69" y="1533" on="0"/>
        <pt x="169" y="1599" on="0"/>
        <pt x="279" y="1676" on="0"/>
        <pt x="338" y="1707" on="1"/>
      </contour>
      <contour>
        <pt x="849" y="292" on="1"/>
        <pt x="859" y="352" on="0"/>
        <pt x="859" y="498" on="0"/>
        <pt x="822" y="651" on="0"/>
        <pt x="782" y="712" on="1"/>
        <pt x="692" y="848" on="0"/>
        <pt x="528" y="848" on="1"/>
        <pt x="441" y="848" on="0"/>
        <pt x="387" y="766" on="1"/>
        <pt x="338" y="691" on="0"/>
        <pt x="338" y="597" on="1"/>
        <pt x="338" y="350" on="1"/>
        <pt x="338" y="238" on="0"/>
        <pt x="419" y="166" on="1"/>
        <pt x="499" y="94" on="0"/>
        <pt x="620" y="94" on="1"/>
        <pt x="816" y="94" on="0"/>
      </contour>
    </TTGlyph>
    <TTGlyph name="backslash" xMin="97" yMin="0" xMax="884" yMax="1439">
      <contour>
        <pt x="884" y="136" on="1"/>
        <pt x="701" y="0" on="0"/>
        <pt x="690" y="0" on="1"/>
        <pt x="689" y="0" on="0"/>
        <pt x="673" y="28" on="0"/>
        <pt x="652" y="65" on="0"/>
        <pt x="636" y="91" on="1"/>
        <pt x="308" y="652" on="0"/>
        <pt x="97" y="1303" on="1"/>
        <pt x="118" y="1316" on="0"/>
        <pt x="166" y="1351" on="0"/>
        <pt x="217" y="1388" on="0"/>
        <pt x="268" y="1425" on="0"/>
        <pt x="291" y="1439" on="1"/>
        <pt x="479" y="863" on="0"/>
        <pt x="751" y="367" on="1"/>
        <pt x="753" y="363" on="0"/>
        <pt x="767" y="339" on="0"/>
        <pt x="786" y="304" on="0"/>
        <pt x="798" y="284" on="1"/>
        <pt x="816" y="254" on="0"/>
      </contour>
    </TTGlyph>
    <TTGlyph name="bar" xMin="168" yMin="-312" xMax="362" yMax="1700">
      <contour>
        <pt x="362" y="-176" on="1"/>
        <pt x="362" y="-197" on="0"/>
        <pt x="216" y="-280" on="1"/>
        <pt x="168" y="-307" on="0"/>
        <pt x="168" y="-312" on="1"/>
        <pt x="168" y="1564" on="1"/>
        <pt x="216" y="1602" on="0"/>
        <pt x="257" y="1633" on="0"/>
        <pt x="265" y="1639" on="0"/>
        <pt x="297" y="1658" on="0"/>
        <pt x="315" y="1668" on="1"/>
        <pt x="362" y="1696" on="0"/>
        <pt x="362" y="1700" on="1"/>
      </contour>
    </TTGlyph>
    <TTGlyph name="braceleft" xMin="16" yMin="-313" xMax="905" yMax="1706">
      <contour>
        <pt x="245" y="962" on="1"/>
        <pt x="237" y="1156" on="1"/>
        <pt x="237" y="1280" on="0"/>
        <pt x="327" y="1428" on="0"/>
        <pt x="452" y="1556" on="0"/>
        <pt x="526" y="1604" on="1"/>
        <pt x="687" y="1706" on="0"/>
        <pt x="857" y="1706" on="1"/>
        <pt x="869" y="1706" on="0"/>
        <pt x="893" y="1706" on="0"/>
        <pt x="905" y="1704" on="1"/>
        <pt x="894" y="1702" on="0"/>
        <pt x="836" y="1653" on="0"/>
        <pt x="795" y="1618" on="0"/>
        <pt x="776" y="1603" on="1"/>
        <pt x="730" y="1568" on="0"/>
        <pt x="710" y="1568" on="1"/>
        <pt x="624" y="1573" on="1"/>
        <pt x="564" y="1573" on="0"/>
        <pt x="523" y="1560" on="1"/>
        <pt x="470" y="1489" on="0"/>
        <pt x="456" y="1445" on="1"/>
        <pt x="433" y="1377" on="0"/>
        <pt x="433" y="1287" on="1"/>
        <pt x="440" y="1104" on="1"/>
        <pt x="440" y="927" on="0"/>
        <pt x="326" y="824" on="1"/>
        <pt x="288" y="789" on="0"/>
        <pt x="237" y="752" on="1"/>
        <pt x="425" y="663" on="0"/>
        <pt x="425" y="512" on="1"/>
        <pt x="425" y="461" on="0"/>
        <pt x="414" y="398" on="1"/>
        <pt x="392" y="280" on="0"/>
        <pt x="392" y="145" on="0"/>
        <pt x="453" y="-2" on="0"/>
        <pt x="506" y="-58" on="1"/>
        <pt x="622" y="-177" on="0"/>
        <pt x="789" y="-177" on="1"/>
        <pt x="832" y="-177" on="0"/>
        <pt x="865" y="-170" on="1"/>
        <pt x="851" y="-181" on="0"/>
        <pt x="799" y="-224" on="0"/>
        <pt x="770" y="-246" on="1"/>
        <pt x="692" y="-302" on="0"/>
        <pt x="673" y="-306" on="1"/>
        <pt x="639" y="-313" on="0"/>
        <pt x="516" y="-313" on="0"/>
        <pt x="370" y="-252" on="0"/>
        <pt x="316" y="-198" on="1"/>
        <pt x="196" y="-81" on="0"/>
        <pt x="196" y="80" on="1"/>
        <pt x="196" y="121" on="0"/>
        <pt x="208" y="188" on="1"/>
        <pt x="233" y="318" on="0"/>
        <pt x="233" y="413" on="0"/>
        <pt x="199" y="496" on="0"/>
        <pt x="170" y="528" on="1"/>
        <pt x="120" y="582" on="0"/>
        <pt x="16" y="628" on="1"/>
        <pt x="49" y="641" on="0"/>
        <pt x="174" y="742" on="0"/>
        <pt x="193" y="755" on="1"/>
        <pt x="245" y="831" on="0"/>
      </contour>
    </TTGlyph>
    <TTGlyph name="braceright" xMin="-34" yMin="-314" xMax="855" yMax="1706">
      <contour>
        <pt x="634" y="641" on="1"/>
        <pt x="445" y="731" on="0"/>
        <pt x="445" y="880" on="1"/>
        <pt x="445" y="923" on="0"/>
        <pt x="456" y="990" on="1"/>
        <pt x="479" y="1121" on="0"/>
        <pt x="479" y="1247" on="0"/>
        <pt x="418" y="1395" on="0"/>
        <pt x="364" y="1450" on="1"/>
        <pt x="249" y="1570" on="0"/>
        <pt x="82" y="1570" on="1"/>
        <pt x="50" y="1570" on="0"/>
        <pt x="6" y="1563" on="1"/>
        <pt x="156" y="1690" on="0"/>
        <pt x="234" y="1706" on="0"/>
        <pt x="355" y="1706" on="0"/>
        <pt x="500" y="1644" on="0"/>
        <pt x="555" y="1591" on="1"/>
        <pt x="674" y="1476" on="0"/>
        <pt x="674" y="1313" on="1"/>
        <pt x="674" y="1262" on="0"/>
        <pt x="662" y="1201" on="1"/>
        <pt x="638" y="1085" on="0"/>
        <pt x="638" y="980" on="0"/>
        <pt x="672" y="897" on="0"/>
        <pt x="701" y="865" on="1"/>
        <pt x="747" y="815" on="0"/>
        <pt x="855" y="764" on="1"/>
        <pt x="743" y="722" on="0"/>
        <pt x="626" y="546" on="0"/>
        <pt x="626" y="431" on="1"/>
        <pt x="634" y="236" on="1"/>
        <pt x="634" y="17" on="0"/>
        <pt x="430" y="-152" on="1"/>
        <pt x="311" y="-253" on="0"/>
        <pt x="158" y="-294" on="1"/>
        <pt x="85" y="-314" on="0"/>
        <pt x="-10" y="-314" on="0"/>
        <pt x="-34" y="-311" on="1"/>
        <pt x="-22" y="-310" on="0"/>
        <pt x="85" y="-217" on="0"/>
        <pt x="142" y="-175" on="0"/>
        <pt x="160" y="-175" on="1"/>
        <pt x="247" y="-180" on="1"/>
        <pt x="307" y="-180" on="0"/>
        <pt x="348" y="-167" on="1"/>
        <pt x="423" y="-69" on="0"/>
        <pt x="434" y="26" on="1"/>
        <pt x="438" y="61" on="0"/>
        <pt x="438" y="105" on="1"/>
        <pt x="431" y="288" on="1"/>
        <pt x="431" y="463" on="0"/>
        <pt x="544" y="568" on="1"/>
        <pt x="582" y="604" on="0"/>
      </contour>
    </TTGlyph>
    <TTGlyph name="bracketleft" xMin="98" yMin="-312" xMax="730" yMax="1700">
      <contour>
        <pt x="372" y="-14" on="1"/>
        <pt x="372" y="-105" on="0"/>
        <pt x="297" y="-176" on="1"/>
        <pt x="710" y="-176" on="1"/>
        <pt x="551" y="-312" on="0"/>
        <pt x="516" y="-312" on="1"/>
        <pt x="98" y="-312" on="1"/>
        <pt x="144" y="-267" on="0"/>
        <pt x="178" y="-139" on="0"/>
        <pt x="178" y="-45" on="1"/>
        <pt x="178" y="1564" on="1"/>
        <pt x="178" y="1590" on="0"/>
        <pt x="310" y="1670" on="1"/>
        <pt x="359" y="1700" on="0"/>
        <pt x="372" y="1700" on="1"/>
        <pt x="730" y="1700" on="1"/>
        <pt x="716" y="1698" on="0"/>
        <pt x="620" y="1614" on="0"/>
        <pt x="600" y="1599" on="1"/>
        <pt x="555" y="1564" on="0"/>
        <pt x="535" y="1564" on="1"/>
        <pt x="372" y="1564" on="1"/>
      </contour>
    </TTGlyph>
    <TTGlyph name="bracketright" xMin="-14" yMin="-312" xMax="618" yMax="1700">
      <contour>
        <pt x="6" y="1564" on="1"/>
        <pt x="172" y="1700" on="0"/>
        <pt x="200" y="1700" on="1"/>
        <pt x="618" y="1700" on="1"/>
        <pt x="553" y="1606" on="0"/>
        <pt x="542" y="1514" on="1"/>
        <pt x="538" y="1481" on="0"/>
        <pt x="538" y="1442" on="1"/>
        <pt x="538" y="-176" on="1"/>
        <pt x="538" y="-202" on="0"/>
        <pt x="406" y="-282" on="1"/>
        <pt x="357" y="-312" on="0"/>
        <pt x="344" y="-312" on="1"/>
        <pt x="-14" y="-312" on="1"/>
        <pt x="2" y="-310" on="0"/>
        <pt x="96" y="-225" on="0"/>
        <pt x="115" y="-210" on="1"/>
        <pt x="160" y="-176" on="0"/>
        <pt x="180" y="-176" on="1"/>
        <pt x="344" y="-176" on="1"/>
        <pt x="344" y="1402" on="1"/>
        <pt x="344" y="1460" on="0"/>
        <pt x="413" y="1564" on="1"/>
      </contour>
    </TTGlyph>
    <TTGlyph name="breve" xMin="0" yMin="1247" xMax="768" yMax="1627">
      <contour>
        <pt x="768" y="1627" on="1"/>
        <pt x="765" y="1498" on="0"/>
        <pt x="602" y="1371" on="1"/>
        <pt x="505" y="1295" on="0"/>
        <pt x="352" y="1247" on="0"/>
        <pt x="262" y="1247" on="0"/>
        <pt x="178" y="1277" on="0"/>
        <pt x="142" y="1303" on="1"/>
        <pt x="59" y="1363" on="0"/>
        <pt x="4" y="1482" on="1"/>
        <pt x="0" y="1489" on="0"/>
        <pt x="0" y="1499" on="0"/>
        <pt x="28" y="1524" on="0"/>
        <pt x="71" y="1552" on="0"/>
        <pt x="121" y="1581" on="0"/>
        <pt x="142" y="1594" on="1"/>
        <pt x="193" y="1623" on="0"/>
        <pt x="194" y="1627" on="1"/>
        <pt x="260" y="1468" on="0"/>
        <pt x="378" y="1404" on="1"/>
        <pt x="421" y="1380" on="0"/>
        <pt x="494" y="1380" on="0"/>
        <pt x="532" y="1408" on="0"/>
        <pt x="544" y="1426" on="1"/>
        <pt x="566" y="1458" on="0"/>
        <pt x="576" y="1505" on="0"/>
        <pt x="631" y="1543" on="0"/>
        <pt x="699" y="1582" on="0"/>
        <pt x="760" y="1616" on="0"/>
      </contour>
    </TTGlyph>
    <TTGlyph name="brokenbar" xMin="174" yMin="-312" xMax="368" yMax="1700">
      <contour>
        <pt x="368" y="911" on="1"/>
        <pt x="368" y="893" on="0"/>
        <pt x="249" y="823" on="0"/>
        <pt x="228" y="810" on="1"/>
        <pt x="177" y="781" on="0"/>
        <pt x="174" y="775" on="1"/>
        <pt x="174" y="1564" on="1"/>
        <pt x="174" y="1582" on="0"/>
        <pt x="293" y="1652" on="0"/>
        <pt x="314" y="1664" on="1"/>
        <pt x="365" y="1694" on="0"/>
        <pt x="368" y="1700" on="1"/>
      </contour>
      <contour>
        <pt x="368" y="-176" on="1"/>
        <pt x="368" y="-194" on="0"/>
        <pt x="249" y="-264" on="0"/>
        <pt x="228" y="-276" on="1"/>
        <pt x="177" y="-306" on="0"/>
        <pt x="174" y="-312" on="1"/>
        <pt x="174" y="477" on="1"/>
        <pt x="174" y="495" on="0"/>
        <pt x="293" y="565" on="0"/>
        <pt x="314" y="578" on="1"/>
        <pt x="365" y="607" on="0"/>
        <pt x="368" y="613" on="1"/>
      </contour>
    </TTGlyph>
    <TTGlyph name="bullet" xMin="149" yMin="476" xMax="645" yMax="977">
      <contour>
        <pt x="645" y="701" on="1"/>
        <pt x="322" y="476" on="1"/>
        <pt x="149" y="751" on="1"/>
        <pt x="471" y="977" on="1"/>
      </contour>
    </TTGlyph>
    <TTGlyph name="c" xMin="72" yMin="-16" xMax="930" yMax="1007">
      <contour>
        <pt x="717" y="774" on="1"/>
        <pt x="737" y="794" on="0"/>
        <pt x="737" y="814" on="0"/>
        <pt x="710" y="832" on="0"/>
        <pt x="667" y="847" on="0"/>
        <pt x="615" y="860" on="0"/>
        <pt x="591" y="864" on="1"/>
        <pt x="540" y="874" on="0"/>
        <pt x="446" y="874" on="0"/>
        <pt x="349" y="817" on="0"/>
        <pt x="320" y="770" on="1"/>
        <pt x="269" y="686" on="0"/>
        <pt x="269" y="447" on="0"/>
        <pt x="321" y="292" on="0"/>
        <pt x="371" y="236" on="1"/>
        <pt x="476" y="120" on="0"/>
        <pt x="668" y="120" on="1"/>
        <pt x="789" y="120" on="0"/>
        <pt x="897" y="180" on="1"/>
        <pt x="771" y="44" on="0"/>
        <pt x="578" y="-2" on="1"/>
        <pt x="517" y="-16" on="0"/>
        <pt x="369" y="-16" on="0"/>
        <pt x="225" y="46" on="0"/>
        <pt x="175" y="101" on="1"/>
        <pt x="72" y="214" on="0"/>
        <pt x="72" y="394" on="1"/>
        <pt x="72" y="540" on="0"/>
        <pt x="173" y="688" on="1"/>
        <pt x="322" y="904" on="0"/>
        <pt x="566" y="982" on="1"/>
        <pt x="642" y="1007" on="0"/>
        <pt x="704" y="1007" on="1"/>
        <pt x="850" y="1007" on="0"/>
        <pt x="922" y="953" on="1"/>
        <pt x="930" y="947" on="0"/>
        <pt x="930" y="937" on="1"/>
        <pt x="930" y="901" on="0"/>
        <pt x="784" y="807" on="1"/>
        <pt x="732" y="774" on="0"/>
      </contour>
    </TTGlyph>
    <TTGlyph name="cacute" xMin="72" yMin="-16" xMax="930" yMax="1468">
      <component glyphName="c" x="0" y="0" flags="0x1204"/>
      <component glyphName="acute" x="400" y="-235" flags="0x1004"/>
    </TTGlyph>
    <TTGlyph name="caron" xMin="0" yMin="1253" xMax="662" yMax="1628">
      <contour>
        <pt x="0" y="1491" on="1"/>
        <pt x="171" y="1628" on="0"/>
        <pt x="190" y="1628" on="1"/>
        <pt x="197" y="1628" on="0"/>
        <pt x="386" y="1421" on="0"/>
        <pt x="390" y="1416" on="1"/>
        <pt x="473" y="1495" on="1"/>
        <pt x="484" y="1505" on="0"/>
        <pt x="516" y="1522" on="0"/>
        <pt x="539" y="1536" on="1"/>
        <pt x="632" y="1595" on="0"/>
        <pt x="662" y="1624" on="1"/>
        <pt x="412" y="1386" on="1"/>
        <pt x="308" y="1299" on="0"/>
        <pt x="229" y="1253" on="0"/>
        <pt x="223" y="1253" on="0"/>
        <pt x="191" y="1285" on="0"/>
        <pt x="145" y="1335" on="0"/>
        <pt x="90" y="1394" on="0"/>
        <pt x="41" y="1447" on="0"/>
        <pt x="5" y="1486" on="0"/>
      </contour>
    </TTGlyph>
    <TTGlyph name="ccaron" xMin="72" yMin="-16" xMax="930" yMax="1377">
      <component glyphName="c" x="0" y="0" flags="0x1204"/>
      <component glyphName="caron" x="142" y="-251" flags="0x1004"/>
    </TTGlyph>
    <TTGlyph name="ccedilla" xMin="72" yMin="-501" xMax="930" yMax="1007">
      <contour>
        <pt x="717" y="774" on="1"/>
        <pt x="737" y="794" on="0"/>
        <pt x="737" y="814" on="0"/>
        <pt x="710" y="832" on="0"/>
        <pt x="667" y="847" on="0"/>
        <pt x="615" y="860" on="0"/>
        <pt x="591" y="864" on="1"/>
        <pt x="540" y="874" on="0"/>
        <pt x="446" y="874" on="0"/>
        <pt x="349" y="817" on="0"/>
        <pt x="320" y="770" on="1"/>
        <pt x="269" y="686" on="0"/>
        <pt x="269" y="447" on="0"/>
        <pt x="321" y="292" on="0"/>
        <pt x="371" y="236" on="1"/>
        <pt x="476" y="120" on="0"/>
        <pt x="668" y="120" on="1"/>
        <pt x="789" y="120" on="0"/>
        <pt x="897" y="180" on="1"/>
        <pt x="766" y="40" on="0"/>
        <pt x="576" y="-2" on="1"/>
        <pt x="474" y="-107" on="1"/>
        <pt x="481" y="-102" on="0"/>
        <pt x="516" y="-96" on="0"/>
        <pt x="564" y="-89" on="0"/>
        <pt x="632" y="-102" on="0"/>
        <pt x="654" y="-120" on="1"/>
        <pt x="703" y="-160" on="0"/>
        <pt x="660" y="-237" on="1"/>
        <pt x="599" y="-345" on="0"/>
        <pt x="322" y="-501" on="1"/>
        <pt x="348" y="-475" on="0"/>
        <pt x="410" y="-434" on="0"/>
        <pt x="458" y="-402" on="0"/>
        <pt x="483" y="-349" on="0"/>
        <pt x="485" y="-320" on="1"/>
        <pt x="492" y="-216" on="0"/>
        <pt x="358" y="-227" on="1"/>
        <pt x="321" y="-230" on="0"/>
        <pt x="286" y="-241" on="1"/>
        <pt x="278" y="-244" on="0"/>
        <pt x="284" y="-238" on="1"/>
        <pt x="474" y="-40" on="1"/>
        <pt x="489" y="-28" on="0"/>
        <pt x="509" y="-13" on="1"/>
        <pt x="483" y="-16" on="0"/>
        <pt x="459" y="-16" on="1"/>
        <pt x="281" y="-16" on="0"/>
        <pt x="175" y="101" on="1"/>
        <pt x="72" y="214" on="0"/>
        <pt x="72" y="394" on="1"/>
        <pt x="72" y="540" on="0"/>
        <pt x="173" y="688" on="1"/>
        <pt x="322" y="904" on="0"/>
        <pt x="566" y="982" on="1"/>
        <pt x="642" y="1007" on="0"/>
        <pt x="704" y="1007" on="1"/>
        <pt x="850" y="1007" on="0"/>
        <pt x="922" y="953" on="1"/>
        <pt x="930" y="947" on="0"/>
        <pt x="930" y="937" on="1"/>
        <pt x="930" y="901" on="0"/>
        <pt x="784" y="807" on="1"/>
        <pt x="732" y="774" on="0"/>
      </contour>
    </TTGlyph>
    <TTGlyph name="ccircumflex" xMin="72" yMin="-16" xMax="930" yMax="1436">
      <component glyphName="c" x="0" y="0" flags="0x1204"/>
      <component glyphName="circumflex" x="142" y="-192" flags="0x1004"/>
    </TTGlyph>
    <TTGlyph name="cdotaccent" xMin="72" yMin="-16" xMax="930" yMax="1309">
      <component glyphName="c" x="0" y="0" flags="0x1204"/>
      <component glyphName="dotaccent" x="300" y="-213" flags="0x1004"/>
    </TTGlyph>
    <TTGlyph name="cedilla" xMin="3" yMin="-501" xMax="382" yMax="88">
      <contour>
        <pt x="382" y="88" on="1"/>
        <pt x="309" y="13" on="0"/>
        <pt x="259" y="-40" on="0"/>
        <pt x="241" y="-59" on="0"/>
        <pt x="234" y="-66" on="1"/>
        <pt x="234" y="-66" on="0"/>
        <pt x="217" y="-83" on="1"/>
        <pt x="208" y="-92" on="0"/>
        <pt x="193" y="-108" on="1"/>
        <pt x="199" y="-102" on="0"/>
        <pt x="235" y="-96" on="0"/>
        <pt x="283" y="-89" on="0"/>
        <pt x="351" y="-102" on="0"/>
        <pt x="372" y="-120" on="1"/>
        <pt x="422" y="-160" on="0"/>
        <pt x="379" y="-237" on="1"/>
        <pt x="318" y="-345" on="0"/>
        <pt x="41" y="-501" on="1"/>
        <pt x="67" y="-475" on="0"/>
        <pt x="129" y="-434" on="0"/>
        <pt x="177" y="-402" on="0"/>
        <pt x="202" y="-349" on="0"/>
        <pt x="204" y="-320" on="1"/>
        <pt x="211" y="-216" on="0"/>
        <pt x="77" y="-227" on="1"/>
        <pt x="40" y="-230" on="0"/>
        <pt x="5" y="-241" on="1"/>
        <pt x="-3" y="-244" on="0"/>
        <pt x="3" y="-238" on="1"/>
        <pt x="193" y="-40" on="1"/>
        <pt x="237" y="-7" on="1"/>
        <pt x="255" y="7" on="0"/>
        <pt x="295" y="36" on="0"/>
        <pt x="315" y="50" on="0"/>
        <pt x="339" y="64" on="0"/>
        <pt x="351" y="71" on="1"/>
        <pt x="382" y="89" on="0"/>
      </contour>
    </TTGlyph>
    <TTGlyph name="cent" xMin="88" yMin="-52" xMax="860" yMax="1272">
      <contour>
        <pt x="415" y="76" on="1"/>
        <pt x="416" y="174" on="1"/>
        <pt x="416" y="191" on="0"/>
        <pt x="417" y="192" on="1"/>
        <pt x="271" y="184" on="0"/>
        <pt x="176" y="293" on="1"/>
        <pt x="88" y="392" on="0"/>
        <pt x="88" y="527" on="1"/>
        <pt x="88" y="729" on="0"/>
        <pt x="297" y="881" on="1"/>
        <pt x="356" y="924" on="0"/>
        <pt x="416" y="963" on="1"/>
        <pt x="416" y="1136" on="1"/>
        <pt x="416" y="1154" on="0"/>
        <pt x="535" y="1224" on="0"/>
        <pt x="556" y="1236" on="1"/>
        <pt x="607" y="1266" on="0"/>
        <pt x="610" y="1272" on="1"/>
        <pt x="610" y="1036" on="1"/>
        <pt x="635" y="1039" on="0"/>
        <pt x="671" y="1039" on="0"/>
        <pt x="735" y="1030" on="0"/>
        <pt x="770" y="1022" on="1"/>
        <pt x="860" y="1003" on="0"/>
        <pt x="860" y="980" on="1"/>
        <pt x="860" y="964" on="0"/>
        <pt x="754" y="876" on="0"/>
        <pt x="730" y="860" on="1"/>
        <pt x="675" y="824" on="0"/>
        <pt x="648" y="824" on="1"/>
        <pt x="662" y="833" on="0"/>
        <pt x="662" y="851" on="0"/>
        <pt x="631" y="866" on="0"/>
        <pt x="583" y="879" on="0"/>
        <pt x="525" y="890" on="0"/>
        <pt x="498" y="894" on="1"/>
        <pt x="440" y="901" on="0"/>
        <pt x="379" y="901" on="0"/>
        <pt x="325" y="852" on="0"/>
        <pt x="309" y="816" on="1"/>
        <pt x="279" y="748" on="0"/>
        <pt x="279" y="592" on="0"/>
        <pt x="332" y="470" on="0"/>
        <pt x="378" y="426" on="1"/>
        <pt x="475" y="332" on="0"/>
        <pt x="620" y="332" on="1"/>
        <pt x="702" y="332" on="0"/>
        <pt x="814" y="381" on="1"/>
        <pt x="834" y="390" on="0"/>
        <pt x="837" y="390" on="1"/>
        <pt x="837" y="376" on="0"/>
        <pt x="764" y="329" on="1"/>
        <pt x="648" y="254" on="0"/>
        <pt x="610" y="238" on="1"/>
        <pt x="610" y="84" on="1"/>
        <pt x="587" y="66" on="0"/>
        <pt x="541" y="28" on="0"/>
        <pt x="510" y="7" on="0"/>
        <pt x="479" y="-11" on="0"/>
        <pt x="462" y="-21" on="1"/>
        <pt x="418" y="-47" on="0"/>
        <pt x="416" y="-52" on="1"/>
        <pt x="416" y="-27" on="1"/>
      </contour>
    </TTGlyph>
    <TTGlyph name="circumflex" xMin="0" yMin="1253" xMax="662" yMax="1628">
      <contour>
        <pt x="662" y="1390" on="1"/>
        <pt x="491" y="1253" on="0"/>
        <pt x="472" y="1253" on="1"/>
        <pt x="465" y="1253" on="0"/>
        <pt x="276" y="1460" on="0"/>
        <pt x="272" y="1465" on="1"/>
        <pt x="189" y="1386" on="1"/>
        <pt x="178" y="1376" on="0"/>
        <pt x="146" y="1359" on="0"/>
        <pt x="123" y="1344" on="1"/>
        <pt x="30" y="1286" on="0"/>
        <pt x="0" y="1258" on="1"/>
        <pt x="250" y="1495" on="1"/>
        <pt x="284" y="1529" on="0"/>
        <pt x="344" y="1570" on="1"/>
        <pt x="429" y="1628" on="0"/>
        <pt x="439" y="1628" on="0"/>
        <pt x="471" y="1596" on="0"/>
        <pt x="517" y="1546" on="0"/>
        <pt x="572" y="1487" on="0"/>
        <pt x="621" y="1435" on="0"/>
        <pt x="657" y="1395" on="0"/>
      </contour>
    </TTGlyph>
    <TTGlyph name="colon" xMin="129" yMin="-30" xMax="428" yMax="913">
      <contour>
        <pt x="428" y="746" on="1"/>
        <pt x="234" y="610" on="1"/>
        <pt x="129" y="777" on="1"/>
        <pt x="323" y="913" on="1"/>
      </contour>
      <contour>
        <pt x="428" y="106" on="1"/>
        <pt x="234" y="-30" on="1"/>
        <pt x="129" y="137" on="1"/>
        <pt x="323" y="273" on="1"/>
      </contour>
    </TTGlyph>
    <TTGlyph name="comma" xMin="85" yMin="-280" xMax="388" yMax="273">
      <contour>
        <pt x="187" y="-280" on="1"/>
        <pt x="290" y="-177" on="0"/>
        <pt x="290" y="-68" on="1"/>
        <pt x="290" y="-27" on="0"/>
        <pt x="259" y="-2" on="0"/>
        <pt x="234" y="-2" on="0"/>
        <pt x="213" y="-17" on="0"/>
        <pt x="206" y="-21" on="1"/>
        <pt x="190" y="-31" on="0"/>
        <pt x="190" y="-30" on="1"/>
        <pt x="85" y="137" on="1"/>
        <pt x="81" y="141" on="0"/>
        <pt x="153" y="193" on="0"/>
        <pt x="204" y="227" on="0"/>
        <pt x="226" y="242" on="1"/>
        <pt x="278" y="275" on="0"/>
        <pt x="280" y="273" on="1"/>
        <pt x="293" y="252" on="0"/>
        <pt x="322" y="209" on="0"/>
        <pt x="336" y="188" on="1"/>
        <pt x="368" y="136" on="0"/>
        <pt x="390" y="56" on="0"/>
        <pt x="386" y="-29" on="0"/>
        <pt x="372" y="-70" on="1"/>
        <pt x="344" y="-154" on="0"/>
        <pt x="282" y="-216" on="1"/>
        <pt x="264" y="-234" on="0"/>
        <pt x="194" y="-273" on="0"/>
      </contour>
    </TTGlyph>
    <TTGlyph name="copyright" xMin="100" yMin="44" xMax="1545" yMax="1393">
      <contour>
        <pt x="1446" y="1155" on="0"/>
        <pt x="1545" y="946" on="0"/>
        <pt x="1545" y="724" on="0"/>
        <pt x="1475" y="532" on="0"/>
        <pt x="1355" y="359" on="0"/>
        <pt x="1193" y="212" on="0"/>
        <pt x="1101" y="158" on="1"/>
        <pt x="904" y="44" on="0"/>
        <pt x="716" y="44" on="1"/>
        <pt x="447" y="44" on="0"/>
        <pt x="276" y="200" on="1"/>
        <pt x="100" y="361" on="0"/>
        <pt x="100" y="629" on="1"/>
        <pt x="100" y="828" on="0"/>
        <pt x="230" y="1012" on="1"/>
        <pt x="348" y="1180" on="0"/>
        <pt x="547" y="1288" on="1"/>
        <pt x="741" y="1393" on="0"/>
        <pt x="941" y="1393" on="1"/>
        <pt x="1185" y="1393" on="0"/>
        <pt x="1362" y="1231" on="1"/>
      </contour>
      <contour>
        <pt x="1350" y="701" on="1"/>
        <pt x="1350" y="818" on="0"/>
        <pt x="1249" y="1025" on="0"/>
        <pt x="1164" y="1098" on="1"/>
        <pt x="985" y="1253" on="0"/>
        <pt x="737" y="1253" on="1"/>
        <pt x="391" y="1253" on="0"/>
        <pt x="318" y="961" on="1"/>
        <pt x="295" y="869" on="0"/>
        <pt x="295" y="624" on="0"/>
        <pt x="393" y="410" on="0"/>
        <pt x="478" y="334" on="1"/>
        <pt x="653" y="176" on="0"/>
        <pt x="913" y="176" on="1"/>
        <pt x="1136" y="176" on="0"/>
        <pt x="1250" y="327" on="1"/>
        <pt x="1350" y="461" on="0"/>
      </contour>
      <contour>
        <pt x="945" y="917" on="1"/>
        <pt x="959" y="935" on="1"/>
        <pt x="959" y="956" on="0"/>
        <pt x="840" y="966" on="1"/>
        <pt x="821" y="967" on="0"/>
        <pt x="806" y="967" on="1"/>
        <pt x="784" y="967" on="1"/>
        <pt x="693" y="962" on="0"/>
        <pt x="600" y="869" on="0"/>
        <pt x="600" y="696" on="0"/>
        <pt x="652" y="591" on="0"/>
        <pt x="696" y="554" on="1"/>
        <pt x="785" y="479" on="0"/>
        <pt x="1030" y="479" on="0"/>
        <pt x="1132" y="534" on="1"/>
        <pt x="1075" y="483" on="0"/>
        <pt x="987" y="409" on="0"/>
        <pt x="940" y="385" on="1"/>
        <pt x="851" y="339" on="0"/>
        <pt x="699" y="339" on="1"/>
        <pt x="572" y="339" on="0"/>
        <pt x="489" y="424" on="1"/>
        <pt x="407" y="507" on="0"/>
        <pt x="407" y="634" on="1"/>
        <pt x="407" y="750" on="0"/>
        <pt x="508" y="866" on="1"/>
        <pt x="596" y="967" on="0"/>
        <pt x="736" y="1037" on="1"/>
        <pt x="872" y="1104" on="0"/>
        <pt x="986" y="1104" on="1"/>
        <pt x="1138" y="1104" on="0"/>
        <pt x="1159" y="1071" on="1"/>
        <pt x="1130" y="1031" on="0"/>
        <pt x="972" y="931" on="1"/>
        <pt x="954" y="920" on="0"/>
      </contour>
    </TTGlyph>
    <TTGlyph name="currency" xMin="0" yMin="315" xMax="893" yMax="1136">
      <contour>
        <pt x="324" y="1008" on="1"/>
        <pt x="452" y="1081" on="0"/>
        <pt x="645" y="1081" on="0"/>
        <pt x="722" y="1018" on="1"/>
        <pt x="776" y="1061" on="0"/>
        <pt x="883" y="1128" on="0"/>
        <pt x="893" y="1131" on="1"/>
        <pt x="892" y="1130" on="0"/>
        <pt x="873" y="1109" on="0"/>
        <pt x="844" y="1080" on="0"/>
        <pt x="810" y="1045" on="0"/>
        <pt x="780" y="1014" on="0"/>
        <pt x="768" y="1002" on="1"/>
        <pt x="754" y="988" on="1"/>
        <pt x="830" y="905" on="0"/>
        <pt x="830" y="691" on="0"/>
        <pt x="734" y="585" on="1"/>
        <pt x="870" y="452" on="1"/>
        <pt x="862" y="446" on="0"/>
        <pt x="832" y="422" on="0"/>
        <pt x="793" y="392" on="0"/>
        <pt x="750" y="360" on="0"/>
        <pt x="732" y="346" on="1"/>
        <pt x="692" y="317" on="0"/>
        <pt x="677" y="315" on="1"/>
        <pt x="548" y="441" on="1"/>
        <pt x="439" y="382" on="0"/>
        <pt x="261" y="382" on="0"/>
        <pt x="183" y="433" on="1"/>
        <pt x="171" y="424" on="0"/>
        <pt x="125" y="389" on="0"/>
        <pt x="100" y="371" on="1"/>
        <pt x="33" y="324" on="0"/>
        <pt x="16" y="320" on="1"/>
        <pt x="150" y="458" on="1"/>
        <pt x="95" y="507" on="0"/>
        <pt x="71" y="599" on="1"/>
        <pt x="64" y="626" on="0"/>
        <pt x="64" y="682" on="0"/>
        <pt x="70" y="739" on="0"/>
        <pt x="78" y="764" on="1"/>
        <pt x="94" y="815" on="0"/>
        <pt x="141" y="862" on="1"/>
        <pt x="140" y="862" on="1"/>
        <pt x="0" y="999" on="1"/>
        <pt x="7" y="1004" on="0"/>
        <pt x="38" y="1028" on="0"/>
        <pt x="78" y="1058" on="0"/>
        <pt x="121" y="1090" on="0"/>
        <pt x="140" y="1104" on="1"/>
        <pt x="182" y="1134" on="0"/>
        <pt x="192" y="1136" on="1"/>
        <pt x="258" y="1072" on="0"/>
      </contour>
      <contour>
        <pt x="546" y="513" on="1"/>
        <pt x="636" y="513" on="0"/>
        <pt x="636" y="663" on="1"/>
        <pt x="636" y="782" on="0"/>
        <pt x="551" y="866" on="1"/>
        <pt x="466" y="949" on="0"/>
        <pt x="347" y="949" on="1"/>
        <pt x="258" y="949" on="0"/>
        <pt x="258" y="809" on="1"/>
        <pt x="258" y="679" on="0"/>
        <pt x="337" y="596" on="1"/>
        <pt x="417" y="513" on="0"/>
      </contour>
    </TTGlyph>
    <TTGlyph name="d" xMin="76" yMin="-20" xMax="1151" yMax="1707">
      <contour>
        <pt x="477" y="949" on="0"/>
        <pt x="631" y="992" on="0"/>
        <pt x="737" y="992" on="0"/>
        <pt x="777" y="985" on="1"/>
        <pt x="777" y="1313" on="1"/>
        <pt x="777" y="1420" on="0"/>
        <pt x="738" y="1455" on="1"/>
        <pt x="720" y="1471" on="0"/>
        <pt x="694" y="1471" on="1"/>
        <pt x="663" y="1471" on="0"/>
        <pt x="603" y="1456" on="1"/>
        <pt x="854" y="1647" on="0"/>
        <pt x="971" y="1707" on="1"/>
        <pt x="971" y="277" on="1"/>
        <pt x="971" y="196" on="0"/>
        <pt x="988" y="170" on="1"/>
        <pt x="1018" y="120" on="0"/>
        <pt x="1092" y="120" on="1"/>
        <pt x="1122" y="120" on="0"/>
        <pt x="1151" y="126" on="1"/>
        <pt x="1122" y="103" on="0"/>
        <pt x="1065" y="53" on="0"/>
        <pt x="1034" y="32" on="1"/>
        <pt x="963" y="-16" on="0"/>
        <pt x="855" y="-16" on="0"/>
        <pt x="808" y="4" on="0"/>
        <pt x="795" y="23" on="1"/>
        <pt x="775" y="52" on="0"/>
        <pt x="775" y="132" on="1"/>
        <pt x="570" y="-20" on="0"/>
        <pt x="446" y="-20" on="1"/>
        <pt x="263" y="-20" on="0"/>
        <pt x="166" y="102" on="1"/>
        <pt x="76" y="214" on="0"/>
        <pt x="76" y="402" on="1"/>
        <pt x="76" y="556" on="0"/>
        <pt x="172" y="696" on="1"/>
        <pt x="261" y="829" on="0"/>
        <pt x="407" y="910" on="1"/>
      </contour>
      <contour>
        <pt x="777" y="712" on="1"/>
        <pt x="732" y="784" on="0"/>
        <pt x="588" y="858" on="0"/>
        <pt x="432" y="858" on="0"/>
        <pt x="340" y="805" on="0"/>
        <pt x="314" y="761" on="1"/>
        <pt x="269" y="685" on="0"/>
        <pt x="269" y="456" on="0"/>
        <pt x="309" y="301" on="0"/>
        <pt x="352" y="242" on="1"/>
        <pt x="446" y="115" on="0"/>
        <pt x="627" y="115" on="1"/>
        <pt x="666" y="115" on="0"/>
        <pt x="704" y="138" on="1"/>
        <pt x="777" y="180" on="0"/>
        <pt x="777" y="217" on="1"/>
      </contour>
    </TTGlyph>
    <TTGlyph name="dagger" xMin="57" yMin="-312" xMax="894" yMax="1700">
      <contour>
        <pt x="57" y="1011" on="1"/>
        <pt x="223" y="1147" on="0"/>
        <pt x="251" y="1147" on="1"/>
        <pt x="392" y="1147" on="1"/>
        <pt x="392" y="1564" on="1"/>
        <pt x="469" y="1628" on="0"/>
        <pt x="523" y="1659" on="0"/>
        <pt x="540" y="1669" on="1"/>
        <pt x="582" y="1693" on="0"/>
        <pt x="587" y="1700" on="1"/>
        <pt x="587" y="1147" on="1"/>
        <pt x="894" y="1147" on="1"/>
        <pt x="881" y="1146" on="0"/>
        <pt x="828" y="1099" on="1"/>
        <pt x="727" y="1011" on="0"/>
        <pt x="700" y="1011" on="1"/>
        <pt x="587" y="1011" on="1"/>
        <pt x="587" y="-176" on="1"/>
        <pt x="587" y="-194" on="0"/>
        <pt x="397" y="-305" on="0"/>
        <pt x="392" y="-312" on="1"/>
        <pt x="392" y="1011" on="1"/>
      </contour>
    </TTGlyph>
    <TTGlyph name="daggerdbl" xMin="70" yMin="-312" xMax="907" yMax="1700">
      <contour>
        <pt x="70" y="1011" on="1"/>
        <pt x="236" y="1147" on="0"/>
        <pt x="264" y="1147" on="1"/>
        <pt x="405" y="1147" on="1"/>
        <pt x="405" y="1564" on="1"/>
        <pt x="482" y="1628" on="0"/>
        <pt x="536" y="1659" on="0"/>
        <pt x="554" y="1669" on="1"/>
        <pt x="595" y="1693" on="0"/>
        <pt x="600" y="1700" on="1"/>
        <pt x="600" y="1147" on="1"/>
        <pt x="907" y="1147" on="1"/>
        <pt x="894" y="1146" on="0"/>
        <pt x="841" y="1099" on="1"/>
        <pt x="740" y="1011" on="0"/>
        <pt x="713" y="1011" on="1"/>
        <pt x="600" y="1011" on="1"/>
        <pt x="600" y="455" on="1"/>
        <pt x="907" y="455" on="1"/>
        <pt x="894" y="454" on="0"/>
        <pt x="841" y="407" on="1"/>
        <pt x="740" y="319" on="0"/>
        <pt x="713" y="319" on="1"/>
        <pt x="600" y="319" on="1"/>
        <pt x="600" y="-176" on="1"/>
        <pt x="600" y="-194" on="0"/>
        <pt x="410" y="-305" on="0"/>
        <pt x="405" y="-312" on="1"/>
        <pt x="405" y="319" on="1"/>
        <pt x="70" y="319" on="1"/>
        <pt x="236" y="455" on="0"/>
        <pt x="264" y="455" on="1"/>
        <pt x="405" y="455" on="1"/>
        <pt x="405" y="1011" on="1"/>
      </contour>
    </TTGlyph>
    <TTGlyph name="dcaron" xMin="76" yMin="-20" xMax="1313" yMax="1707">
      <component glyphName="d" x="0" y="0" flags="0x1004"/>
      <component glyphName="uni0315" x="1073" y="0" flags="0x1004"/>
    </TTGlyph>
    <TTGlyph name="dcroat" xMin="76" yMin="-20" xMax="1175" yMax="1707">
      <contour>
        <pt x="777" y="1331" on="1"/>
        <pt x="777" y="1471" on="0"/>
        <pt x="688" y="1471" on="1"/>
        <pt x="663" y="1471" on="0"/>
        <pt x="603" y="1456" on="1"/>
        <pt x="854" y="1647" on="0"/>
        <pt x="971" y="1707" on="1"/>
        <pt x="971" y="1331" on="1"/>
        <pt x="1175" y="1331" on="1"/>
        <pt x="1162" y="1330" on="0"/>
        <pt x="1109" y="1283" on="1"/>
        <pt x="1008" y="1195" on="0"/>
        <pt x="981" y="1195" on="1"/>
        <pt x="971" y="1195" on="1"/>
        <pt x="971" y="277" on="1"/>
        <pt x="971" y="196" on="0"/>
        <pt x="988" y="170" on="1"/>
        <pt x="1018" y="120" on="0"/>
        <pt x="1092" y="120" on="1"/>
        <pt x="1122" y="120" on="0"/>
        <pt x="1151" y="126" on="1"/>
        <pt x="1122" y="103" on="0"/>
        <pt x="1065" y="53" on="0"/>
        <pt x="1034" y="32" on="1"/>
        <pt x="963" y="-16" on="0"/>
        <pt x="855" y="-16" on="0"/>
        <pt x="808" y="4" on="0"/>
        <pt x="795" y="23" on="1"/>
        <pt x="775" y="52" on="0"/>
        <pt x="775" y="132" on="1"/>
        <pt x="570" y="-20" on="0"/>
        <pt x="446" y="-20" on="1"/>
        <pt x="263" y="-20" on="0"/>
        <pt x="166" y="102" on="1"/>
        <pt x="76" y="214" on="0"/>
        <pt x="76" y="402" on="1"/>
        <pt x="76" y="556" on="0"/>
        <pt x="172" y="696" on="1"/>
        <pt x="261" y="829" on="0"/>
        <pt x="407" y="910" on="1"/>
        <pt x="554" y="992" on="0"/>
        <pt x="708" y="992" on="1"/>
        <pt x="737" y="992" on="0"/>
        <pt x="777" y="985" on="1"/>
        <pt x="777" y="1195" on="1"/>
        <pt x="568" y="1195" on="1"/>
        <pt x="580" y="1196" on="0"/>
        <pt x="687" y="1289" on="0"/>
        <pt x="744" y="1331" on="0"/>
        <pt x="762" y="1331" on="1"/>
      </contour>
      <contour>
        <pt x="777" y="712" on="1"/>
        <pt x="732" y="784" on="0"/>
        <pt x="588" y="858" on="0"/>
        <pt x="432" y="858" on="0"/>
        <pt x="340" y="805" on="0"/>
        <pt x="314" y="761" on="1"/>
        <pt x="269" y="685" on="0"/>
        <pt x="269" y="456" on="0"/>
        <pt x="309" y="301" on="0"/>
        <pt x="352" y="242" on="1"/>
        <pt x="446" y="115" on="0"/>
        <pt x="627" y="115" on="1"/>
        <pt x="666" y="115" on="0"/>
        <pt x="704" y="138" on="1"/>
        <pt x="777" y="180" on="0"/>
        <pt x="777" y="217" on="1"/>
      </contour>
    </TTGlyph>
    <TTGlyph name="degree" xMin="84" yMin="933" xMax="615" yMax="1399">
      <contour>
        <pt x="535" y="1086" on="1"/>
        <pt x="404" y="981" on="0"/>
        <pt x="290" y="933" on="0"/>
        <pt x="256" y="933" on="1"/>
        <pt x="186" y="933" on="0"/>
        <pt x="136" y="975" on="1"/>
        <pt x="84" y="1018" on="0"/>
        <pt x="84" y="1139" on="0"/>
        <pt x="127" y="1213" on="0"/>
        <pt x="190" y="1266" on="0"/>
        <pt x="259" y="1319" on="0"/>
        <pt x="296" y="1343" on="1"/>
        <pt x="384" y="1399" on="0"/>
        <pt x="445" y="1399" on="1"/>
        <pt x="512" y="1399" on="0"/>
        <pt x="564" y="1351" on="1"/>
        <pt x="615" y="1303" on="0"/>
        <pt x="615" y="1154" on="0"/>
      </contour>
      <contour>
        <pt x="417" y="1068" on="1"/>
        <pt x="421" y="1084" on="0"/>
        <pt x="421" y="1127" on="0"/>
        <pt x="399" y="1184" on="0"/>
        <pt x="380" y="1206" on="1"/>
        <pt x="341" y="1255" on="0"/>
        <pt x="281" y="1263" on="1"/>
        <pt x="278" y="1251" on="0"/>
        <pt x="278" y="1209" on="0"/>
        <pt x="298" y="1151" on="0"/>
        <pt x="316" y="1128" on="1"/>
        <pt x="357" y="1076" on="0"/>
      </contour>
    </TTGlyph>
    <TTGlyph name="dieresis" xMin="0" yMin="1244" xMax="802" yMax="1522">
      <contour>
        <pt x="802" y="1381" on="1"/>
        <pt x="608" y="1244" on="1"/>
        <pt x="456" y="1386" on="1"/>
        <pt x="651" y="1522" on="1"/>
      </contour>
      <contour>
        <pt x="346" y="1381" on="1"/>
        <pt x="152" y="1244" on="1"/>
        <pt x="0" y="1386" on="1"/>
        <pt x="194" y="1522" on="1"/>
      </contour>
    </TTGlyph>
    <TTGlyph name="divide" xMin="76" yMin="108" xMax="992" yMax="1000">
      <contour>
        <pt x="683" y="833" on="1"/>
        <pt x="489" y="697" on="1"/>
        <pt x="385" y="864" on="1"/>
        <pt x="579" y="1000" on="1"/>
      </contour>
      <contour>
        <pt x="992" y="615" on="1"/>
        <pt x="976" y="611" on="0"/>
        <pt x="881" y="528" on="0"/>
        <pt x="862" y="513" on="1"/>
        <pt x="819" y="479" on="0"/>
        <pt x="798" y="479" on="1"/>
        <pt x="76" y="479" on="1"/>
        <pt x="90" y="481" on="0"/>
        <pt x="143" y="528" on="1"/>
        <pt x="243" y="615" on="0"/>
        <pt x="270" y="615" on="1"/>
      </contour>
      <contour>
        <pt x="683" y="244" on="1"/>
        <pt x="489" y="108" on="1"/>
        <pt x="385" y="275" on="1"/>
        <pt x="579" y="411" on="1"/>
      </contour>
    </TTGlyph>
    <TTGlyph name="dollar" xMin="72" yMin="-101" xMax="977" yMax="1526">
      <contour>
        <pt x="290" y="428" on="1"/>
        <pt x="264" y="405" on="0"/>
        <pt x="264" y="358" on="0"/>
        <pt x="297" y="327" on="0"/>
        <pt x="349" y="304" on="0"/>
        <pt x="414" y="289" on="0"/>
        <pt x="445" y="284" on="1"/>
        <pt x="504" y="276" on="0"/>
        <pt x="578" y="276" on="0"/>
        <pt x="658" y="278" on="0"/>
        <pt x="692" y="291" on="1"/>
        <pt x="771" y="321" on="0"/>
        <pt x="771" y="425" on="1"/>
        <pt x="771" y="559" on="0"/>
        <pt x="573" y="616" on="1"/>
        <pt x="517" y="632" on="0"/>
        <pt x="399" y="662" on="0"/>
        <pt x="287" y="696" on="0"/>
        <pt x="243" y="722" on="1"/>
        <pt x="145" y="780" on="0"/>
        <pt x="145" y="879" on="1"/>
        <pt x="145" y="1000" on="0"/>
        <pt x="320" y="1136" on="1"/>
        <pt x="379" y="1183" on="0"/>
        <pt x="448" y="1222" on="1"/>
        <pt x="448" y="1390" on="1"/>
        <pt x="448" y="1408" on="0"/>
        <pt x="570" y="1478" on="0"/>
        <pt x="633" y="1514" on="0"/>
        <pt x="642" y="1526" on="1"/>
        <pt x="642" y="1287" on="1"/>
        <pt x="656" y="1286" on="0"/>
        <pt x="669" y="1286" on="1"/>
        <pt x="696" y="1286" on="1"/>
        <pt x="757" y="1286" on="0"/>
        <pt x="889" y="1256" on="0"/>
        <pt x="916" y="1245" on="1"/>
        <pt x="977" y="1220" on="0"/>
        <pt x="977" y="1190" on="1"/>
        <pt x="977" y="1129" on="0"/>
        <pt x="854" y="1052" on="1"/>
        <pt x="839" y="1042" on="0"/>
        <pt x="812" y="1029" on="1"/>
        <pt x="766" y="1005" on="0"/>
        <pt x="754" y="989" on="1"/>
        <pt x="781" y="1031" on="0"/>
        <pt x="781" y="1054" on="1"/>
        <pt x="781" y="1112" on="0"/>
        <pt x="600" y="1141" on="1"/>
        <pt x="538" y="1151" on="0"/>
        <pt x="482" y="1151" on="0"/>
        <pt x="424" y="1146" on="0"/>
        <pt x="399" y="1133" on="1"/>
        <pt x="340" y="1102" on="0"/>
        <pt x="340" y="1020" on="1"/>
        <pt x="340" y="917" on="0"/>
        <pt x="436" y="858" on="1"/>
        <pt x="488" y="826" on="0"/>
        <pt x="646" y="796" on="0"/>
        <pt x="696" y="784" on="1"/>
        <pt x="817" y="755" on="0"/>
        <pt x="917" y="679" on="0"/>
        <pt x="966" y="606" on="0"/>
        <pt x="966" y="502" on="0"/>
        <pt x="899" y="394" on="0"/>
        <pt x="850" y="347" on="1"/>
        <pt x="755" y="257" on="0"/>
        <pt x="642" y="203" on="1"/>
        <pt x="642" y="35" on="1"/>
        <pt x="560" y="-33" on="0"/>
        <pt x="535" y="-47" on="1"/>
        <pt x="495" y="-70" on="1"/>
        <pt x="459" y="-90" on="0"/>
        <pt x="448" y="-101" on="1"/>
        <pt x="448" y="138" on="1"/>
        <pt x="348" y="138" on="1"/>
        <pt x="219" y="138" on="0"/>
        <pt x="130" y="180" on="1"/>
        <pt x="72" y="207" on="0"/>
        <pt x="72" y="245" on="1"/>
        <pt x="72" y="278" on="0"/>
        <pt x="138" y="331" on="0"/>
        <pt x="187" y="361" on="0"/>
        <pt x="212" y="376" on="1"/>
        <pt x="275" y="413" on="0"/>
      </contour>
    </TTGlyph>
    <TTGlyph name="dotaccent" xMin="0" yMin="1244" xMax="346" yMax="1522">
      <contour>
        <pt x="346" y="1381" on="1"/>
        <pt x="152" y="1244" on="1"/>
        <pt x="0" y="1386" on="1"/>
        <pt x="194" y="1522" on="1"/>
      </contour>
    </TTGlyph>
    <TTGlyph name="dotlessi" xMin="13" yMin="-19" xMax="581" yMax="1006">
      <contour>
        <pt x="581" y="123" on="1"/>
        <pt x="551" y="99" on="0"/>
        <pt x="494" y="49" on="0"/>
        <pt x="463" y="28" on="1"/>
        <pt x="391" y="-19" on="0"/>
        <pt x="325" y="-19" on="1"/>
        <pt x="263" y="-19" on="0"/>
        <pt x="238" y="0" on="1"/>
        <pt x="187" y="38" on="0"/>
        <pt x="187" y="140" on="1"/>
        <pt x="187" y="614" on="1"/>
        <pt x="187" y="722" on="0"/>
        <pt x="148" y="754" on="1"/>
        <pt x="130" y="769" on="0"/>
        <pt x="88" y="769" on="0"/>
        <pt x="59" y="764" on="0"/>
        <pt x="29" y="758" on="0"/>
        <pt x="13" y="755" on="1"/>
        <pt x="63" y="794" on="0"/>
        <pt x="150" y="856" on="0"/>
        <pt x="212" y="898" on="0"/>
        <pt x="322" y="975" on="0"/>
        <pt x="381" y="1006" on="1"/>
        <pt x="381" y="300" on="1"/>
        <pt x="381" y="198" on="0"/>
        <pt x="394" y="171" on="1"/>
        <pt x="422" y="116" on="0"/>
        <pt x="518" y="116" on="1"/>
        <pt x="544" y="116" on="0"/>
      </contour>
    </TTGlyph>
    <TTGlyph name="dotlessj" xMin="-156" yMin="-603" xMax="383" yMax="1006">
      <contour>
        <pt x="60" y="-375" on="1"/>
        <pt x="37" y="-393" on="0"/>
        <pt x="37" y="-444" on="0"/>
        <pt x="75" y="-468" on="0"/>
        <pt x="96" y="-467" on="1"/>
        <pt x="98" y="-467" on="1"/>
        <pt x="178" y="-333" on="0"/>
        <pt x="186" y="-103" on="1"/>
        <pt x="189" y="-39" on="0"/>
        <pt x="189" y="22" on="1"/>
        <pt x="189" y="604" on="1"/>
        <pt x="189" y="716" on="0"/>
        <pt x="153" y="752" on="1"/>
        <pt x="136" y="769" on="0"/>
        <pt x="109" y="769" on="1"/>
        <pt x="74" y="769" on="0"/>
        <pt x="15" y="755" on="1"/>
        <pt x="137" y="851" on="0"/>
        <pt x="383" y="1006" on="1"/>
        <pt x="383" y="196" on="1"/>
        <pt x="383" y="-22" on="0"/>
        <pt x="344" y="-189" on="0"/>
        <pt x="286" y="-325" on="0"/>
        <pt x="204" y="-450" on="0"/>
        <pt x="152" y="-498" on="1"/>
        <pt x="40" y="-603" on="0"/>
        <pt x="-92" y="-603" on="1"/>
        <pt x="-156" y="-603" on="0"/>
        <pt x="-156" y="-555" on="1"/>
        <pt x="-156" y="-524" on="0"/>
        <pt x="-91" y="-472" on="0"/>
        <pt x="-42" y="-440" on="0"/>
        <pt x="-18" y="-426" on="1"/>
        <pt x="44" y="-390" on="0"/>
      </contour>
    </TTGlyph>
    <TTGlyph name="e" xMin="74" yMin="-14" xMax="834" yMax="980">
      <contour>
        <pt x="834" y="185" on="1"/>
        <pt x="697" y="32" on="0"/>
        <pt x="494" y="-6" on="1"/>
        <pt x="447" y="-14" on="0"/>
        <pt x="309" y="-14" on="0"/>
        <pt x="187" y="63" on="0"/>
        <pt x="148" y="124" on="1"/>
        <pt x="74" y="242" on="0"/>
        <pt x="74" y="412" on="1"/>
        <pt x="74" y="524" on="0"/>
        <pt x="160" y="660" on="1"/>
        <pt x="244" y="794" on="0"/>
        <pt x="365" y="884" on="1"/>
        <pt x="495" y="980" on="0"/>
        <pt x="611" y="980" on="1"/>
        <pt x="671" y="980" on="0"/>
        <pt x="712" y="936" on="1"/>
        <pt x="750" y="893" on="0"/>
        <pt x="750" y="783" on="0"/>
        <pt x="702" y="690" on="0"/>
        <pt x="625" y="602" on="0"/>
        <pt x="526" y="521" on="0"/>
        <pt x="474" y="486" on="1"/>
        <pt x="401" y="436" on="0"/>
        <pt x="290" y="373" on="1"/>
        <pt x="322" y="252" on="0"/>
        <pt x="484" y="121" on="0"/>
        <pt x="612" y="121" on="1"/>
        <pt x="720" y="121" on="0"/>
      </contour>
      <contour>
        <pt x="532" y="586" on="1"/>
        <pt x="559" y="629" on="0"/>
        <pt x="559" y="711" on="0"/>
        <pt x="541" y="768" on="0"/>
        <pt x="524" y="790" on="1"/>
        <pt x="485" y="840" on="0"/>
        <pt x="423" y="840" on="1"/>
        <pt x="271" y="840" on="0"/>
        <pt x="271" y="530" on="1"/>
        <pt x="271" y="475" on="0"/>
        <pt x="280" y="421" on="1"/>
        <pt x="456" y="470" on="0"/>
      </contour>
    </TTGlyph>
    <TTGlyph name="eacute" xMin="72" yMin="-14" xMax="832" yMax="1390">
      <component glyphName="e" x="-2" y="0" flags="0x1004"/>
      <component glyphName="acute" x="259" y="-313" flags="0x1004"/>
    </TTGlyph>
    <TTGlyph name="ebreve" xMin="53" yMin="-14" xMax="834" yMax="1405">
      <component glyphName="e" x="0" y="0" flags="0x1204"/>
      <component glyphName="breve" x="53" y="-222" flags="0x1004"/>
    </TTGlyph>
    <TTGlyph name="ecaron" xMin="74" yMin="-14" xMax="834" yMax="1363">
      <component glyphName="e" x="0" y="0" flags="0x1204"/>
      <component glyphName="caron" x="106" y="-265" flags="0x1004"/>
    </TTGlyph>
    <TTGlyph name="ecircumflex" xMin="74" yMin="-14" xMax="835" yMax="1424">
      <component glyphName="e" x="0" y="0" flags="0x1204"/>
      <component glyphName="circumflex" x="173" y="-204" flags="0x1004"/>
    </TTGlyph>
    <TTGlyph name="edieresis" xMin="53" yMin="-14" xMax="855" yMax="1350">
      <component glyphName="e" x="0" y="0" flags="0x1004"/>
      <component glyphName="dieresis" x="53" y="-172" flags="0x1004"/>
    </TTGlyph>
    <TTGlyph name="edotaccent" xMin="74" yMin="-14" xMax="834" yMax="1309">
      <component glyphName="e" x="0" y="0" flags="0x1204"/>
      <component glyphName="dotaccent" x="264" y="-213" flags="0x1004"/>
    </TTGlyph>
    <TTGlyph name="egrave" xMin="74" yMin="-14" xMax="834" yMax="1529">
      <component glyphName="e" x="0" y="0" flags="0x1204"/>
      <component glyphName="grave" x="157" y="-177" flags="0x1004"/>
    </TTGlyph>
    <TTGlyph name="eight" xMin="114" yMin="-37" xMax="1113" yMax="1469">
      <contour>
        <pt x="382" y="723" on="1"/>
        <pt x="192" y="806" on="0"/>
        <pt x="192" y="968" on="1"/>
        <pt x="192" y="1082" on="0"/>
        <pt x="291" y="1204" on="1"/>
        <pt x="434" y="1381" on="0"/>
        <pt x="646" y="1448" on="1"/>
        <pt x="710" y="1469" on="0"/>
        <pt x="823" y="1469" on="0"/>
        <pt x="931" y="1432" on="0"/>
        <pt x="973" y="1398" on="1"/>
        <pt x="1066" y="1321" on="0"/>
        <pt x="1066" y="1204" on="1"/>
        <pt x="1066" y="1048" on="0"/>
        <pt x="876" y="856" on="1"/>
        <pt x="826" y="806" on="0"/>
        <pt x="783" y="770" on="1"/>
        <pt x="921" y="705" on="0"/>
        <pt x="985" y="650" on="1"/>
        <pt x="1113" y="539" on="0"/>
        <pt x="1113" y="423" on="1"/>
        <pt x="1113" y="280" on="0"/>
        <pt x="953" y="159" on="1"/>
        <pt x="896" y="116" on="0"/>
        <pt x="780" y="34" on="0"/>
        <pt x="720" y="10" on="1"/>
        <pt x="602" y="-37" on="0"/>
        <pt x="407" y="-37" on="0"/>
        <pt x="271" y="17" on="0"/>
        <pt x="221" y="65" on="1"/>
        <pt x="114" y="168" on="0"/>
        <pt x="114" y="326" on="1"/>
        <pt x="114" y="533" on="0"/>
      </contour>
      <contour>
        <pt x="754" y="783" on="1"/>
        <pt x="875" y="923" on="0"/>
        <pt x="875" y="1071" on="1"/>
        <pt x="875" y="1191" on="0"/>
        <pt x="778" y="1264" on="1"/>
        <pt x="690" y="1331" on="0"/>
        <pt x="567" y="1331" on="1"/>
        <pt x="425" y="1331" on="0"/>
        <pt x="396" y="1215" on="1"/>
        <pt x="386" y="1178" on="0"/>
        <pt x="386" y="1083" on="0"/>
        <pt x="420" y="1004" on="0"/>
        <pt x="478" y="937" on="0"/>
        <pt x="553" y="883" on="0"/>
        <pt x="594" y="860" on="1"/>
        <pt x="645" y="832" on="0"/>
      </contour>
      <contour>
        <pt x="411" y="710" on="1"/>
        <pt x="311" y="610" on="0"/>
        <pt x="311" y="454" on="1"/>
        <pt x="311" y="294" on="0"/>
        <pt x="424" y="195" on="1"/>
        <pt x="534" y="99" on="0"/>
        <pt x="695" y="99" on="1"/>
        <pt x="844" y="99" on="0"/>
        <pt x="895" y="185" on="1"/>
        <pt x="914" y="217" on="0"/>
        <pt x="914" y="278" on="1"/>
        <pt x="914" y="416" on="0"/>
        <pt x="800" y="510" on="1"/>
        <pt x="704" y="589" on="0"/>
        <pt x="512" y="668" on="1"/>
        <pt x="460" y="689" on="0"/>
      </contour>
    </TTGlyph>
    <TTGlyph name="ellipsis" xMin="84" yMin="-30" xMax="1325" yMax="273">
      <contour>
        <pt x="383" y="106" on="1"/>
        <pt x="189" y="-30" on="1"/>
        <pt x="84" y="137" on="1"/>
        <pt x="278" y="273" on="1"/>
      </contour>
      <contour>
        <pt x="854" y="106" on="1"/>
        <pt x="660" y="-30" on="1"/>
        <pt x="555" y="137" on="1"/>
        <pt x="749" y="273" on="1"/>
      </contour>
      <contour>
        <pt x="1325" y="106" on="1"/>
        <pt x="1131" y="-30" on="1"/>
        <pt x="1026" y="137" on="1"/>
        <pt x="1220" y="273" on="1"/>
      </contour>
    </TTGlyph>
    <TTGlyph name="emacron" xMin="-20" yMin="-14" xMax="896" yMax="1202">
      <component glyphName="e" x="0" y="0" flags="0x1204"/>
      <component glyphName="macron" x="-20" y="-261" flags="0x1004"/>
    </TTGlyph>
    <TTGlyph name="emdash" xMin="138" yMin="479" xMax="938" yMax="615">
      <contour>
        <pt x="938" y="615" on="1"/>
        <pt x="926" y="614" on="0"/>
        <pt x="819" y="521" on="0"/>
        <pt x="762" y="479" on="0"/>
        <pt x="744" y="479" on="1"/>
        <pt x="138" y="479" on="1"/>
        <pt x="150" y="480" on="0"/>
        <pt x="257" y="573" on="0"/>
        <pt x="314" y="615" on="0"/>
        <pt x="332" y="615" on="1"/>
      </contour>
    </TTGlyph>
    <TTGlyph name="endash" xMin="138" yMin="479" xMax="638" yMax="615">
      <contour>
        <pt x="638" y="615" on="1"/>
        <pt x="626" y="614" on="0"/>
        <pt x="519" y="521" on="0"/>
        <pt x="462" y="479" on="0"/>
        <pt x="444" y="479" on="1"/>
        <pt x="138" y="479" on="1"/>
        <pt x="150" y="480" on="0"/>
        <pt x="257" y="573" on="0"/>
        <pt x="314" y="615" on="0"/>
        <pt x="332" y="615" on="1"/>
      </contour>
    </TTGlyph>
</ttFont>
